<?xml version="1.0" encoding="iso-8859-1"?>
<!-- Generator: Adobe Illustrator 19.0.0, SVG Export Plug-In . SVG Version: 6.00 Build 0)  -->
<svg version="1.1" id="Layer_1" xmlns="http://www.w3.org/2000/svg" xmlns:xlink="http://www.w3.org/1999/xlink" x="0px" y="0px"
	 viewBox="0 0 290.868 290.868" style="enable-background:new 0 0 290.868 290.868;" xml:space="preserve">
<g>
	<path style="fill:#3DB39E;" d="M40.732,91.013c-10.051,0-18.198,7.119-18.198,15.922v68.105c0,8.794,8.148,15.932,18.198,15.932
		c10.041,0,18.198-7.137,18.198-15.932v-68.105C58.931,98.141,50.774,91.013,40.732,91.013z M178.38,24.41l15.904-15.859
		c1.966-1.957,1.966-5.116,0-7.083c-1.966-1.957-5.134-1.957-7.101,0l-19.572,19.538c-7.001-1.712-14.384-2.658-22.067-2.658
		c-7.592,0-14.912,0.938-21.831,2.604L104.176,1.469c-1.966-1.957-5.144-1.957-7.101,0c-1.966,1.957-1.966,5.125,0,7.083
		l15.822,15.777c-26.4,10.123-44.744,32.072-44.744,57.58c0,0.31,154.763,0.018,154.763,0
		C222.925,56.465,204.681,34.57,178.38,24.41z M122.775,63.748c-5.034,0-9.104-4.06-9.104-9.086c0-5.016,4.069-9.086,9.104-9.086
		s9.104,4.069,9.104,9.086C131.888,59.678,127.791,63.748,122.775,63.748z M168.303,63.748c-5.034,0-9.104-4.06-9.104-9.086
		c0-5.016,4.069-9.086,9.104-9.086c5.034,0,9.104,4.069,9.104,9.086S173.328,63.748,168.303,63.748z M250.145,91.013
		c-10.051,0-18.207,7.119-18.207,15.922v68.105c0,8.794,8.157,15.932,18.207,15.932c10.05,0,18.189-7.146,18.189-15.932v-68.105
		C268.334,98.141,260.177,91.013,250.145,91.013z M68.153,199.976c0,15.021,12.181,27.184,27.22,27.238v47.722
		c0,8.803,8.148,15.932,18.198,15.932c10.041,0,18.189-7.128,18.189-15.932v-47.722h27.348v47.722
		c0,8.803,8.148,15.932,18.198,15.932c10.041,0,18.189-7.128,18.189-15.932v-47.722h0.118c15.085,0,27.311-12.199,27.311-27.238
		V90.986H68.162v108.99H68.153z"/>
</g>
<g>
</g>
<g>
</g>
<g>
</g>
<g>
</g>
<g>
</g>
<g>
</g>
<g>
</g>
<g>
</g>
<g>
</g>
<g>
</g>
<g>
</g>
<g>
</g>
<g>
</g>
<g>
</g>
<g>
</g>
</svg>
