<?xml version="1.0" encoding="UTF-8" standalone="no"?>
<!-- Generator: Adobe Illustrator 19.0.0, SVG Export Plug-In . SVG Version: 6.00 Build 0)  -->

<svg
   xmlns:dc="http://purl.org/dc/elements/1.1/"
   xmlns:cc="http://creativecommons.org/ns#"
   xmlns:rdf="http://www.w3.org/1999/02/22-rdf-syntax-ns#"
   xmlns:svg="http://www.w3.org/2000/svg"
   xmlns="http://www.w3.org/2000/svg"
   xmlns:sodipodi="http://sodipodi.sourceforge.net/DTD/sodipodi-0.dtd"
   xmlns:inkscape="http://www.inkscape.org/namespaces/inkscape"
   version="1.1"
   id="Layer_1"
   x="0px"
   y="0px"
   viewBox="0 0 511.801 511.801"
   style="enable-background:new 0 0 511.801 511.801;"
   xml:space="preserve"
   sodipodi:docname="android.svg"
   inkscape:version="0.92.3 (2405546, 2018-03-11)"><metadata
   id="metadata71"><rdf:RDF><cc:Work
       rdf:about=""><dc:format>image/svg+xml</dc:format><dc:type
         rdf:resource="http://purl.org/dc/dcmitype/StillImage" /></cc:Work></rdf:RDF></metadata><defs
   id="defs69">
	
	
	
	
	
	
	
	
	
	
	
	
	
	
	
	
</defs><sodipodi:namedview
   pagecolor="#ffffff"
   bordercolor="#666666"
   borderopacity="1"
   objecttolerance="10"
   gridtolerance="10"
   guidetolerance="10"
   inkscape:pageopacity="0"
   inkscape:pageshadow="2"
   inkscape:window-width="1366"
   inkscape:window-height="741"
   id="namedview67"
   showgrid="false"
   inkscape:zoom="0.46111673"
   inkscape:cx="255.9005"
   inkscape:cy="255.9005"
   inkscape:window-x="0"
   inkscape:window-y="27"
   inkscape:window-maximized="1"
   inkscape:current-layer="Layer_1" />
<path
   inkscape:connector-curvature="0"
   id="path2"
   d="m 383.9,127.801 h -256 c 3.413,-36.693 39.253,-102.4 128.853,-102.4 85.334,0 123.734,65.706 127.147,102.4"
   style="fill:#2b8071;fill-opacity:1" /><path
   inkscape:connector-curvature="0"
   id="path4"
   d="M 358.3,127.801 H 127.9 c 3.413,-36.693 50.347,-102.4 103.253,-102.4 85.334,0 123.734,65.706 127.147,102.4"
   style="fill:#3db39e;fill-opacity:1" /><path
   inkscape:connector-curvature="0"
   id="path6"
   d="m 59.634,349.667 v 0 c -18.773,0 -34.133,-15.36 -34.133,-34.133 V 196.067 c 0,-18.773 15.36,-34.133 34.133,-34.133 18.773,0 34.133,15.36 34.133,34.133 v 119.467 c 0,18.773 -15.36,34.133 -34.133,34.133"
   style="fill:#ffffff" /><path
   inkscape:connector-curvature="0"
   id="path8"
   d="m 85.234,349.667 v 0 c -18.773,0 -34.133,-15.36 -34.133,-34.133 V 196.067 c 0,-18.773 15.36,-34.133 34.133,-34.133 z"
   style="fill:#3db39e;fill-opacity:1" /><path
   inkscape:connector-curvature="0"
   id="path10"
   d="m 452.167,349.667 v 0 c -18.773,0 -34.133,-15.36 -34.133,-34.133 V 196.067 c 0,-18.773 15.36,-34.133 34.133,-34.133 18.773,0 34.133,15.36 34.133,34.133 v 119.467 c 0,18.773 -15.36,34.133 -34.133,34.133"
   style="fill:#2b8071;fill-opacity:1" /><path
   inkscape:connector-curvature="0"
   id="path12"
   d="m 426.567,161.934 v 0 c 18.773,0 34.133,15.36 34.133,34.133 v 119.467 c 0,18.773 -15.36,34.133 -34.133,34.133"
   style="fill:#3db39e;fill-opacity:1" /><path
   inkscape:connector-curvature="0"
   id="path14"
   d="m 349.767,392.334 v 85.333 c 0,14.507 -11.093,25.6 -25.6,25.6 -14.507,0 -25.6,-11.093 -25.6,-25.6 v -85.333 h -85.333 v 85.333 c 0,14.507 -11.947,25.6 -25.6,25.6 -13.653,0 -25.6,-11.093 -25.6,-25.6 V 392.334 H 127.9 v -230.4 h 256 v 230.4 z"
   style="fill:#2b8071;fill-opacity:1" /><path
   inkscape:connector-curvature="0"
   id="path16"
   d="m 349.767,392.334 v 85.333 c 0,14.507 -11.093,25.6 -25.6,25.6 -14.507,0 -25.6,-11.093 -25.6,-25.6 v -85.333 h -85.333 v 85.333 c 0,14.507 -11.947,25.6 -25.6,25.6 -13.653,0 -25.6,-11.093 -25.6,-25.6 V 392.334 H 127.9 v -230.4 h 230.4 v 230.4 z"
   style="fill:#3db39e;fill-opacity:1" /><path
   inkscape:connector-curvature="0"
   id="path18"
   d="M 393.287,136.334 H 118.514 l 0.853,-9.387 C 122.78,84.28 163.74,16.867 256.754,16.867 c 50.347,0 82.773,22.187 100.693,40.107 23.04,23.893 33.28,52.053 34.987,69.973 z M 138.14,119.267 H 374.513 C 366.833,86.84 331.846,33.934 257.606,33.934 c -75.946,0 -111.786,48.64 -119.466,85.333 z" /><path
   inkscape:connector-curvature="0"
   id="path20"
   d="m 59.634,358.201 c -23.893,0 -42.667,-18.773 -42.667,-42.667 V 196.067 c 0,-23.893 18.773,-42.667 42.667,-42.667 23.894,0 42.667,18.773 42.667,42.667 v 119.467 c -0.001,23.893 -18.774,42.667 -42.667,42.667 z m 0,-187.734 c -14.507,0 -25.6,11.093 -25.6,25.6 v 119.467 c 0,14.507 11.093,25.6 25.6,25.6 14.507,0 25.6,-11.093 25.6,-25.6 V 196.067 c 0,-14.506 -11.094,-25.6 -25.6,-25.6 z" /><path
   inkscape:connector-curvature="0"
   id="path22"
   d="m 452.167,358.201 c -23.893,0 -42.667,-18.773 -42.667,-42.667 V 196.067 c 0,-23.893 18.773,-42.667 42.667,-42.667 23.894,0 42.667,18.773 42.667,42.667 v 119.467 c 0,23.893 -18.774,42.667 -42.667,42.667 z m 0,-187.734 c -14.507,0 -25.6,11.093 -25.6,25.6 v 119.467 c 0,14.507 11.093,25.6 25.6,25.6 14.507,0 25.6,-11.093 25.6,-25.6 V 196.067 c 0,-14.506 -11.093,-25.6 -25.6,-25.6 z" /><path
   inkscape:connector-curvature="0"
   id="path24"
   d="m 324.167,511.801 c -18.773,0 -34.133,-15.36 -34.133,-34.133 v -76.8 h -68.267 v 76.8 c 0,18.773 -15.36,34.133 -34.133,34.133 -18.773,0 -34.133,-15.36 -34.133,-34.133 v -76.8 H 119.368 V 153.401 H 392.435 V 400.868 H 358.3 v 76.8 c 0,18.773 -15.36,34.133 -34.133,34.133 z m -119.467,-128 h 102.4 v 93.867 c 0,9.387 7.68,17.067 17.067,17.067 9.387,0 17.067,-7.68 17.067,-17.067 v -93.867 h 34.133 V 170.467 H 136.434 V 383.8 h 34.133 v 93.867 c 0,9.387 7.68,17.067 17.067,17.067 9.387,0 17.067,-7.68 17.067,-17.067 v -93.866 z" /><path
   inkscape:connector-curvature="0"
   id="path26"
   d="m 230.3,85.134 c 0,-9.387 -7.68,-17.067 -17.067,-17.067 -9.387,0 -17.067,7.68 -17.067,17.067 0,9.387 7.68,17.067 17.067,17.067 9.387,0 17.067,-7.68 17.067,-17.067" /><path
   inkscape:connector-curvature="0"
   id="path28"
   d="m 315.634,85.134 c 0,-9.387 -7.68,-17.067 -17.067,-17.067 -9.387,0 -17.067,7.68 -17.067,17.067 0,9.387 7.68,17.067 17.067,17.067 9.387,0 17.067,-7.68 17.067,-17.067" /><path
   inkscape:connector-curvature="0"
   id="path30"
   d="m 186.78,51.001 c -3.413,0 -5.973,-1.707 -7.68,-5.12 L 162.887,11.748 c -1.707,-4.267 0,-9.387 4.267,-11.093 4.267,-1.707 9.387,0 11.093,4.267 l 16.213,34.133 c 1.707,4.267 0,9.387 -4.267,11.093 -0.853,-0.001 -1.706,0.853 -3.413,0.853 z" /><path
   inkscape:connector-curvature="0"
   id="path32"
   d="m 324.167,51.001 c -0.853,0 -2.56,0 -3.413,-0.853 -4.267,-1.707 -5.973,-6.827 -4.267,-11.093 L 332.7,4.921 c 1.707,-4.267 6.827,-5.973 11.093,-4.267 4.266,1.706 5.973,6.827 4.267,11.093 L 331.847,45.88 c -0.853,3.414 -4.267,5.121 -7.68,5.121 z" />
<g
   id="g36">
</g>
<g
   id="g38">
</g>
<g
   id="g40">
</g>
<g
   id="g42">
</g>
<g
   id="g44">
</g>
<g
   id="g46">
</g>
<g
   id="g48">
</g>
<g
   id="g50">
</g>
<g
   id="g52">
</g>
<g
   id="g54">
</g>
<g
   id="g56">
</g>
<g
   id="g58">
</g>
<g
   id="g60">
</g>
<g
   id="g62">
</g>
<g
   id="g64">
</g>
</svg>