<?xml version="1.0" encoding="UTF-8" standalone="no"?>
<!-- Generator: Adobe Illustrator 19.0.0, SVG Export Plug-In . SVG Version: 6.00 Build 0)  -->

<svg
   xmlns:dc="http://purl.org/dc/elements/1.1/"
   xmlns:cc="http://creativecommons.org/ns#"
   xmlns:rdf="http://www.w3.org/1999/02/22-rdf-syntax-ns#"
   xmlns:svg="http://www.w3.org/2000/svg"
   xmlns="http://www.w3.org/2000/svg"
   xmlns:sodipodi="http://sodipodi.sourceforge.net/DTD/sodipodi-0.dtd"
   xmlns:inkscape="http://www.inkscape.org/namespaces/inkscape"
   version="1.1"
   id="Layer_1"
   x="0px"
   y="0px"
   viewBox="0 0 512 512"
   style="enable-background:new 0 0 512 512;"
   xml:space="preserve"
   sodipodi:docname="muscle.svg"
   inkscape:version="0.92.3 (2405546, 2018-03-11)"><metadata
   id="metadata59"><rdf:RDF><cc:Work
       rdf:about=""><dc:format>image/svg+xml</dc:format><dc:type
         rdf:resource="http://purl.org/dc/dcmitype/StillImage" /></cc:Work></rdf:RDF></metadata><defs
   id="defs57" /><sodipodi:namedview
   pagecolor="#ffffff"
   bordercolor="#666666"
   borderopacity="1"
   objecttolerance="10"
   gridtolerance="10"
   guidetolerance="10"
   inkscape:pageopacity="0"
   inkscape:pageshadow="2"
   inkscape:window-width="1366"
   inkscape:window-height="741"
   id="namedview55"
   showgrid="false"
   inkscape:zoom="0.4609375"
   inkscape:cx="-98.711864"
   inkscape:cy="256"
   inkscape:window-x="0"
   inkscape:window-y="27"
   inkscape:window-maximized="1"
   inkscape:current-layer="Layer_1" />
<path
   style="fill:#F9AB9B;"
   d="M280.377,179.723H219.1c-8.401,0-16.091-4.717-19.898-12.207l-2.346-4.615  c-1.593-3.134-2.423-6.599-2.423-10.114V98.484c0-12.328,9.994-22.321,22.321-22.321h63.624c12.328,0,22.321,9.994,22.321,22.321  v58.919c0,11.855-9.267,21.642-21.105,22.288l0,0C281.188,179.713,280.783,179.723,280.377,179.723z"
   id="path2" />
<path
   style="fill:#FFBCAB;"
   d="M259.814,150.234v11.363c0,10.01,8.115,18.125,18.125,18.125h55.104h23.482  c6.675,0,12.086-5.411,12.086-12.086v-24.019c0-7.136-6.481-12.517-13.494-11.205L259.814,150.234z"
   id="path4" />
<path
   style="fill:#F29E91;"
   d="M256.533,34.279h84.476c3.926,0,7.388,2.571,8.524,6.329l22.104,73.153  c0.801,2.651,0.17,5.529-1.668,7.602l-25.602,28.873h-46.844L256.533,34.279z"
   id="path6" />
<path
   style="fill:#F9AB9B;"
   d="M263.778,150.234h46.844l25.199-28.419c2.089-2.355,2.805-5.624,1.895-8.637L315.567,39.88  c-1.005-3.326-4.07-5.602-7.544-5.602h-85.235l43.353,57.978L263.778,150.234z"
   id="path8" />
<path
   style="fill:#FFBCAB;"
   d="M199.931,108.846c1.31-11.741,11.017-20.725,22.82-21.214c0.014-0.001,0.026-0.001,0.038-0.002  h24.225l10.41,25.842h-12.362c-11.858,0-21.471,9.612-21.471,21.471v15.292h46.844l24.505-27.636  c2.519-2.842,3.385-6.787,2.286-10.421L273.69,34.279h-91.087l-48.998,42.215L7.604,327.308v62.444  c0,0,65.088,54.935,149.239,54.935s151.579-33.035,151.579-33.035l66.069,66.069h129.904V188.914  c-66.763,0-114.148,51.494-114.148,51.494c-91.263-25.056-115.491,63.113-115.491,63.113s-18.784-50.2-69.479-50.2  s-72.338,45.605-72.338,45.605l61.492-140.792L199.931,108.846z"
   id="path10" />
<g
   id="g20">
	<path
   style="fill:#F9AB9B;"
   d="M260.76,309.43c5.064,0.787,10.447-0.2,13.998-5.908c-16.099-36.389-44.12-49.941-69.277-49.941   c-5.018,0-9.746,0.453-14.202,1.258c30.422,5.829,46.693,30.444,52.928,42.389C247.553,303.637,253.615,308.319,260.76,309.43z"
   id="path12" />
	<path
   style="fill:#F9AB9B;"
   d="M300.258,407.024c-11.034-8.777-26.403-9.553-38.302-1.989   c-23.407,14.878-66.387,37.132-116.969,39.537c3.972,0.244,7.992,0.375,12.059,0.375c56.866,0,123.173-19.709,149.903-32.6   L300.258,407.024z"
   id="path14" />
	<polygon
   style="fill:#F9AB9B;"
   points="201.173,103.469 119.132,298.926 132.941,298.926 194.432,158.134 213.76,112.06  "
   id="polygon16" />
	<path
   style="fill:#F9AB9B;"
   d="M505.734,242.019c0,0-42.769,10.982-42.769,72.692s27.717,83.674,27.717,83.674   s-49.158,49.802-49.158,73.536h64.21L505.734,242.019L505.734,242.019z"
   id="path18" />
</g>
<path
   d="M504.396,181.31c-60.018,0-104.368,38.809-116.491,50.638c-48.276-11.705-78.346,7.199-95.212,25.461  c-8.824,9.554-14.916,19.801-18.905,28.012c-2.417-3.758-5.416-7.89-9.048-12.021c-15.922-18.111-36.483-27.683-59.461-27.683  c-19.439,0-34.921,6.011-46.858,13.867l36.531-83.644l3.674,7.229c1.297,2.552,3.917,4.159,6.779,4.159h54.409h21.17h87.626  c4.199,0,7.604-3.405,7.604-7.604v-49.834c0-1.172-0.273-2.277-0.746-3.269l3.147-3.549c1.751-1.975,2.353-4.717,1.589-7.245  l-25.306-83.748c-0.969-3.209-3.927-5.405-7.279-5.405h-33.744H273.69h-17.157h-33.744h-40.186c-1.822,0-3.583,0.654-4.964,1.843  l-48.998,42.215c-0.759,0.655-1.382,1.452-1.831,2.347L0.809,323.895C0.277,324.953,0,326.123,0,327.308v62.444  c0,2.24,0.988,4.367,2.7,5.81c2.745,2.317,68.201,56.728,154.144,56.728c72.853,0,132.633-23.857,149.947-31.517l62.326,62.325  c1.426,1.427,3.36,2.227,5.377,2.227h129.902c4.199,0,7.604-3.405,7.604-7.604V188.914C512,184.715,508.595,181.31,504.396,181.31z   M361.008,172.119h-80.022h-13.566v-14.28h3.018h27.085h13.101h33.744c2.176,0,4.246-0.932,5.69-2.559l10.951-12.35L361.008,172.119  L361.008,172.119z M364.419,116.161l-23.472,26.471h-13.418l17.343-19.559c1.751-1.975,2.353-4.717,1.589-7.245l-22.343-73.944  h17.857L364.419,116.161z M330.675,116.161l-23.472,26.471h-9.68h-10.18l17.343-19.559c1.752-1.975,2.353-4.717,1.59-7.245  l-22.344-73.944h24.299L330.675,116.161z M496.792,470.118h-119.15l-63.843-63.843c-2.297-2.296-5.802-2.879-8.719-1.454  c-0.66,0.322-66.961,32.261-148.238,32.261c-70.907,0-128.709-41.08-141.635-51.006v-56.967L139.718,81.264l45.708-39.38h37.363  h33.744h11.511l22.444,74.278l-23.472,26.471h-3.238h-32.582v-7.688c0-7.647,6.22-13.867,13.867-13.867h12.362  c2.527,0,4.888-1.255,6.302-3.349c1.414-2.094,1.695-4.753,0.751-7.097l-10.41-25.842c-0.036-0.09-0.082-0.174-0.122-0.263  c-0.011-0.024-0.022-0.049-0.033-0.072c-0.961-2.09-2.764-3.549-4.841-4.135c-0.004-0.001-0.008-0.002-0.011-0.003  c-0.223-0.063-0.449-0.116-0.678-0.158c-0.043-0.008-0.086-0.014-0.129-0.021c-0.193-0.032-0.387-0.058-0.583-0.075  c-0.075-0.007-0.15-0.01-0.226-0.015c-0.165-0.01-0.329-0.015-0.496-0.014c-0.046,0-0.089-0.005-0.135-0.004  c-1.685,0.044-27.537,0.022-44.504-0.002c-0.004,0-0.007,0-0.011,0c-4.194,0-7.598,3.397-7.604,7.593  c-0.006,4.199,3.393,7.609,7.593,7.615c2.78,0.004,19.39,0.027,31.636,0.027c3.009,0,5.754-0.001,7.965-0.005l4.274,10.612h-1.101  c-16.032,0-29.075,13.042-29.075,29.075v15.292c0,4.199,3.405,7.604,7.604,7.604h28.619v14.28h-42.14l-8.86-17.43  c-1.333-2.623-4.081-4.246-7.001-4.155c-2.941,0.085-5.568,1.86-6.746,4.557l-61.49,140.791c-1.663,3.806,0.036,8.242,3.816,9.963  c3.778,1.722,8.241,0.092,10.022-3.659c0.196-0.413,20.106-41.261,65.468-41.261c44.66,0,61.662,43.43,62.358,45.262  c1.156,3.088,4.168,5.088,7.463,4.931c3.294-0.148,6.117-2.402,6.991-5.581c0.056-0.203,5.752-20.459,21.776-37.809  c21.094-22.841,49.479-29.565,84.37-19.987c2.746,0.754,5.681-0.089,7.608-2.184c0.433-0.47,42.212-45.148,100.948-48.801v273.361  H496.792z"
   id="path22" />
<g
   id="g24">
</g>
<g
   id="g26">
</g>
<g
   id="g28">
</g>
<g
   id="g30">
</g>
<g
   id="g32">
</g>
<g
   id="g34">
</g>
<g
   id="g36">
</g>
<g
   id="g38">
</g>
<g
   id="g40">
</g>
<g
   id="g42">
</g>
<g
   id="g44">
</g>
<g
   id="g46">
</g>
<g
   id="g48">
</g>
<g
   id="g50">
</g>
<g
   id="g52">
</g>
<path
   inkscape:connector-curvature="0"
   id="path4-3"
   d="m 466.27978,146.82303 -15.67533,-34.34642 c -1.7769,-3.89542 -6.37614,-5.61118 -10.27111,-3.83306 -3.89663,1.77735 -5.61622,6.38488 -3.83427,10.27155 l 15.67532,34.34644 c 1.77691,3.89541 6.37614,5.61117 10.27112,3.83305 3.71277,-1.69327 5.44667,-5.95089 4.062,-9.71924 -0.0678,-0.18435 -0.14366,-0.36846 -0.22773,-0.55232 z"
   style="stroke-width:1.29214454" /><path
   inkscape:connector-curvature="0"
   id="path6-6"
   d="m 427.36366,164.98123 -27.74145,-24.7787 c -3.1929,-2.85306 -8.0951,-2.57579 -10.94663,0.61811 -2.85206,3.19138 -2.57452,8.09484 0.61686,10.9469 l 27.74145,24.77871 c 3.1929,2.85306 8.0951,2.57578 10.94663,-0.61812 1.71058,-1.91416 2.29637,-4.44337 1.80223,-6.77693 -0.33004,-1.55865 -1.14187,-3.02849 -2.41909,-4.16997 z"
   style="stroke-width:1.29214454" /><path
   inkscape:connector-curvature="0"
   id="path8-7"
   d="m 492.96942,109.80306 -0.39056,37.1949 c -0.0436,4.28122 3.39039,7.78977 7.67104,7.83511 4.28065,0.0453 7.78921,-3.38865 7.83397,-7.67045 l 0.39057,-37.1949 c 0.0126,-1.29222 -0.28991,-2.5141 -0.83758,-3.59099 -1.26753,-2.49242 -3.84389,-4.21194 -6.83403,-4.24239 -4.28009,-0.0471 -7.78807,3.38807 -7.83341,7.66872 z"
   style="stroke-width:1.29214454" /></svg>