<?xml version="1.0" encoding="UTF-8" standalone="no"?>
<!-- Generator: Adobe Illustrator 19.0.0, SVG Export Plug-In . SVG Version: 6.00 Build 0)  -->

<svg
   xmlns:dc="http://purl.org/dc/elements/1.1/"
   xmlns:cc="http://creativecommons.org/ns#"
   xmlns:rdf="http://www.w3.org/1999/02/22-rdf-syntax-ns#"
   xmlns:svg="http://www.w3.org/2000/svg"
   xmlns="http://www.w3.org/2000/svg"
   xmlns:sodipodi="http://sodipodi.sourceforge.net/DTD/sodipodi-0.dtd"
   xmlns:inkscape="http://www.inkscape.org/namespaces/inkscape"
   version="1.1"
   id="Layer_1"
   x="0px"
   y="0px"
   viewBox="0 0 456.645 456.645"
   style="enable-background:new 0 0 456.645 456.645;"
   xml:space="preserve"
   sodipodi:docname="pencil.svg"
   inkscape:version="0.92.3 (2405546, 2018-03-11)"><metadata
   id="metadata43"><rdf:RDF><cc:Work
       rdf:about=""><dc:format>image/svg+xml</dc:format><dc:type
         rdf:resource="http://purl.org/dc/dcmitype/StillImage" /></cc:Work></rdf:RDF></metadata><defs
   id="defs41" /><sodipodi:namedview
   pagecolor="#ffffff"
   bordercolor="#666666"
   borderopacity="1"
   objecttolerance="10"
   gridtolerance="10"
   guidetolerance="10"
   inkscape:pageopacity="0"
   inkscape:pageshadow="2"
   inkscape:window-width="1366"
   inkscape:window-height="741"
   id="namedview39"
   showgrid="false"
   inkscape:zoom="0.51681285"
   inkscape:cx="-88.039612"
   inkscape:cy="59.01556"
   inkscape:window-x="0"
   inkscape:window-y="27"
   inkscape:window-maximized="1"
   inkscape:current-layer="Layer_1" />
<circle
   style="color:#000000;clip-rule:nonzero;display:inline;overflow:visible;visibility:visible;opacity:1;isolation:auto;mix-blend-mode:normal;color-interpolation:sRGB;color-interpolation-filters:linearRGB;solid-color:#000000;solid-opacity:1;fill:#ff74a3;fill-opacity:1;fill-rule:nonzero;stroke:none;stroke-width:1;stroke-linecap:round;stroke-linejoin:miter;stroke-miterlimit:4;stroke-dasharray:none;stroke-dashoffset:0;stroke-opacity:0.93010751;color-rendering:auto;image-rendering:auto;shape-rendering:auto;text-rendering:auto;enable-background:accumulate"
   id="path855"
   cx="329.90665"
   cy="126.73833"
   r="49.340878" /><path
   transform="matrix(0.70163782,-0.71253377,0.70163782,0.71253377,0,0)"
   style="color:#000000;clip-rule:nonzero;display:inline;overflow:visible;visibility:visible;opacity:1;isolation:auto;mix-blend-mode:normal;color-interpolation:sRGB;color-interpolation-filters:linearRGB;solid-color:#000000;solid-opacity:1;fill:#ffcc00;fill-opacity:1;fill-rule:nonzero;stroke:none;stroke-width:0.9043653;stroke-linecap:round;stroke-linejoin:miter;stroke-miterlimit:4;stroke-dasharray:none;stroke-dashoffset:0;stroke-opacity:0.93010751;color-rendering:auto;image-rendering:auto;shape-rendering:auto;text-rendering:auto;enable-background:accumulate"
   d="m -120.43007,283.19351 246.54971,0 c 4.41363,0 7.96685,3.55321 7.96685,7.96685 v 61.06144 c 0,4.41363 -4.82666,20.27125 -9.24029,20.27125 l -246.54971,0 c -4.41363,0 -6.6934,-15.85762 -6.6934,-20.27125 v -61.06144 c 0,-4.41364 3.55321,-7.96685 7.96684,-7.96685 z"
   id="rect852"
   inkscape:connector-curvature="0"
   sodipodi:nodetypes="sssssssss" /><g
   id="g6"
   transform="matrix(0.7033901,0,0,0.7033901,67.722452,67.72283)">
	<g
   id="g4">
		<path
   d="m 431.466,25.209 c -33.61,-33.61 -88.01,-33.615 -121.625,0 L 32.192,302.859 c -1.947,1.944 -3.437,4.59 -4.054,7.431 L 0.371,438.469 c -1.08,4.984 0.447,10.176 4.054,13.782 3.61,3.611 8.806,5.132 13.782,4.054 l 128.18,-27.768 c 2.869,-0.621 5.506,-2.129 7.431,-4.054 L 431.467,146.834 C 464.998,113.302 464.998,58.742 431.466,25.209 Z M 34.623,422.053 51.636,343.516 113.16,405.039 Z M 143.211,392.664 64.012,313.465 307,70.477 l 79.199,79.2 z m 267.043,-267.043 -2.842,2.842 -79.199,-79.2 2.842,-2.842 c 21.864,-21.864 57.31,-21.887 79.199,0 21.834,21.836 21.834,57.365 0,79.2 z"
   id="path2"
   inkscape:connector-curvature="0" />
	</g>
</g>
<g
   id="g8">
</g>
<g
   id="g10"
   style="fill:#ffcc00">
</g>
<g
   id="g12">
</g>
<g
   id="g14">
</g>
<g
   id="g16">
</g>
<g
   id="g18">
</g>
<g
   id="g20">
</g>
<g
   id="g22">
</g>
<g
   id="g24">
</g>
<g
   id="g26">
</g>
<g
   id="g28">
</g>
<g
   id="g30">
</g>
<g
   id="g32">
</g>
<g
   id="g34">
</g>
<g
   id="g36">
</g>
<path
   style="fill:none;fill-rule:evenodd;stroke:#000000;stroke-width:1px;stroke-linecap:butt;stroke-linejoin:miter;stroke-opacity:1"
   d="m 168.45565,343.9188 -55.70779,-55.70779 170.91535,-170.91536 55.7078,55.7085 z"
   id="path850"
   inkscape:connector-curvature="0" /><path
   style="fill:#ffffff;fill-rule:evenodd;stroke:#000000;stroke-width:1px;stroke-linecap:butt;stroke-linejoin:miter;stroke-opacity:1;fill-opacity:1"
   d="m 92.075927,364.59073 11.966773,-55.24215 43.27538,43.27467 -55.242153,11.96748"
   id="path857"
   inkscape:connector-curvature="0"
   sodipodi:nodetypes="cccc" /><g
   id="g879"
   transform="rotate(-41.95595,347.89585,446.42679)"><path
     d="m 627.278,196.58334 29.134,-2.219 c 3.304,-0.251 5.778,-3.134 5.526,-6.438 -0.251,-3.305 -3.139,-5.784 -6.438,-5.527 l -29.134,2.219 c -3.304,0.251 -5.778,3.134 -5.526,6.438 0.239,3.149 2.869,5.545 5.976,5.545 0.152,0 0.306,-0.006 0.462,-0.018 z"
     id="path4-3"
     inkscape:connector-curvature="0" /><path
     d="m 627.595,158.98334 23.208,-17.031 c 2.672,-1.96 3.248,-5.716 1.287,-8.387 -1.959,-2.671 -5.716,-3.247 -8.387,-1.288 l -23.208,17.031 c -2.672,1.96 -3.248,5.716 -1.287,8.387 1.175,1.602 2.996,2.451 4.842,2.451 1.233,0 2.476,-0.379 3.545,-1.163 z"
     id="path6-6"
     inkscape:connector-curvature="0" /><path
     d="m 657.896,235.05634 -25.521,-13.318 c -2.938,-1.532 -6.563,-0.394 -8.096,2.543 -1.533,2.937 -0.395,6.562 2.543,8.095 l 25.521,13.318 c 0.887,0.462 1.836,0.682 2.771,0.682 2.164,0 4.254,-1.174 5.324,-3.226 1.534,-2.936 0.395,-6.561 -2.542,-8.094 z"
     id="path8-7"
     inkscape:connector-curvature="0" /></g></svg>