<?xml version="1.0" encoding="UTF-8" standalone="no"?>
<!-- Generator: Adobe Illustrator 19.0.0, SVG Export Plug-In . SVG Version: 6.00 Build 0)  -->

<svg
   xmlns:dc="http://purl.org/dc/elements/1.1/"
   xmlns:cc="http://creativecommons.org/ns#"
   xmlns:rdf="http://www.w3.org/1999/02/22-rdf-syntax-ns#"
   xmlns:svg="http://www.w3.org/2000/svg"
   xmlns="http://www.w3.org/2000/svg"
   xmlns:sodipodi="http://sodipodi.sourceforge.net/DTD/sodipodi-0.dtd"
   xmlns:inkscape="http://www.inkscape.org/namespaces/inkscape"
   version="1.1"
   id="Layer_1"
   x="0px"
   y="0px"
   viewBox="0 0 512.001 512.001"
   style="enable-background:new 0 0 512.001 512.001;"
   xml:space="preserve"
   sodipodi:docname="poo.svg"
   inkscape:version="0.92.3 (2405546, 2018-03-11)"><metadata
   id="metadata59"><rdf:RDF><cc:Work
       rdf:about=""><dc:format>image/svg+xml</dc:format><dc:type
         rdf:resource="http://purl.org/dc/dcmitype/StillImage" /></cc:Work></rdf:RDF></metadata><defs
   id="defs57" /><sodipodi:namedview
   pagecolor="#ffffff"
   bordercolor="#666666"
   borderopacity="1"
   objecttolerance="10"
   gridtolerance="10"
   guidetolerance="10"
   inkscape:pageopacity="0"
   inkscape:pageshadow="2"
   inkscape:window-width="1366"
   inkscape:window-height="741"
   id="namedview55"
   showgrid="false"
   inkscape:zoom="0.46093662"
   inkscape:cx="-96.542556"
   inkscape:cy="256.00049"
   inkscape:window-x="0"
   inkscape:window-y="27"
   inkscape:window-maximized="1"
   inkscape:current-layer="Layer_1" />



<path
   style="fill:#e6e9ed;fill-opacity:1"
   d="m 464.48,467.123 c -5.562,-1.953 -11.641,1 -13.578,6.562 L 68.123,340.342 c 1.938,-5.562 -1,-11.625 -6.562,-13.578 -5.562,-1.938 -11.648,1.016 -13.586,6.578 l -7.016,20.141 c -1.938,5.562 1,11.641 6.562,13.578 5.57,1.938 11.648,-1 13.586,-6.562 l 382.78,133.311 v 0 c -1.938,5.562 1,11.656 6.562,13.594 5.562,1.938 11.641,-1 13.578,-6.562 l 7.016,-20.156 c 1.937,-5.563 -1,-11.641 -6.563,-13.563 z"
   id="path20"
   inkscape:connector-curvature="0" />
<path
   style="fill:#e6e9ed"
   d="m 471.043,353.482 -7.016,-20.141 c -1.938,-5.562 -8.016,-8.516 -13.578,-6.578 -5.562,1.953 -8.5,8.016 -6.562,13.578 L 61.107,473.686 c -1.938,-5.562 -8.016,-8.516 -13.586,-6.562 -5.562,1.922 -8.5,8 -6.562,13.562 l 7.016,20.156 c 1.938,5.562 8.023,8.5 13.586,6.562 5.563,-1.938 8.5,-8.031 6.562,-13.594 v 0 L 450.902,360.498 c 1.938,5.562 8.016,8.5 13.578,6.562 5.562,-1.938 8.5,-8.015 6.563,-13.578 z"
   id="path22"
   inkscape:connector-curvature="0" />
<g
   id="g24">
</g>
<g
   id="g26">
</g>
<g
   id="g28">
</g>
<g
   id="g30">
</g>
<g
   id="g32">
</g>
<g
   id="g34">
</g>
<g
   id="g36">
</g>
<g
   id="g38">
</g>
<g
   id="g40">
</g>
<g
   id="g42">
</g>
<g
   id="g44">
</g>
<g
   id="g46">
</g>
<g
   id="g48">
</g>
<g
   id="g50">
</g>
<g
   id="g52">
</g>
<path
   style="fill:#e6e9ed;stroke:none;stroke-opacity:1"
   d="M 256.00586 20 C 167.63886 20 96.005859 91.631047 96.005859 179.99805 C 96.005859 232.34205 121.13986 278.81805 160.00586 307.99805 L 160.00586 361.3418 L 352.19922 361.3418 L 352.19922 307.87305 C 390.94922 278.66205 416.01172 232.25605 416.01172 179.99805 C 416.01172 91.631047 344.35586 20 256.00586 20 z M 256.00586 50.115234 C 328.07818 50.115234 385.89648 107.91123 385.89648 179.99805 C 385.89648 222.62731 365.56198 260.08479 334.07031 283.82422 A 30.118446 30.118446 0 0 0 322.08398 307.87305 L 322.08398 331.22656 L 190.12109 331.22656 L 190.12109 307.99805 A 30.118446 30.118446 0 0 0 178.08789 283.91406 C 146.51491 260.20955 126.12109 222.7017 126.12109 179.99805 C 126.12109 107.90604 183.91341 50.115234 256.00586 50.115234 z "
   id="path840" /></svg>