<?xml version="1.0" encoding="UTF-8" standalone="no"?>
<svg
   xmlns:dc="http://purl.org/dc/elements/1.1/"
   xmlns:cc="http://creativecommons.org/ns#"
   xmlns:rdf="http://www.w3.org/1999/02/22-rdf-syntax-ns#"
   xmlns:svg="http://www.w3.org/2000/svg"
   xmlns="http://www.w3.org/2000/svg"
   xmlns:sodipodi="http://sodipodi.sourceforge.net/DTD/sodipodi-0.dtd"
   xmlns:inkscape="http://www.inkscape.org/namespaces/inkscape"
   class="icon"
   height="512"
   width="512"
   viewBox="0 0 1025 1024"
   version="1.1"
   id="svg4"
   sodipodi:docname="poo.svg"
   inkscape:version="0.92.3 (2405546, 2018-03-11)">
  <metadata
     id="metadata10">
    <rdf:RDF>
      <cc:Work
         rdf:about="">
        <dc:format>image/svg+xml</dc:format>
        <dc:type
           rdf:resource="http://purl.org/dc/dcmitype/StillImage" />
      </cc:Work>
    </rdf:RDF>
  </metadata>
  <defs
     id="defs8" />
  <sodipodi:namedview
     pagecolor="#ffffff"
     bordercolor="#666666"
     borderopacity="1"
     objecttolerance="10"
     gridtolerance="10"
     guidetolerance="10"
     inkscape:pageopacity="0"
     inkscape:pageshadow="2"
     inkscape:window-width="1366"
     inkscape:window-height="741"
     id="namedview6"
     showgrid="false"
     inkscape:zoom="0.97377667"
     inkscape:cx="2.6294944"
     inkscape:cy="256"
     inkscape:window-x="0"
     inkscape:window-y="27"
     inkscape:window-maximized="1"
     inkscape:current-layer="svg4" />
  <path
     d="M873.3184 681.1136c-3.9424-2.2528-8.0384-4.4544-12.2368-6.6048 48.896-38.3488 60.4672-80.2816 60.4672-111.3088 0-72.6528-61.0816-135.936-162.56-174.5408 5.888-17.9712 8.96-36.864 8.96-55.8592 0-98.816-80.384-179.2-179.2-179.2-35.0208 0-76.8-8.8576-76.8-51.2 0-23.1936 29.5936-48.5376 39.8848-55.552 9.3696-6.2976 13.5168-17.92 10.24-28.7232s-13.2096-18.1248-24.4736-18.1248c-80.2304 0-162.7136 26.368-226.2016 72.3456-32.4096 23.4496-58.112 50.5856-76.4416 80.64-20.0192 32.8192-30.1568 67.4816-30.1568 103.0144 0 14.7456 1.2288 29.3888 3.584 43.776-43.4688 20.992-80.1792 48.6912-107.008 80.9472-32.8192 39.424-50.176 84.8384-50.176 131.2768 0 27.9552 6.2976 56.4736 18.2272 84.0192-45.4656 43.7248-69.4272 94.0032-69.4272 146.3808 0 78.08 52.6336 150.3232 148.1216 203.4176 90.7776 50.432 210.8928 78.1824 338.2784 78.1824 130.9696 0 249.8048-17.0496 334.592-47.9744 125.44-45.7216 151.808-110.5408 151.808-156.8256 0-37.2736-17.2544-91.4944-99.4816-138.0864zM803.4816 927.9488c-79.36 28.928-191.9488 44.8512-317.0816 44.8512-118.784 0-230.0928-25.4976-313.3952-71.7824-78.5408-43.6224-121.8048-99.9936-121.8048-158.6176 0-40.8064 20.992-74.8032 44.3904-99.9424 5.888 8.3968 12.288 16.5888 19.3024 24.5248 40.7552 46.5408 97.4848 82.0736 159.6416 99.9936 2.3552 0.6656 4.7616 1.024 7.1168 1.024 11.1104 0 21.3504-7.2704 24.576-18.4832 3.9424-13.568-3.8912-27.7504-17.5104-31.6928-106.1888-30.6688-186.3168-119.1424-186.3168-205.824 0-62.6688 45.056-122.8288 119.2448-161.536 26.8288 73.8816 83.456 135.2192 153.8048 160.1024 2.816 0.9728 5.6832 1.4848 8.5504 1.4848 10.5472 0 20.4288-6.5536 24.1152-17.0496 4.7104-13.312-2.2528-27.9552-15.616-32.6656-77.824-27.4944-136.5504-116.1728-136.5504-206.2848 0-51.8144 30.3104-102.2976 85.4016-142.1824 38.0928-27.5456 84.1216-47.0016 131.9936-56.32-7.3728 13.2096-12.5952 28.3648-12.5952 44.9024 0 49.5104 33.6384 102.4 128 102.4 70.5536 0 128 57.4464 128 128 0 13.8752-2.1504 27.2896-6.4 40.1408-20.8896-5.6832-43.0592-10.4448-66.304-14.1824-13.9776-2.2528-27.0848 7.2704-29.3376 21.1968s7.2704 27.0848 21.1968 29.3376c71.0144 11.4176 131.2256 33.1264 174.1312 62.7712 27.5456 19.0464 60.3648 50.2784 60.3648 91.136 0 33.024-21.9136 62.3616-65.1776 87.296-46.848-16.64-101.6832-28.8768-162.2528-35.9424-14.0288-1.6384-26.7776 8.3968-28.416 22.4768s8.3968 26.7776 22.4768 28.416c86.3232 10.0864 159.3344 30.9248 211.0464 60.2112 33.536 18.9952 73.5232 50.6368 73.5232 93.5424 0 54.272-64.256 89.088-118.1184 108.7488z"
     id="path2"
     style="fill:#000000;fill-opacity:0.98039216;opacity:0.4" />
</svg>
