<?xml version="1.0" encoding="UTF-8" standalone="no"?>
<svg
	xmlns:dc="http://purl.org/dc/elements/1.1/"
	xmlns:cc="http://creativecommons.org/ns#"
	xmlns:rdf="http://www.w3.org/1999/02/22-rdf-syntax-ns#"
	xmlns:svg="http://www.w3.org/2000/svg"
	xmlns="http://www.w3.org/2000/svg"
	id="svg4"
	version="1.1"
	viewBox="0 0 1025 1024"
	height="512"
	width="512"
	class="icon">
	<metadata
		id="metadata10">
		<rdf:RDF>
			<cc:Work
				rdf:about="">
				<dc:format>image/svg+xml</dc:format>
				<dc:type
					rdf:resource="http://purl.org/dc/dcmitype/StillImage" />
				<dc:title></dc:title>
			</cc:Work>
		</rdf:RDF>
	</metadata>
	<defs
		id="defs8" />
	<path
		transform="matrix(2,0,0,2,-512.5,0)"
		id="path844"
		d="M 492.92188 28.773438 C 486.93787 29.938237 481.01065 31.420725 475.18945 33.203125 C 469.36825 34.985525 463.65304 37.0695 458.08984 39.4375 C 452.52664 41.8055 447.11625 44.457306 441.90625 47.378906 C 439.30125 48.839706 436.7469 50.367737 434.24805 51.960938 C 431.7492 53.554138 429.30658 55.211994 426.92578 56.933594 C 423.48258 59.426394 420.23224 62.002994 417.18164 64.652344 C 414.13104 67.301694 411.28001 70.0247 408.63281 72.8125 C 405.98561 75.6003 403.54159 78.453178 401.30859 81.361328 C 399.07559 84.269478 397.05409 87.233741 395.24609 90.244141 C 393.43809 93.254541 391.84486 96.309747 390.47266 99.404297 C 389.10046 102.49885 387.94904 105.63237 387.02344 108.79297 C 386.09784 111.95357 385.39789 115.14301 384.92969 118.35156 C 384.46149 121.56011 384.22461 124.78699 384.22461 128.02539 C 384.22461 130.84139 384.33989 133.65392 384.56445 136.45703 C 384.78902 139.26014 385.12305 142.05445 385.5625 144.83008 C 386.00195 147.6057 386.54674 150.3641 387.19141 153.09766 C 387.83607 155.83121 388.57972 158.5399 389.41992 161.2168 C 390.26012 163.8937 391.19659 166.53887 392.22266 169.14453 C 393.24872 171.75019 394.36416 174.31611 395.56641 176.83594 C 396.76866 179.35576 398.05702 181.82864 399.42578 184.24805 C 400.79454 186.66745 402.24393 189.03349 403.76953 191.33789 C 405.29513 193.64229 406.89755 195.88574 408.57031 198.06055 C 410.24307 200.23535 411.98663 202.34047 413.79688 204.37109 C 415.60712 206.40172 417.48381 208.35666 419.42188 210.22852 C 421.35994 212.10037 423.35982 213.88939 425.41602 215.58789 C 427.47222 217.28639 429.58534 218.89569 431.75 220.40625 C 433.91466 221.91681 436.13108 223.32869 438.39453 224.63672 C 440.65798 225.94474 442.96775 227.14738 445.32031 228.23828 C 447.67287 229.32919 450.068 230.30877 452.5 231.16797 C 453.3352 231.46237 454.11956 231.83484 454.84961 232.27344 C 455.57966 232.71204 456.25454 233.21654 456.86914 233.77734 C 458.09834 234.89894 459.08737 236.2423 459.79297 237.7207 C 460.49857 239.1991 460.92188 240.81346 461.02148 242.47266 C 461.07128 243.30226 461.03902 244.14257 460.92188 244.98438 C 460.80473 245.82618 460.60104 246.668 460.30664 247.5 C 459.84584 248.812 459.19152 250.00168 458.38672 251.04688 C 457.58192 252.09207 456.62685 252.99287 455.56445 253.73047 C 454.50205 254.46807 453.33321 255.04244 452.09961 255.43164 C 450.86601 255.82084 449.5684 256.02539 448.25 256.02539 C 446.8164 256.02539 445.38261 255.7696 443.97461 255.2832 C 439.57781 253.728 435.28779 251.88856 431.12109 249.78711 C 426.95439 247.68566 422.91106 245.3217 419.00586 242.7207 C 415.10066 240.1197 411.33496 237.28041 407.72266 234.22656 C 404.11036 231.17271 400.65128 227.90531 397.36328 224.44531 C 394.07528 220.98531 390.95769 217.33312 388.02539 213.51367 C 385.09309 209.69422 382.34598 205.70642 379.80078 201.57422 C 377.25558 197.44202 374.91186 193.16583 372.78516 188.76758 C 370.65846 184.36933 368.74907 179.85002 367.07227 175.23242 C 362.43547 177.65162 358.02542 180.23871 353.85938 182.97461 C 349.69333 185.71051 345.77162 188.59573 342.10742 191.61133 C 338.44322 194.62693 335.0375 197.77295 331.90625 201.03125 C 328.775 204.28955 325.91876 207.65905 323.35156 211.12305 C 320.78436 214.58705 318.50525 218.14464 316.5332 221.77734 C 314.56115 225.41004 312.89463 229.11841 311.54883 232.88281 C 310.20303 236.64721 309.17868 240.46707 308.49023 244.32617 C 308.14601 246.25572 307.88695 248.19629 307.71289 250.14258 C 307.53883 252.08887 307.44922 254.0416 307.44922 256 C 307.44922 258.7088 307.60571 261.42038 307.91211 264.12891 C 308.21851 266.83743 308.67579 269.54263 309.27539 272.23633 C 309.87499 274.93003 310.61845 277.61302 311.49805 280.27734 C 312.37765 282.94167 313.39266 285.58663 314.53906 288.20703 C 315.68546 290.82743 316.96328 293.42245 318.36328 295.98438 C 319.76328 298.5463 321.28538 301.07555 322.92578 303.56445 C 324.56618 306.05335 326.32381 308.50297 328.19141 310.9043 C 330.05901 313.30562 332.03754 315.65978 334.11914 317.95898 C 336.20074 320.25818 338.38557 322.50302 340.66797 324.68555 C 342.95037 326.86807 345.33078 328.98776 347.80078 331.03906 C 350.27078 333.09036 352.83021 335.07299 355.47461 336.97852 C 358.11901 338.88404 360.84674 340.71183 363.65234 342.45703 C 366.45794 344.20223 369.34132 345.86327 372.29492 347.43359 C 375.24852 349.00392 378.27293 350.48433 381.36133 351.86523 C 384.44973 353.24613 387.6025 354.52815 390.8125 355.70508 C 394.0225 356.882 397.29098 357.95371 400.60938 358.91211 C 401.46058 359.15851 402.26653 359.48506 403.02148 359.88086 C 403.77643 360.27666 404.47995 360.74162 405.12695 361.26562 C 406.42095 362.31363 407.4873 363.59765 408.2793 365.03125 C 409.0713 366.46485 409.58876 368.04767 409.78516 369.69727 C 409.88336 370.52207 409.90028 371.36394 409.83203 372.21094 C 409.76378 373.05794 409.60968 373.90981 409.36328 374.75781 C 408.96008 376.15941 408.33852 377.43916 407.54492 378.56836 C 406.75132 379.69756 405.78527 380.67762 404.69727 381.48242 C 403.60927 382.28722 402.39968 382.91535 401.11328 383.34375 C 399.82688 383.77215 398.46497 384 397.07617 384 C 395.89857 384 394.69518 383.82108 393.51758 383.48828 C 389.63278 382.36828 385.7897 381.10945 382 379.7207 C 378.2103 378.33195 374.47283 376.81257 370.79883 375.16797 C 367.12483 373.52337 363.51426 371.75474 359.97656 369.86719 C 356.43886 367.97964 352.97455 365.97307 349.59375 363.85547 C 346.21295 361.73787 342.91619 359.50858 339.71289 357.17383 C 336.50959 354.83908 333.39973 352.40033 330.39453 349.86133 C 327.38933 347.32233 324.48767 344.68347 321.70117 341.95312 C 318.91467 339.22278 316.24447 336.39903 313.69727 333.49023 C 310.19007 329.52223 306.98892 325.42692 304.04492 321.22852 C 301.12012 324.37092 298.26983 327.7907 295.64062 331.4707 C 294.32603 333.3107 293.06711 335.21519 291.88086 337.18359 C 290.69461 339.15199 289.58215 341.18454 288.56055 343.27734 C 287.53895 345.37014 286.60776 347.52313 285.78711 349.73633 C 284.96646 351.94953 284.25527 354.22313 283.67188 356.55273 C 283.08848 358.88233 282.63407 361.26894 282.32422 363.71094 C 282.01437 366.15294 281.84961 368.64882 281.84961 371.19922 C 281.84961 373.03122 281.93354 374.85972 282.10156 376.68164 C 282.26959 378.50356 282.52137 380.31963 282.85547 382.12891 C 283.52367 385.74746 284.52295 389.33803 285.84375 392.89062 C 287.16455 396.44322 288.80782 399.95768 290.76562 403.42383 C 292.72343 406.88998 294.99502 410.30877 297.57422 413.66797 C 300.15342 417.02717 303.03961 420.32684 306.22461 423.55859 C 309.40961 426.79034 312.89472 429.95331 316.66992 433.03711 C 320.44512 436.12091 324.51153 439.12567 328.86133 442.04102 C 333.21113 444.95637 337.84315 447.78337 342.75195 450.50977 C 347.95835 453.40257 353.38386 456.13191 359.00781 458.69531 C 364.63176 461.25871 370.45368 463.65606 376.45508 465.88086 C 382.45648 468.10566 388.63781 470.15816 394.97656 472.03516 C 401.31531 473.91216 407.81322 475.61281 414.44922 477.13281 C 421.08522 478.65281 427.8588 479.99268 434.75195 481.14648 C 441.6451 482.30028 448.65738 483.26848 455.76758 484.04688 C 462.87778 484.82527 470.0859 485.41284 477.37305 485.80664 C 484.6602 486.20044 492.02522 486.40039 499.44922 486.40039 C 507.27002 486.40039 514.99306 486.27525 522.59766 486.0293 C 530.20226 485.78335 537.68911 485.41589 545.03711 484.92969 C 552.38511 484.44349 559.59548 483.83794 566.64648 483.11719 C 573.69748 482.39644 580.58913 481.56093 587.30273 480.61133 C 594.01633 479.66173 600.55092 478.59853 606.88672 477.42578 C 613.22252 476.25303 619.35974 474.97028 625.27734 473.58008 C 631.19494 472.18988 636.89256 470.69179 642.35156 469.08984 C 647.81056 467.48789 653.03023 465.78261 657.99023 463.97461 L 657.99023 464 C 661.35663 462.7712 664.80387 461.42488 668.25977 459.95508 C 671.71567 458.48528 675.18048 456.89108 678.58008 455.17188 C 681.97968 453.45267 685.31422 451.60786 688.51172 449.63086 C 691.70922 447.65386 694.76954 445.54593 697.61914 443.30273 C 700.46874 441.05953 703.10894 438.67991 705.46484 436.16211 C 706.64279 434.90321 707.75016 433.61037 708.77734 432.28125 C 709.80453 430.95213 710.75117 429.5879 711.60938 428.1875 C 712.46758 426.7871 713.23722 425.34968 713.9082 423.87695 C 714.57919 422.40423 715.15164 420.89571 715.61719 419.34961 C 716.08274 417.80351 716.43975 416.22013 716.68164 414.59961 C 716.92353 412.97908 717.05078 411.321 717.05078 409.625 C 717.05078 406.9434 716.73765 404.34995 716.1582 401.8457 C 715.57875 399.34145 714.73226 396.92772 713.66406 394.60352 C 712.59586 392.27932 711.30609 390.04575 709.83984 387.9043 C 708.37359 385.76285 706.73063 383.71186 704.95703 381.75586 C 703.18343 379.79986 701.27931 377.93777 699.28906 376.16992 C 697.29881 374.40207 695.22167 372.72934 693.10547 371.15234 C 690.98927 369.57534 688.83309 368.09439 686.68164 366.71094 C 684.53019 365.32749 682.38506 364.04072 680.28906 362.85352 C 677.05706 361.02312 673.65856 359.25865 670.10156 357.5625 C 666.54456 355.86635 662.82929 354.23904 658.96289 352.68164 C 655.09649 351.12424 651.07817 349.63681 646.91797 348.22266 C 642.75777 346.80851 638.45403 345.46757 634.01562 344.20117 C 629.57722 342.93477 625.00373 341.74306 620.30273 340.62891 C 615.60173 339.51476 610.77417 338.47888 605.82617 337.52148 C 600.87817 336.56408 595.81026 335.68678 590.63086 334.89062 C 585.45146 334.09447 580.16083 333.37845 574.76562 332.74805 C 573.88563 332.64565 573.03591 332.45716 572.22656 332.19141 C 571.41721 331.92566 570.64763 331.58403 569.92383 331.17383 C 568.47623 330.35343 567.21522 329.26332 566.19922 327.97852 C 565.18322 326.69372 564.41247 325.21323 563.94727 323.61523 C 563.71467 322.81623 563.55888 321.98762 563.48633 321.13867 C 563.41378 320.28972 563.42494 319.42102 563.52734 318.54102 C 563.62974 317.66102 563.81758 316.81326 564.08398 316.00391 C 564.35038 315.19456 564.69427 314.42302 565.10547 313.69922 C 565.92787 312.25162 567.02024 310.99061 568.30664 309.97461 C 569.59304 308.95861 571.07312 308.18786 572.66992 307.72266 C 573.46832 307.49006 574.29733 307.33427 575.14453 307.26172 C 575.99173 307.18917 576.85757 307.20033 577.73438 307.30273 C 585.30557 308.18593 592.69738 309.23124 599.89258 310.43164 C 607.08778 311.63204 614.08709 312.98659 620.87109 314.49219 C 627.65509 315.99779 634.2249 317.65432 640.5625 319.45312 C 646.9001 321.25193 653.00533 323.19344 658.86133 325.27344 C 661.56533 323.71504 664.10281 322.12259 666.47266 320.49609 C 668.84251 318.86959 671.04548 317.20882 673.08008 315.51562 C 675.11468 313.82243 676.98144 312.09639 678.67969 310.33789 C 680.37794 308.57939 681.90678 306.7892 683.26758 304.9668 C 684.62838 303.1444 685.81955 301.2892 686.8418 299.4043 C 687.86405 297.5194 688.71779 295.6042 689.40039 293.6582 C 690.08299 291.7122 690.59565 289.73617 690.9375 287.73047 C 691.27935 285.72477 691.44922 283.689 691.44922 281.625 C 691.44922 279.0714 691.19435 276.59406 690.71875 274.19336 C 690.24315 271.79266 689.54672 269.46936 688.66992 267.22656 C 687.79312 264.98376 686.73485 262.82013 685.53125 260.74023 C 684.32765 258.66033 682.97944 256.66395 681.52344 254.75195 C 680.06744 252.83995 678.50314 251.01254 676.86914 249.27344 C 675.23514 247.53434 673.53252 245.88347 671.79492 244.32227 C 668.31972 241.19987 664.71078 238.43744 661.26758 236.05664 C 658.58598 234.20384 655.76987 232.414 652.82422 230.6875 C 649.87857 228.961 646.80247 227.29872 643.60547 225.70312 C 640.40847 224.10753 637.08995 222.57924 633.6543 221.11914 C 630.21865 219.65904 626.66746 218.26727 623.00586 216.94727 C 619.34426 215.62727 615.57212 214.37842 611.69727 213.20312 C 607.82242 212.02783 603.84493 210.92639 599.76953 209.90039 C 595.69413 208.87439 591.52106 207.92288 587.25781 207.05078 C 582.99456 206.17868 578.63957 205.38547 574.20117 204.67188 C 573.33077 204.53107 572.49557 204.30521 571.70117 204.00391 C 570.90677 203.70261 570.15322 203.32677 569.44922 202.88477 C 568.04122 202.00077 566.82914 200.85534 565.86914 199.52734 C 564.90914 198.19934 564.20149 196.68782 563.80469 195.07422 C 563.60629 194.26742 563.48522 193.43444 563.44922 192.58594 C 563.41322 191.73744 563.46272 190.87431 563.60352 190.00391 C 563.74432 189.13351 563.97083 188.29635 564.27148 187.50195 C 564.57213 186.70755 564.94767 185.95595 565.38867 185.25195 C 566.27067 183.84395 567.41383 182.62992 568.74023 181.66992 C 570.06663 180.70992 571.57465 180.00227 573.18945 179.60547 C 573.99685 179.40707 574.83139 179.28795 575.68164 179.25195 C 576.53189 179.21595 577.39788 179.2635 578.27148 179.4043 C 584.08268 180.3387 589.75946 181.40194 595.28906 182.58594 C 600.81866 183.76994 606.20143 185.07529 611.42383 186.49609 C 612.48623 183.28329 613.28591 179.99954 613.82031 176.65234 C 614.35471 173.30514 614.625 169.89458 614.625 166.42578 C 614.625 164.22098 614.51196 162.04077 614.29297 159.89258 C 614.07398 157.74439 613.74942 155.62762 613.32227 153.54688 C 612.89512 151.46613 612.36472 149.42241 611.74023 147.41992 C 611.11575 145.41743 610.39694 143.45637 609.58594 141.54297 C 608.77494 139.62957 607.87341 137.76271 606.88672 135.94922 C 605.90003 134.13573 604.82733 132.37658 603.67578 130.67383 C 602.52423 128.97108 601.29387 127.32533 599.98828 125.74414 C 598.68269 124.16295 597.30232 122.64607 595.85352 121.19727 C 594.40472 119.74847 592.88588 118.36809 591.30469 117.0625 C 589.7235 115.75691 588.0797 114.52655 586.37695 113.375 C 584.6742 112.22345 582.9131 111.15075 581.09961 110.16406 C 579.28612 109.17737 577.41926 108.27584 575.50586 107.46484 C 573.59246 106.65384 571.63335 105.93308 569.63086 105.30859 C 567.62837 104.68411 565.5827 104.15567 563.50195 103.72852 C 561.4212 103.30137 559.30444 102.97485 557.15625 102.75586 C 555.00806 102.53687 552.8298 102.42578 550.625 102.42578 C 547.6762 102.42578 544.84577 102.32278 542.13086 102.12305 C 539.41595 101.92332 536.81575 101.62596 534.32812 101.24023 C 531.8405 100.85451 529.46422 100.38025 527.19727 99.822266 C 524.93031 99.264284 522.7736 98.62275 520.7207 97.90625 C 518.6678 97.18975 516.72046 96.398391 514.875 95.537109 C 513.02954 94.675828 511.28525 93.744278 509.64062 92.751953 C 507.996 91.759628 506.45041 90.705334 505 89.595703 C 503.54959 88.486072 502.19444 87.322575 500.93164 86.109375 C 499.66884 84.896175 498.49782 83.633109 497.41602 82.330078 C 496.33421 81.027047 495.34102 79.683813 494.43359 78.304688 C 493.52617 76.925562 492.7045 75.511794 491.96484 74.070312 C 491.22519 72.628831 490.56873 71.160022 489.99023 69.669922 C 488.83323 66.689722 487.9915 63.625453 487.43945 60.533203 C 486.8874 57.440953 486.625 54.320963 486.625 51.226562 C 486.625 49.159362 486.78744 47.134603 487.08984 45.158203 C 487.39224 43.181803 487.83382 41.253753 488.39062 39.376953 C 488.94743 37.500153 489.61961 35.67465 490.38281 33.90625 C 491.14601 32.13785 492.00027 30.424637 492.92188 28.773438 z "
		style="opacity:1;fill:#bf360c;fill-opacity:1;fill-rule:nonzero;stroke:none;stroke-width:2;stroke-linecap:round;stroke-linejoin:miter;stroke-miterlimit:4;stroke-dasharray:none;stroke-dashoffset:133.26161194;stroke-opacity:0.53921569;paint-order:normal" />
	<path
		transform="matrix(2,0,0,2,-512.5,0)"
		id="path842"
		d="M 525.05078 0 C 520.03638 0 515.00346 0.20592812 509.97461 0.61132812 C 504.94576 1.0167281 499.91977 1.6223219 494.91797 2.4199219 C 489.91617 3.2175219 484.93911 4.2081656 480.00586 5.3847656 C 475.07261 6.5613656 470.18453 7.9224438 465.36133 9.4648438 C 460.53813 11.007244 455.77907 12.73 451.10742 14.625 C 446.43577 16.52 441.84969 18.587866 437.37109 20.822266 C 432.89249 23.056666 428.52139 25.456978 424.27734 28.017578 C 420.03329 30.578178 415.91722 33.298275 411.94922 36.171875 C 407.89802 39.103075 404.05649 42.151041 400.42969 45.306641 C 396.80289 48.462241 393.39122 51.72575 390.19922 55.09375 C 387.00722 58.46175 384.03391 61.933553 381.28711 65.501953 C 378.54031 69.070353 376.01972 72.735388 373.72852 76.492188 C 371.22612 80.594588 369.03319 84.754844 367.15039 88.964844 C 365.26759 93.174844 363.69475 97.435881 362.43555 101.73828 C 361.17635 106.04068 360.22926 110.38407 359.59766 114.76367 C 358.96606 119.14327 358.65039 123.5584 358.65039 128 C 358.65039 131.6864 358.80272 135.36052 359.10352 139.01172 C 359.40432 142.66292 359.85261 146.29187 360.44141 149.88867 C 355.00781 152.51267 349.78563 155.34469 344.79883 158.37109 C 339.81203 161.39749 335.06151 164.61847 330.57031 168.01367 C 326.07911 171.40887 321.84719 174.97858 317.90039 178.70898 C 313.95359 182.43938 310.2911 186.32933 306.9375 190.36133 C 304.8863 192.82533 302.95619 195.33592 301.14844 197.88867 C 299.34069 200.44142 297.6563 203.03617 296.0957 205.66797 C 294.5351 208.29977 293.09881 210.96877 291.78906 213.66992 C 290.47931 216.37107 289.29543 219.10443 288.24023 221.86523 C 287.18503 224.62603 286.25789 227.41386 285.46094 230.22461 C 284.66399 233.03536 283.99789 235.8697 283.46289 238.7207 C 282.92789 241.5717 282.52521 244.44072 282.25586 247.32227 C 281.98651 250.20382 281.84961 253.0976 281.84961 256 C 281.84961 259.4944 282.04715 263.00584 282.43555 266.52344 C 282.82395 270.04104 283.40352 273.56523 284.16992 277.08203 C 284.93632 280.59883 285.88944 284.10956 287.02344 287.60156 C 288.15744 291.09356 289.47169 294.56657 290.96289 298.00977 C 288.12129 300.74257 285.44851 303.52657 282.94531 306.35742 C 280.44211 309.18827 278.10922 312.06613 275.94922 314.98633 C 273.78922 317.90653 271.80223 320.86829 269.99023 323.86914 C 268.17823 326.86999 266.54123 329.90962 265.08203 332.98242 C 263.62283 336.05522 262.34183 339.16082 261.24023 342.29688 C 260.13863 345.43293 259.21576 348.59846 258.47656 351.78906 C 257.73736 354.97966 257.18059 358.19714 256.80859 361.43359 C 256.43659 364.67004 256.25 367.92562 256.25 371.19922 C 256.25 373.63922 256.35223 376.0688 256.55664 378.48438 C 256.76105 380.89995 257.06818 383.30155 257.47461 385.68945 C 257.88103 388.07735 258.38808 390.45162 258.99414 392.80859 C 259.6002 395.16557 260.30412 397.50533 261.10742 399.82812 C 261.91072 402.15092 262.81239 404.45681 263.81055 406.74219 C 264.8087 409.02756 265.90312 411.29241 267.09375 413.53711 C 268.28438 415.78181 269.57047 418.00626 270.95117 420.20703 C 272.33188 422.40781 273.80855 424.58468 275.37695 426.73828 C 276.94535 428.89188 278.60567 431.02182 280.35938 433.125 C 282.11308 435.22818 283.95986 437.30597 285.89648 439.35547 C 289.76973 443.45447 294.00706 447.44184 298.59766 451.30664 C 303.18826 455.17144 308.13107 458.91298 313.41992 462.51758 C 318.70877 466.12218 324.34255 469.5898 330.31055 472.9082 C 335.98415 476.0602 341.8876 479.03548 347.99805 481.82812 C 354.1085 484.62077 360.42549 487.2309 366.92969 489.6543 C 373.43389 492.0777 380.12562 494.31513 386.98047 496.35938 C 393.83532 498.40362 400.85323 500.25496 408.01562 501.91016 C 415.17802 503.56536 422.48331 505.02305 429.91016 506.2793 C 437.33701 507.53555 444.88696 508.5901 452.53516 509.4375 C 460.18336 510.2849 467.93136 510.92682 475.75781 511.35547 C 483.58426 511.78412 491.48762 512 499.44922 512 C 507.63482 512 515.72657 511.86682 523.70117 511.60352 C 531.67577 511.34022 539.53311 510.94618 547.25391 510.42578 C 554.97471 509.90538 562.55822 509.25763 569.98242 508.48633 C 577.40662 507.71503 584.67301 506.82069 591.75781 505.80469 C 598.84261 504.78869 605.74662 503.65294 612.44922 502.39844 C 619.15182 501.14394 625.65209 499.77 631.92969 498.2832 C 638.20729 496.7964 644.26247 495.19532 650.07227 493.48242 C 655.88207 491.76952 661.44689 489.94647 666.74609 488.01367 C 670.66609 486.58487 674.39172 485.11795 677.93359 483.61914 C 681.47547 482.12033 684.83412 480.58892 688.01562 479.0293 C 691.19713 477.46967 694.20214 475.88274 697.04102 474.27148 C 699.87989 472.66023 702.55241 471.02479 705.06641 469.37109 C 707.58041 467.71739 709.9357 466.04438 712.14258 464.35742 C 714.34945 462.67047 716.40672 460.96884 718.32422 459.25781 C 720.24172 457.54679 722.02014 455.82552 723.66602 454.09961 C 725.31189 452.3737 726.82675 450.64371 728.21875 448.91211 C 729.61075 447.18051 730.87928 445.44881 732.03516 443.7207 C 733.19103 441.9926 734.23438 440.26816 735.17188 438.55273 C 736.10938 436.83731 736.94086 435.13106 737.67773 433.4375 C 738.41461 431.74394 739.05538 430.06289 739.60938 428.40039 C 740.71737 425.07539 741.47794 421.82143 741.96094 418.67578 C 742.44394 415.53013 742.65039 412.49241 742.65039 409.59961 C 742.65039 407.27001 742.51542 404.80868 742.19922 402.23828 C 741.88302 399.66788 741.38576 396.98976 740.66016 394.22656 C 739.93456 391.46336 738.98015 388.61503 737.75195 385.70703 C 736.52375 382.79903 735.02127 379.83097 733.19727 376.82617 C 731.37327 373.82137 729.22784 370.78016 726.71484 367.72656 C 724.20184 364.67296 721.32059 361.60713 718.02539 358.55273 C 714.73019 355.49833 711.02216 352.45447 706.85156 349.44727 C 702.68096 346.44007 698.04936 343.46864 692.91016 340.55664 C 690.93896 339.43024 688.89022 338.32911 686.79102 337.25391 C 689.84702 334.85711 692.61143 332.43279 695.10938 329.99414 C 697.60732 327.55549 699.83793 325.10259 701.82812 322.65039 C 703.81832 320.19819 705.56881 317.74604 707.10156 315.30859 C 708.63431 312.87114 709.95057 310.44909 711.07617 308.05469 C 712.20177 305.66029 713.13555 303.29375 713.9043 300.9707 C 714.67305 298.64765 715.27608 296.36793 715.73828 294.14453 C 716.20048 291.92113 716.52257 289.75365 716.72852 287.6582 C 716.93447 285.56275 717.02344 283.53881 717.02344 281.59961 C 717.02344 279.32921 716.906 277.07763 716.66992 274.8457 C 716.43385 272.61377 716.08038 270.40262 715.61328 268.21289 C 715.14618 266.02317 714.56417 263.85472 713.87109 261.71094 C 713.17802 259.56716 712.37298 257.44762 711.45898 255.35352 C 710.54498 253.25942 709.52245 251.19107 708.39258 249.15039 C 707.2627 247.10971 706.02625 245.09681 704.68555 243.11328 C 703.34485 241.12976 701.89999 239.17458 700.35352 237.25195 C 698.80704 235.32932 697.15931 233.43808 695.41211 231.58008 C 693.66491 229.72208 691.81787 227.89901 689.875 226.10938 C 687.93213 224.31974 685.89327 222.56518 683.75977 220.84766 C 681.62627 219.13013 679.39915 217.44832 677.08008 215.80664 C 674.761 214.16496 672.34921 212.5621 669.84961 211 C 664.85041 207.8758 659.49569 204.91431 653.80469 202.13086 C 648.11369 199.34741 642.08654 196.74288 635.74414 194.33008 C 636.48014 192.08368 637.12755 189.80737 637.68555 187.50977 C 638.24355 185.21217 638.71189 182.89264 639.08789 180.55664 C 639.46389 178.22064 639.7475 175.86941 639.9375 173.50781 C 640.1275 171.14621 640.22461 168.77479 640.22461 166.40039 C 640.22461 163.31239 640.06816 160.26039 639.76172 157.25195 C 639.45528 154.24352 638.99814 151.27898 638.40039 148.36523 C 637.80264 145.45148 637.06339 142.58909 636.18945 139.78516 C 635.31552 136.98122 634.30687 134.23564 633.17188 131.55664 C 632.03688 128.87764 630.77547 126.26355 629.39453 123.72461 C 628.01359 121.18567 626.51409 118.72164 624.90234 116.33789 C 623.29059 113.95414 621.56767 111.65094 619.74023 109.4375 C 617.9128 107.22406 615.98113 105.10027 613.95312 103.07227 C 611.92512 101.04427 609.79938 99.112594 607.58594 97.285156 C 605.3725 95.457719 603.07125 93.734797 600.6875 92.123047 C 598.30375 90.511297 595.83777 89.009844 593.29883 87.628906 C 590.75989 86.247969 588.14775 84.986563 585.46875 83.851562 C 582.78975 82.716562 580.04417 81.707922 577.24023 80.833984 C 574.4363 79.960047 571.57391 79.220797 568.66016 78.623047 C 565.74641 78.025297 562.78188 77.570109 559.77344 77.263672 C 556.765 76.957234 553.713 76.800781 550.625 76.800781 C 548.4362 76.800781 546.19427 76.730809 543.94727 76.568359 C 541.70027 76.405909 539.44673 76.150344 537.23633 75.777344 C 535.02593 75.404344 532.8583 74.914853 530.7793 74.283203 C 528.7003 73.651553 526.71022 72.877853 524.85742 71.939453 C 523.00462 71.001053 521.28961 69.896766 519.75781 68.603516 C 518.22601 67.310266 516.87772 65.827059 515.76172 64.130859 C 515.20372 63.282759 514.70385 62.381684 514.26758 61.423828 C 513.8313 60.465972 513.45895 59.452531 513.15625 58.378906 C 512.85355 57.305281 512.62017 56.171969 512.46289 54.976562 C 512.30562 53.781156 512.22461 52.522419 512.22461 51.199219 C 512.22461 49.749619 512.45644 48.283513 512.87109 46.820312 C 513.28574 45.357112 513.88339 43.897737 514.61719 42.460938 C 515.35099 41.024138 516.22028 39.610634 517.17773 38.240234 C 518.13518 36.869834 519.18003 35.543297 520.26562 34.279297 C 522.43682 31.751297 524.77006 29.475681 526.88086 27.613281 C 528.99166 25.750881 530.87962 24.300628 532.16602 23.423828 C 533.33722 22.636628 534.34623 21.683328 535.17383 20.611328 C 536.00143 19.539328 536.64806 18.348691 537.09766 17.087891 C 537.54726 15.827091 537.79874 14.496178 537.83594 13.142578 C 537.87314 11.788978 537.69671 10.4129 537.28711 9.0625 C 536.87751 7.7121 536.26056 6.4699875 535.47656 5.3671875 C 534.69256 4.2643875 533.74122 3.3010594 532.66602 2.5058594 C 531.59082 1.7106594 530.39062 1.08385 529.10742 0.65625 C 527.82422 0.22865 526.45878 -5.9211895e-16 525.05078 0 z M 492.92188 28.773438 C 492.00027 30.424637 491.14601 32.13785 490.38281 33.90625 C 489.61961 35.67465 488.94743 37.500153 488.39062 39.376953 C 487.83382 41.253753 487.39224 43.181803 487.08984 45.158203 C 486.78744 47.134603 486.625 49.159362 486.625 51.226562 C 486.625 54.320963 486.8874 57.440953 487.43945 60.533203 C 487.9915 63.625453 488.83323 66.689722 489.99023 69.669922 C 490.56873 71.160022 491.22519 72.628831 491.96484 74.070312 C 492.7045 75.511794 493.52617 76.925562 494.43359 78.304688 C 495.34102 79.683813 496.33421 81.027047 497.41602 82.330078 C 498.49782 83.633109 499.66884 84.896175 500.93164 86.109375 C 502.19444 87.322575 503.54959 88.486072 505 89.595703 C 506.45041 90.705334 507.996 91.759628 509.64062 92.751953 C 511.28525 93.744278 513.02954 94.675828 514.875 95.537109 C 516.72046 96.398391 518.6678 97.18975 520.7207 97.90625 C 522.7736 98.62275 524.93031 99.264284 527.19727 99.822266 C 529.46422 100.38025 531.8405 100.85451 534.32812 101.24023 C 536.81575 101.62596 539.41595 101.92332 542.13086 102.12305 C 544.84577 102.32278 547.6762 102.42578 550.625 102.42578 C 552.8298 102.42578 555.00806 102.53687 557.15625 102.75586 C 559.30444 102.97485 561.4212 103.30137 563.50195 103.72852 C 565.5827 104.15567 567.62837 104.68411 569.63086 105.30859 C 571.63335 105.93308 573.59246 106.65384 575.50586 107.46484 C 577.41926 108.27584 579.28612 109.17737 581.09961 110.16406 C 582.9131 111.15075 584.6742 112.22345 586.37695 113.375 C 588.0797 114.52655 589.7235 115.75691 591.30469 117.0625 C 592.88588 118.36809 594.40472 119.74847 595.85352 121.19727 C 597.30232 122.64607 598.68269 124.16295 599.98828 125.74414 C 601.29387 127.32533 602.52423 128.97108 603.67578 130.67383 C 604.82733 132.37658 605.90003 134.13573 606.88672 135.94922 C 607.87341 137.76271 608.77494 139.62957 609.58594 141.54297 C 610.39694 143.45637 611.11575 145.41743 611.74023 147.41992 C 612.36472 149.42241 612.89512 151.46613 613.32227 153.54688 C 613.74942 155.62762 614.07398 157.74439 614.29297 159.89258 C 614.51196 162.04077 614.625 164.22098 614.625 166.42578 C 614.625 169.89458 614.35471 173.30514 613.82031 176.65234 C 613.28591 179.99954 612.48623 183.28329 611.42383 186.49609 C 606.20143 185.07529 600.81866 183.76994 595.28906 182.58594 C 589.75946 181.40194 584.08268 180.3387 578.27148 179.4043 C 577.39788 179.2635 576.53189 179.21595 575.68164 179.25195 C 574.83139 179.28795 573.99685 179.40707 573.18945 179.60547 C 571.57465 180.00227 570.06663 180.70992 568.74023 181.66992 C 567.41383 182.62992 566.27067 183.84395 565.38867 185.25195 C 564.94767 185.95595 564.57213 186.70755 564.27148 187.50195 C 563.97083 188.29635 563.74432 189.13351 563.60352 190.00391 C 563.46272 190.87431 563.41322 191.73744 563.44922 192.58594 C 563.48522 193.43444 563.60629 194.26742 563.80469 195.07422 C 564.20149 196.68782 564.90914 198.19934 565.86914 199.52734 C 566.82914 200.85534 568.04122 202.00077 569.44922 202.88477 C 570.15322 203.32677 570.90677 203.70261 571.70117 204.00391 C 572.49557 204.30521 573.33077 204.53107 574.20117 204.67188 C 578.63957 205.38547 582.99456 206.17868 587.25781 207.05078 C 591.52106 207.92288 595.69413 208.87439 599.76953 209.90039 C 603.84493 210.92639 607.82242 212.02783 611.69727 213.20312 C 615.57212 214.37842 619.34426 215.62727 623.00586 216.94727 C 626.66746 218.26727 630.21865 219.65904 633.6543 221.11914 C 637.08995 222.57924 640.40847 224.10753 643.60547 225.70312 C 646.80247 227.29872 649.87857 228.961 652.82422 230.6875 C 655.76987 232.414 658.58598 234.20384 661.26758 236.05664 C 664.71078 238.43744 668.31972 241.19987 671.79492 244.32227 C 673.53252 245.88347 675.23514 247.53434 676.86914 249.27344 C 678.50314 251.01254 680.06744 252.83995 681.52344 254.75195 C 682.97944 256.66395 684.32765 258.66033 685.53125 260.74023 C 686.73485 262.82013 687.79312 264.98376 688.66992 267.22656 C 689.54672 269.46936 690.24315 271.79266 690.71875 274.19336 C 691.19435 276.59406 691.44922 279.0714 691.44922 281.625 C 691.44922 283.689 691.27935 285.72477 690.9375 287.73047 C 690.59565 289.73617 690.08299 291.7122 689.40039 293.6582 C 688.71779 295.6042 687.86405 297.5194 686.8418 299.4043 C 685.81955 301.2892 684.62838 303.1444 683.26758 304.9668 C 681.90678 306.7892 680.37794 308.57939 678.67969 310.33789 C 676.98144 312.09639 675.11468 313.82243 673.08008 315.51562 C 671.04548 317.20882 668.84251 318.86959 666.47266 320.49609 C 664.10281 322.12259 661.56533 323.71504 658.86133 325.27344 C 653.00533 323.19344 646.9001 321.25193 640.5625 319.45312 C 634.2249 317.65432 627.65509 315.99779 620.87109 314.49219 C 614.08709 312.98659 607.08778 311.63204 599.89258 310.43164 C 592.69738 309.23124 585.30557 308.18593 577.73438 307.30273 C 576.85757 307.20033 575.99173 307.18917 575.14453 307.26172 C 574.29733 307.33427 573.46832 307.49006 572.66992 307.72266 C 571.07312 308.18786 569.59304 308.95861 568.30664 309.97461 C 567.02024 310.99061 565.92787 312.25162 565.10547 313.69922 C 564.69427 314.42302 564.35038 315.19456 564.08398 316.00391 C 563.81758 316.81326 563.62974 317.66102 563.52734 318.54102 C 563.42494 319.42102 563.41378 320.28972 563.48633 321.13867 C 563.55888 321.98762 563.71467 322.81623 563.94727 323.61523 C 564.41247 325.21323 565.18322 326.69372 566.19922 327.97852 C 567.21522 329.26332 568.47623 330.35343 569.92383 331.17383 C 570.64763 331.58403 571.41721 331.92566 572.22656 332.19141 C 573.03591 332.45716 573.88563 332.64565 574.76562 332.74805 C 580.16083 333.37845 585.45146 334.09447 590.63086 334.89062 C 595.81026 335.68678 600.87817 336.56408 605.82617 337.52148 C 610.77417 338.47888 615.60173 339.51476 620.30273 340.62891 C 625.00373 341.74306 629.57722 342.93477 634.01562 344.20117 C 638.45403 345.46757 642.75777 346.80851 646.91797 348.22266 C 651.07817 349.63681 655.09649 351.12424 658.96289 352.68164 C 662.82929 354.23904 666.54456 355.86635 670.10156 357.5625 C 673.65856 359.25865 677.05706 361.02312 680.28906 362.85352 C 682.38506 364.04072 684.53019 365.32749 686.68164 366.71094 C 688.83309 368.09439 690.98927 369.57534 693.10547 371.15234 C 695.22167 372.72934 697.29881 374.40207 699.28906 376.16992 C 701.27931 377.93777 703.18343 379.79986 704.95703 381.75586 C 706.73063 383.71186 708.37359 385.76285 709.83984 387.9043 C 711.30609 390.04575 712.59586 392.27932 713.66406 394.60352 C 714.73226 396.92772 715.57875 399.34145 716.1582 401.8457 C 716.73765 404.34995 717.05078 406.9434 717.05078 409.625 C 717.05078 411.321 716.92353 412.97908 716.68164 414.59961 C 716.43975 416.22013 716.08274 417.80351 715.61719 419.34961 C 715.15164 420.89571 714.57919 422.40423 713.9082 423.87695 C 713.23722 425.34968 712.46758 426.7871 711.60938 428.1875 C 710.75117 429.5879 709.80453 430.95213 708.77734 432.28125 C 707.75016 433.61037 706.64279 434.90321 705.46484 436.16211 C 703.10894 438.67991 700.46874 441.05953 697.61914 443.30273 C 694.76954 445.54593 691.70922 447.65386 688.51172 449.63086 C 685.31422 451.60786 681.97968 453.45267 678.58008 455.17188 C 675.18048 456.89108 671.71567 458.48528 668.25977 459.95508 C 664.80387 461.42488 661.35663 462.7712 657.99023 464 L 657.99023 463.97461 C 653.03023 465.78261 647.81056 467.48789 642.35156 469.08984 C 636.89256 470.69179 631.19494 472.18988 625.27734 473.58008 C 619.35974 474.97028 613.22252 476.25303 606.88672 477.42578 C 600.55092 478.59853 594.01633 479.66173 587.30273 480.61133 C 580.58913 481.56093 573.69748 482.39644 566.64648 483.11719 C 559.59548 483.83794 552.38511 484.44349 545.03711 484.92969 C 537.68911 485.41589 530.20226 485.78335 522.59766 486.0293 C 514.99306 486.27525 507.27002 486.40039 499.44922 486.40039 C 492.02522 486.40039 484.6602 486.20044 477.37305 485.80664 C 470.0859 485.41284 462.87778 484.82527 455.76758 484.04688 C 448.65738 483.26848 441.6451 482.30028 434.75195 481.14648 C 427.8588 479.99268 421.08522 478.65281 414.44922 477.13281 C 407.81322 475.61281 401.31531 473.91216 394.97656 472.03516 C 388.63781 470.15816 382.45648 468.10566 376.45508 465.88086 C 370.45368 463.65606 364.63176 461.25871 359.00781 458.69531 C 353.38386 456.13191 347.95835 453.40257 342.75195 450.50977 C 337.84315 447.78337 333.21113 444.95637 328.86133 442.04102 C 324.51153 439.12567 320.44512 436.12091 316.66992 433.03711 C 312.89472 429.95331 309.40961 426.79034 306.22461 423.55859 C 303.03961 420.32684 300.15342 417.02717 297.57422 413.66797 C 294.99502 410.30877 292.72343 406.88998 290.76562 403.42383 C 288.80782 399.95768 287.16455 396.44322 285.84375 392.89062 C 284.52295 389.33803 283.52367 385.74746 282.85547 382.12891 C 282.52137 380.31963 282.26959 378.50356 282.10156 376.68164 C 281.93354 374.85972 281.84961 373.03122 281.84961 371.19922 C 281.84961 368.64882 282.01437 366.15294 282.32422 363.71094 C 282.63407 361.26894 283.08848 358.88233 283.67188 356.55273 C 284.25527 354.22313 284.96646 351.94953 285.78711 349.73633 C 286.60776 347.52313 287.53895 345.37014 288.56055 343.27734 C 289.58215 341.18454 290.69461 339.15199 291.88086 337.18359 C 293.06711 335.21519 294.32603 333.3107 295.64062 331.4707 C 298.26983 327.7907 301.12012 324.37092 304.04492 321.22852 C 306.98892 325.42692 310.19007 329.52223 313.69727 333.49023 C 316.24447 336.39903 318.91467 339.22278 321.70117 341.95312 C 324.48767 344.68347 327.38933 347.32233 330.39453 349.86133 C 333.39973 352.40033 336.50959 354.83908 339.71289 357.17383 C 342.91619 359.50858 346.21295 361.73787 349.59375 363.85547 C 352.97455 365.97307 356.43886 367.97964 359.97656 369.86719 C 363.51426 371.75474 367.12483 373.52337 370.79883 375.16797 C 374.47283 376.81257 378.2103 378.33195 382 379.7207 C 385.7897 381.10945 389.63278 382.36828 393.51758 383.48828 C 394.69518 383.82108 395.89857 384 397.07617 384 C 398.46497 384 399.82688 383.77215 401.11328 383.34375 C 402.39968 382.91535 403.60927 382.28722 404.69727 381.48242 C 405.78527 380.67762 406.75132 379.69756 407.54492 378.56836 C 408.33852 377.43916 408.96008 376.15941 409.36328 374.75781 C 409.60968 373.90981 409.76378 373.05794 409.83203 372.21094 C 409.90028 371.36394 409.88336 370.52207 409.78516 369.69727 C 409.58876 368.04767 409.0713 366.46485 408.2793 365.03125 C 407.4873 363.59765 406.42095 362.31363 405.12695 361.26562 C 404.47995 360.74162 403.77643 360.27666 403.02148 359.88086 C 402.26653 359.48506 401.46058 359.15851 400.60938 358.91211 C 397.29098 357.95371 394.0225 356.882 390.8125 355.70508 C 387.6025 354.52815 384.44973 353.24613 381.36133 351.86523 C 378.27293 350.48433 375.24852 349.00392 372.29492 347.43359 C 369.34132 345.86327 366.45794 344.20223 363.65234 342.45703 C 360.84674 340.71183 358.11901 338.88404 355.47461 336.97852 C 352.83021 335.07299 350.27078 333.09036 347.80078 331.03906 C 345.33078 328.98776 342.95037 326.86807 340.66797 324.68555 C 338.38557 322.50302 336.20074 320.25818 334.11914 317.95898 C 332.03754 315.65978 330.05901 313.30562 328.19141 310.9043 C 326.32381 308.50297 324.56618 306.05335 322.92578 303.56445 C 321.28538 301.07555 319.76328 298.5463 318.36328 295.98438 C 316.96328 293.42245 315.68546 290.82743 314.53906 288.20703 C 313.39266 285.58663 312.37765 282.94167 311.49805 280.27734 C 310.61845 277.61302 309.87499 274.93003 309.27539 272.23633 C 308.67579 269.54263 308.21851 266.83743 307.91211 264.12891 C 307.60571 261.42038 307.44922 258.7088 307.44922 256 C 307.44922 254.0416 307.53883 252.08887 307.71289 250.14258 C 307.88695 248.19629 308.14601 246.25572 308.49023 244.32617 C 309.17868 240.46707 310.20303 236.64721 311.54883 232.88281 C 312.89463 229.11841 314.56115 225.41004 316.5332 221.77734 C 318.50525 218.14464 320.78436 214.58705 323.35156 211.12305 C 325.91876 207.65905 328.775 204.28955 331.90625 201.03125 C 335.0375 197.77295 338.44322 194.62693 342.10742 191.61133 C 345.77162 188.59573 349.69333 185.71051 353.85938 182.97461 C 358.02542 180.23871 362.43547 177.65162 367.07227 175.23242 C 368.74907 179.85002 370.65846 184.36933 372.78516 188.76758 C 374.91186 193.16583 377.25558 197.44202 379.80078 201.57422 C 382.34598 205.70642 385.09309 209.69422 388.02539 213.51367 C 390.95769 217.33312 394.07528 220.98531 397.36328 224.44531 C 400.65128 227.90531 404.11036 231.17271 407.72266 234.22656 C 411.33496 237.28041 415.10066 240.1197 419.00586 242.7207 C 422.91106 245.3217 426.95439 247.68566 431.12109 249.78711 C 435.28779 251.88856 439.57781 253.728 443.97461 255.2832 C 445.38261 255.7696 446.8164 256.02539 448.25 256.02539 C 449.5684 256.02539 450.86601 255.82084 452.09961 255.43164 C 453.33321 255.04244 454.50205 254.46807 455.56445 253.73047 C 456.62685 252.99287 457.58192 252.09207 458.38672 251.04688 C 459.19152 250.00168 459.84584 248.812 460.30664 247.5 C 460.60104 246.668 460.80473 245.82618 460.92188 244.98438 C 461.03902 244.14257 461.07128 243.30226 461.02148 242.47266 C 460.92188 240.81346 460.49857 239.1991 459.79297 237.7207 C 459.08737 236.2423 458.09834 234.89894 456.86914 233.77734 C 456.25454 233.21654 455.57966 232.71204 454.84961 232.27344 C 454.11956 231.83484 453.3352 231.46237 452.5 231.16797 C 450.068 230.30877 447.67287 229.32919 445.32031 228.23828 C 442.96775 227.14738 440.65798 225.94474 438.39453 224.63672 C 436.13108 223.32869 433.91466 221.91681 431.75 220.40625 C 429.58534 218.89569 427.47222 217.28639 425.41602 215.58789 C 423.35982 213.88939 421.35994 212.10037 419.42188 210.22852 C 417.48381 208.35666 415.60712 206.40172 413.79688 204.37109 C 411.98663 202.34047 410.24307 200.23535 408.57031 198.06055 C 406.89755 195.88574 405.29513 193.64229 403.76953 191.33789 C 402.24393 189.03349 400.79454 186.66745 399.42578 184.24805 C 398.05702 181.82864 396.76866 179.35576 395.56641 176.83594 C 394.36416 174.31611 393.24872 171.75019 392.22266 169.14453 C 391.19659 166.53887 390.26012 163.8937 389.41992 161.2168 C 388.57972 158.5399 387.83607 155.83121 387.19141 153.09766 C 386.54674 150.3641 386.00195 147.6057 385.5625 144.83008 C 385.12305 142.05445 384.78902 139.26014 384.56445 136.45703 C 384.33989 133.65392 384.22461 130.84139 384.22461 128.02539 C 384.22461 124.78699 384.46149 121.56011 384.92969 118.35156 C 385.39789 115.14301 386.09784 111.95357 387.02344 108.79297 C 387.94904 105.63237 389.10046 102.49885 390.47266 99.404297 C 391.84486 96.309747 393.43809 93.254541 395.24609 90.244141 C 397.05409 87.233741 399.07559 84.269478 401.30859 81.361328 C 403.54159 78.453178 405.98561 75.6003 408.63281 72.8125 C 411.28001 70.0247 414.13104 67.301694 417.18164 64.652344 C 420.23224 62.002994 423.48258 59.426394 426.92578 56.933594 C 429.30658 55.211994 431.7492 53.554138 434.24805 51.960938 C 436.7469 50.367737 439.30125 48.839706 441.90625 47.378906 C 447.11625 44.457306 452.52664 41.8055 458.08984 39.4375 C 463.65304 37.0695 469.36825 34.985525 475.18945 33.203125 C 481.01065 31.420725 486.93787 29.938237 492.92188 28.773438 z "
		style="opacity:1;fill:#000000;fill-opacity:1;fill-rule:nonzero;stroke:none;stroke-width:2;stroke-linecap:round;stroke-linejoin:miter;stroke-miterlimit:4;stroke-dasharray:none;stroke-dashoffset:133.26161194;stroke-opacity:0.53921569;paint-order:normal" />
</svg>
