<?xml version="1.0" encoding="UTF-8" standalone="no"?>
<!-- Generator: Adobe Illustrator 19.0.0, SVG Export Plug-In . SVG Version: 6.00 Build 0)  -->

<svg
   xmlns:dc="http://purl.org/dc/elements/1.1/"
   xmlns:cc="http://creativecommons.org/ns#"
   xmlns:rdf="http://www.w3.org/1999/02/22-rdf-syntax-ns#"
   xmlns:svg="http://www.w3.org/2000/svg"
   xmlns="http://www.w3.org/2000/svg"
   xmlns:sodipodi="http://sodipodi.sourceforge.net/DTD/sodipodi-0.dtd"
   xmlns:inkscape="http://www.inkscape.org/namespaces/inkscape"
   version="1.1"
   id="Layer_1"
   x="0px"
   y="0px"
   viewBox="0 0 512.001 512.001"
   style="enable-background:new 0 0 512.001 512.001;"
   xml:space="preserve"
   sodipodi:docname="poo_full.svg"
   inkscape:version="0.92.3 (2405546, 2018-03-11)"><metadata
   id="metadata59"><rdf:RDF><cc:Work
       rdf:about=""><dc:format>image/svg+xml</dc:format><dc:type
         rdf:resource="http://purl.org/dc/dcmitype/StillImage" /></cc:Work></rdf:RDF></metadata><defs
   id="defs57" /><sodipodi:namedview
   pagecolor="#ffffff"
   bordercolor="#666666"
   borderopacity="1"
   objecttolerance="10"
   gridtolerance="10"
   guidetolerance="10"
   inkscape:pageopacity="0"
   inkscape:pageshadow="2"
   inkscape:window-width="765"
   inkscape:window-height="480"
   id="namedview55"
   showgrid="false"
   inkscape:zoom="0.46093662"
   inkscape:cx="256.00049"
   inkscape:cy="256.00049"
   inkscape:window-x="0"
   inkscape:window-y="27"
   inkscape:window-maximized="0"
   inkscape:current-layer="Layer_1" />
<path
   style="fill:#e6e9ed"
   d="M 416.012,179.999 C 416.012,91.632 344.355,20 256.005,20 167.638,20 96.006,91.632 96.006,179.999 c 0,52.344 25.133,98.819 63.999,127.999 v 53.344 h 192.194 v -53.469 c 38.75,-29.211 63.813,-75.616 63.813,-127.874 z"
   id="path2"
   inkscape:connector-curvature="0" />
<g
   id="g10"
   transform="translate(0,20)">
	<path
   style="fill:#ccd1d9"
   d="m 213.302,306.998 c -5.898,0 -10.672,4.781 -10.672,10.672 v 23.609 h 21.336 V 317.67 c 0,-5.891 -4.774,-10.672 -10.664,-10.672 z"
   id="path4"
   inkscape:connector-curvature="0" />
	<path
   style="fill:#ccd1d9"
   d="m 256.005,306.998 c -5.891,0 -10.672,4.781 -10.672,10.672 v 23.609 h 21.336 V 317.67 c 0,-5.891 -4.781,-10.672 -10.664,-10.672 z"
   id="path6"
   inkscape:connector-curvature="0" />
	<path
   style="fill:#ccd1d9"
   d="m 298.668,306.998 c -5.891,0 -10.655,4.781 -10.655,10.672 v 23.609 h 21.312 V 317.67 c -10e-4,-5.891 -4.766,-10.672 -10.657,-10.672 z"
   id="path8"
   inkscape:connector-curvature="0" />
</g>
<g
   id="g18"
   transform="translate(0,20)">
	<circle
   style="fill:#434a54"
   cx="202.631"
   cy="149.34"
   r="32"
   id="circle12" />
	<circle
   style="fill:#434a54"
   cx="309.371"
   cy="149.34"
   r="32"
   id="circle14" />
	<path
   style="fill:#434a54"
   d="m 266.669,213.335 h -21.336 c -5.891,0 -10.664,4.773 -10.664,10.664 0,5.891 4.773,10.671 10.664,10.671 h 21.336 c 5.891,0 10.656,-4.781 10.656,-10.671 0,-5.89 -4.765,-10.664 -10.656,-10.664 z"
   id="path16"
   inkscape:connector-curvature="0" />
</g>
<path
   style="fill:#ccd1d9"
   d="m 464.48,467.123 c -5.562,-1.953 -11.641,1 -13.578,6.562 L 68.123,340.342 c 1.938,-5.562 -1,-11.625 -6.562,-13.578 -5.562,-1.938 -11.648,1.016 -13.586,6.578 l -7.016,20.141 c -1.938,5.562 1,11.641 6.562,13.578 5.57,1.938 11.648,-1 13.586,-6.562 l 382.78,133.311 v 0 c -1.938,5.562 1,11.656 6.562,13.594 5.562,1.938 11.641,-1 13.578,-6.562 l 7.016,-20.156 c 1.937,-5.563 -1,-11.641 -6.563,-13.563 z"
   id="path20"
   inkscape:connector-curvature="0" />
<path
   style="fill:#e6e9ed"
   d="m 471.043,353.482 -7.016,-20.141 c -1.938,-5.562 -8.016,-8.516 -13.578,-6.578 -5.562,1.953 -8.5,8.016 -6.562,13.578 L 61.107,473.686 c -1.938,-5.562 -8.016,-8.516 -13.586,-6.562 -5.562,1.922 -8.5,8 -6.562,13.562 l 7.016,20.156 c 1.938,5.562 8.023,8.5 13.586,6.562 5.563,-1.938 8.5,-8.031 6.562,-13.594 v 0 L 450.902,360.498 c 1.938,5.562 8.016,8.5 13.578,6.562 5.562,-1.938 8.5,-8.015 6.563,-13.578 z"
   id="path22"
   inkscape:connector-curvature="0" />
<g
   id="g24">
</g>
<g
   id="g26">
</g>
<g
   id="g28">
</g>
<g
   id="g30">
</g>
<g
   id="g32">
</g>
<g
   id="g34">
</g>
<g
   id="g36">
</g>
<g
   id="g38">
</g>
<g
   id="g40">
</g>
<g
   id="g42">
</g>
<g
   id="g44">
</g>
<g
   id="g46">
</g>
<g
   id="g48">
</g>
<g
   id="g50">
</g>
<g
   id="g52">
</g>
</svg>