<?xml version="1.0" encoding="iso-8859-1"?>
<!-- Generator: Adobe Illustrator 19.0.0, SVG Export Plug-In . SVG Version: 6.00 Build 0)  -->
<svg version="1.1" id="Layer_1" xmlns="http://www.w3.org/2000/svg" xmlns:xlink="http://www.w3.org/1999/xlink" x="0px" y="0px"
	 viewBox="0 0 392.533 392.533" style="enable-background:new 0 0 392.533 392.533;" xml:space="preserve">
<g>
	<path style="fill:#FFFFFF;" d="M207.192,335.903c24.178-17.519,57.471-28.121,90.958-28.121c12.735,0,25.083,1.616,36.461,4.719
		V54.626c-20.428-7.887-41.826-11.895-63.741-11.895s-43.378,4.008-63.741,11.895v281.277H207.192z"/>
	<path style="fill:#FFFFFF;" d="M121.6,42.731c-21.915,0-43.378,4.008-63.741,11.895v257.875
		c11.378-3.103,23.725-4.719,36.461-4.719c33.552,0,66.78,10.602,90.958,28.121V54.626C164.978,46.739,143.58,42.731,121.6,42.731z"
		/>
</g>
<g>
	<path style="fill:#FFC10D;" d="M228.978,70.335c13.576-3.879,27.669-5.689,41.956-5.689c14.287,0,28.38,1.939,41.956,5.689v216.372
		c-36.267-4.848-62.448,4.202-83.846,12.8V70.335H228.978z"/>
	<path style="fill:#FFC10D;" d="M163.556,299.442c-47.838-17.713-48.679-13.511-83.846-12.8V70.335
		c13.576-3.879,27.669-5.689,41.956-5.689s28.38,1.939,41.956,5.689v229.107H163.556z"/>
</g>
<path style="fill:#194F82;" d="M359.822,67.362h-3.426V47.257c0-4.331-2.521-8.275-6.594-10.02
	c-25.083-10.796-51.588-16.356-78.998-16.356c-25.729,0-50.877,4.978-74.667,14.61c-23.79-9.632-48.937-14.61-74.667-14.61
	c-27.345,0-53.851,5.495-78.998,16.356c-4.008,1.681-6.594,5.624-6.594,10.02v20.105h-3.168C14.675,67.362,0,82.036,0,100.137
	v238.804c0,18.036,14.675,32.711,32.711,32.711h327.111c18.036,0,32.711-14.675,32.711-32.711V100.137
	C392.533,82.036,377.859,67.362,359.822,67.362z M32.711,349.802c-6.012,0-10.925-4.848-10.925-10.925V100.137
	c0-6.012,4.848-10.925,10.925-10.925h3.426v238.61c0.323,7.564,7.499,13.123,15.192,10.02c12.347-5.301,27.281-8.21,43.055-8.21
	c26.117,0,52.493,7.628,72.404,20.17H32.711L32.711,349.802z M185.341,335.903c-24.178-17.519-57.471-28.121-90.958-28.121
	c-12.735,0-25.083,1.616-36.461,4.719V54.626c20.428-7.887,41.826-11.895,63.741-11.895s43.378,4.008,63.741,11.895v281.277H185.341
	z M207.192,54.626c20.428-7.887,41.826-11.895,63.741-11.895c21.915,0,43.378,4.008,63.741,11.895v257.875
	c-11.378-3.103-23.725-4.719-36.461-4.719c-33.552,0-66.78,10.602-90.958,28.121V54.626H207.192z M370.747,338.941
	c0,6.012-4.848,10.925-10.925,10.925H225.681c19.911-12.541,46.352-20.17,72.404-20.17c15.774,0,30.707,2.844,43.055,8.21
	c7.758,3.232,15.451-2.78,15.192-10.02V89.147h3.426c6.012,0,10.925,4.848,10.925,10.925v238.869H370.747z"/>
<g>
	<path style="fill:#56ACE0;" d="M359.822,89.147h-3.426v238.61c0.259,7.24-7.499,13.188-15.192,10.02
		c-12.347-5.301-27.281-8.21-43.055-8.21c-26.117,0-52.493,7.628-72.404,20.17h134.077c6.012,0,10.925-4.848,10.925-10.925V100.137
		C370.747,94.125,365.834,89.147,359.822,89.147z"/>
	<path style="fill:#56ACE0;" d="M94.448,329.632c-15.774,0-30.707,2.844-43.055,8.21c-7.758,3.168-14.933-2.457-15.192-10.02V89.147
		h-3.426c-6.012,0-10.925,4.848-10.925,10.925v238.804c0,6.012,4.848,10.925,10.925,10.925h134.077
		C146.812,337.261,120.436,329.632,94.448,329.632z"/>
</g>
<g>
	<path style="fill:#194F82;" d="M91.669,94.255c-4.331,1.034-7.046,5.43-6.012,9.826c1.681,4.913,5.172,6.659,9.826,6.012
		c17.067-4.073,34.78-4.267,52.687-0.517c4.396,0.905,8.663-1.939,9.568-6.271c0.905-4.396-1.939-8.663-6.271-9.568
		C131.103,89.471,111.063,89.6,91.669,94.255z"/>
	<path style="fill:#194F82;" d="M151.725,145.39c-20.04-5.236-40.081-6.012-59.733-2.327c-4.396,0.84-7.37,5.107-6.465,9.503
		c1.487,5.042,4.784,6.853,9.503,6.465c17.261-3.232,34.909-2.521,52.622,2.069c4.331,1.099,8.727-1.487,9.891-5.818
		C158.707,151.014,156.057,146.554,151.725,145.39z"/>
	<path style="fill:#194F82;" d="M94.707,208.097c17.39-2.457,34.974-1.034,52.493,4.396c4.331,1.293,8.792-1.099,10.149-5.301
		c1.293-4.267-1.099-8.792-5.301-10.15c-19.782-6.077-39.822-7.758-59.604-4.913c-4.396,0.646-7.499,4.719-6.853,9.18
		C86.82,206.287,90.117,208.291,94.707,208.097z"/>
	<path style="fill:#194F82;" d="M151.984,247.402c-19.846-5.883-39.887-7.24-59.669-4.202c-4.396,0.711-7.434,4.848-6.788,9.244
		c1.293,5.107,4.655,7.046,9.244,6.788c17.325-2.715,34.974-1.487,52.558,3.685c4.331,1.228,8.792-1.164,10.02-5.495
		C158.707,253.22,156.251,248.63,151.984,247.402z"/>
	<path style="fill:#194F82;" d="M244.428,109.576c17.842-3.685,35.62-3.556,52.687,0.517c4.655,0.711,8.016-1.034,9.826-6.012
		c1.034-4.331-1.616-8.727-6.012-9.826c-19.394-4.655-39.564-4.848-59.798-0.646c-4.396,0.905-7.176,5.172-6.271,9.568
		C235.701,107.636,240.032,110.416,244.428,109.576z"/>
	<path style="fill:#194F82;" d="M244.881,161.099c17.713-4.655,35.362-5.301,52.622-2.069c4.655,0.453,7.952-1.487,9.503-6.465
		c0.84-4.396-2.069-8.663-6.465-9.503c-19.652-3.685-39.693-2.844-59.733,2.327c-4.331,1.164-6.982,5.56-5.818,9.891
		C236.154,159.741,240.549,162.263,244.881,161.099z"/>
	<path style="fill:#194F82;" d="M300.089,192.065c-19.782-2.844-39.822-1.164-59.604,4.913c-4.267,1.293-6.659,5.883-5.301,10.149
		c1.358,4.267,5.883,6.659,10.15,5.301c17.455-5.43,35.168-6.853,52.493-4.396c4.655,0.259,7.887-1.745,9.18-6.853
		C307.717,196.784,304.614,192.711,300.089,192.065z"/>
	<path style="fill:#194F82;" d="M307.006,252.509c0.711-4.396-2.327-8.598-6.788-9.244c-19.717-3.103-39.822-1.681-59.669,4.202
		c-4.331,1.228-6.723,5.818-5.495,10.02c1.228,4.331,5.818,6.723,10.02,5.495c17.519-5.172,35.232-6.4,52.558-3.685
		C302.416,259.556,305.713,257.616,307.006,252.509z"/>
</g>
<g>
</g>
<g>
</g>
<g>
</g>
<g>
</g>
<g>
</g>
<g>
</g>
<g>
</g>
<g>
</g>
<g>
</g>
<g>
</g>
<g>
</g>
<g>
</g>
<g>
</g>
<g>
</g>
<g>
</g>
</svg>
