<?xml version="1.0" encoding="UTF-8" standalone="no"?>
<svg
   xmlns:dc="http://purl.org/dc/elements/1.1/"
   xmlns:cc="http://creativecommons.org/ns#"
   xmlns:rdf="http://www.w3.org/1999/02/22-rdf-syntax-ns#"
   xmlns:svg="http://www.w3.org/2000/svg"
   xmlns="http://www.w3.org/2000/svg"
   xml:space="preserve"
   viewBox="0 0 181.445 36.289"
   height="36.289001"
   width="181.44501"
   y="0px"
   x="0px"
   id="Capa_1"
   version="1.1"><metadata
   id="metadata41"><rdf:RDF><cc:Work
       rdf:about=""><dc:format>image/svg+xml</dc:format><dc:type
         rdf:resource="http://purl.org/dc/dcmitype/StillImage" /><dc:title></dc:title></cc:Work></rdf:RDF></metadata><defs
   id="defs39">

</defs>

<g
   transform="translate(0,-1.4648437e-6)"
   id="g6">
</g>
<g
   transform="translate(0,-1.4648437e-6)"
   id="g8">
</g>
<g
   transform="translate(0,-1.4648437e-6)"
   id="g10">
</g>
<g
   transform="translate(0,-1.4648437e-6)"
   id="g12">
</g>
<g
   transform="translate(0,-1.4648437e-6)"
   id="g14">
</g>
<g
   transform="translate(0,-1.4648437e-6)"
   id="g16">
</g>
<g
   transform="translate(0,-1.4648437e-6)"
   id="g18">
</g>
<g
   transform="translate(0,-1.4648437e-6)"
   id="g20">
</g>
<g
   transform="translate(0,-1.4648437e-6)"
   id="g22">
</g>
<g
   transform="translate(0,-1.4648437e-6)"
   id="g24">
</g>
<g
   transform="translate(0,-1.4648437e-6)"
   id="g26">
</g>
<g
   transform="translate(0,-1.4648437e-6)"
   id="g28">
</g>
<g
   transform="translate(0,-1.4648437e-6)"
   id="g30">
</g>
<g
   transform="translate(0,-1.4648437e-6)"
   id="g32">
</g>
<g
   transform="translate(0,-1.4648437e-6)"
   id="g34">
</g>
<g
   id="flowRoot827"
   style="font-style:normal;font-weight:normal;font-size:13.33333302px;line-height:125%;font-family:sans-serif;letter-spacing:0px;word-spacing:0px;fill:#000000;fill-opacity:1;stroke:none;stroke-width:1px;stroke-linecap:butt;stroke-linejoin:miter;stroke-opacity:1"
   transform="rotate(-4.6882636,151.24388,-302.93671)"
   aria-label="Recommended"><path
     id="path877"
     style="font-style:normal;font-variant:normal;font-weight:bold;font-stretch:normal;font-size:18.66666603px;font-family:'Courier New';-inkscape-font-specification:'Courier New'"
     d="m 6.2727863,12.746757 v 2.351563 h 0.6744792 q 0.6744791,0 0.9570312,0.264323 0.2916667,0.255208 0.2916667,0.674479 0,0.410156 -0.2916667,0.674479 -0.2825521,0.255208 -0.9570312,0.255208 H 4.1126302 q -0.6744792,0 -0.9661458,-0.255208 -0.2825521,-0.264323 -0.2825521,-0.683594 0,-0.410156 0.2916666,-0.665364 Q 3.4472656,15.09832 4.1126302,15.09832 H 4.4042968 V 7.7884241 H 4.1126302 q -0.6744792,0 -0.9661458,-0.2552083 -0.2825521,-0.264323 -0.2825521,-0.6835938 0,-0.4192708 0.2825521,-0.6744791 Q 3.438151,5.91082 4.1126302,5.91082 l 4.2291665,0.00911 q 1.9778643,0 3.0625003,0.9843749 1.09375,0.9752604 1.09375,2.3789062 0,0.8749999 -0.510417,1.5950519 -0.510417,0.710937 -1.540365,1.266927 0.592448,0.519531 1.266927,1.330729 0.419271,0.519531 1.130209,1.622396 0.710937,0 0.938802,0.145833 0.410156,0.282552 0.410156,0.792969 0,0.410156 -0.282552,0.674479 -0.282552,0.255208 -0.957031,0.255208 H 11.887369 Q 9.6178383,13.457695 8.1230467,12.746757 Z m 0,-1.868489 h 1.4583333 q 0.8111979,0 1.4492187,-0.246094 0.8567707,-0.328125 1.1484377,-0.6927083 0.300781,-0.3645833 0.300781,-0.7200521 0,-0.5286458 -0.565104,-0.9752604 Q 9.4993487,7.7884241 8.4147133,7.7884241 h -2.141927 z" /><path
     id="path879"
     style="font-style:normal;font-variant:normal;font-weight:bold;font-stretch:normal;font-size:18.66666603px;font-family:'Courier New';-inkscape-font-specification:'Courier New'"
     d="m 24.082682,13.776705 h -7.665365 q 0.291667,0.729167 1.029948,1.175781 0.747396,0.446615 2.014323,0.446615 1.039062,0 2.761719,-0.446615 0.710937,-0.182291 0.984375,-0.182291 0.373698,0 0.628906,0.264323 0.255208,0.264322 0.255208,0.665364 0,0.364583 -0.273437,0.619792 -0.364584,0.337239 -1.777344,0.647135 -1.41276,0.300781 -2.716146,0.300781 -2.242187,0 -3.591145,-1.266927 -1.339844,-1.266927 -1.339844,-3.117187 0,-1.96875 1.449219,-3.1992187 1.458333,-1.2395832 3.354166,-1.2395832 1.139323,0 2.08724,0.4010416 0.957031,0.4010417 1.421875,0.8658854 0.65625,0.6744789 1.084635,1.6679689 0.291667,0.692708 0.291667,1.604166 z m -2.069011,-1.868489 q -0.428385,-0.802084 -1.121093,-1.194011 -0.692709,-0.401041 -1.64974,-0.401041 -0.947917,0 -1.640625,0.401041 -0.692708,0.391927 -1.130208,1.194011 z" /><path
     id="path881"
     style="font-style:normal;font-variant:normal;font-weight:bold;font-stretch:normal;font-size:18.66666603px;font-family:'Courier New';-inkscape-font-specification:'Courier New'"
     d="m 33.498046,9.0280074 q 0.33724,-0.3190104 0.692708,-0.3190104 0.401042,0 0.65625,0.2916666 0.264323,0.2825521 0.264323,0.9479167 v 1.2031247 q 0,0.674479 -0.264323,0.957031 -0.255208,0.282553 -0.674479,0.282553 -0.382812,0 -0.647135,-0.21875 -0.191407,-0.164063 -0.300782,-0.665365 -0.109375,-0.510417 -0.528645,-0.75651 -0.738282,-0.4375 -1.886719,-0.4375 -1.321615,0 -2.123698,0.774739 -0.792969,0.77474 -0.792969,1.959635 0,1.09375 0.765625,1.731771 0.765625,0.628906 2.542969,0.628906 1.166667,0 1.904948,-0.236979 0.4375,-0.145833 0.829427,-0.492187 0.391927,-0.355469 0.710937,-0.355469 0.382813,0 0.65625,0.282552 0.282552,0.282552 0.282552,0.665365 0,0.619791 -0.847656,1.175781 -1.257812,0.829427 -3.682291,0.829427 -2.178386,0 -3.390625,-0.902344 -1.640625,-1.212239 -1.640625,-3.317708 0,-1.996094 1.330729,-3.299479 1.330729,-1.3124999 3.472656,-1.3124999 0.77474,0 1.440104,0.1458333 0.665365,0.1458333 1.230469,0.4375 z" /><path
     id="path883"
     style="font-style:normal;font-variant:normal;font-weight:bold;font-stretch:normal;font-size:18.66666603px;font-family:'Courier New';-inkscape-font-specification:'Courier New'"
     d="m 46.632161,12.983736 q 0,1.075521 -0.601562,2.08724 -0.592448,1.002604 -1.777344,1.604167 -1.175781,0.592447 -2.460937,0.592447 -1.276042,0 -2.442709,-0.583333 -1.166666,-0.592448 -1.777343,-1.604167 -0.610677,-1.011718 -0.610677,-2.114583 0,-1.121093 0.619791,-2.196614 0.619792,-1.0846357 1.777344,-1.7044273 1.166666,-0.6197916 2.433594,-0.6197916 1.276041,0 2.451822,0.6380208 1.184896,0.6289062 1.786459,1.7044271 0.601562,1.066406 0.601562,2.196614 z m -1.868489,0.0091 q 0,-0.902344 -0.647136,-1.658854 -0.884114,-1.020833 -2.324218,-1.020833 -1.266928,0 -2.114584,0.811197 -0.847656,0.811198 -0.847656,1.877605 0,0.875 0.856771,1.640625 0.856771,0.75651 2.105469,0.75651 1.257812,0 2.114583,-0.75651 0.856771,-0.765625 0.856771,-1.64974 z" /><path
     id="path885"
     style="font-style:normal;font-variant:normal;font-weight:bold;font-stretch:normal;font-size:18.66666603px;font-family:'Courier New';-inkscape-font-specification:'Courier New'"
     d="m 50.086587,8.6907678 v 0.5286458 q 0.455729,-0.4466146 0.820313,-0.610677 0.373698,-0.1731771 0.85677,-0.1731771 0.410157,0 0.811198,0.2005208 0.401042,0.2005208 0.783854,0.6015625 0.483073,-0.4010417 0.975261,-0.5924479 0.501302,-0.2005208 1.020833,-0.2005208 1.039063,0 1.686198,0.5559895 0.856771,0.7291667 0.856771,1.9140624 v 4.183594 q 0.583333,0 0.865885,0.264323 0.282552,0.264322 0.282552,0.674479 0,0.410156 -0.282552,0.674479 -0.282552,0.255208 -0.957031,0.255208 h -1.777344 v -5.897135 q 0,-0.428385 -0.154948,-0.592448 -0.154948,-0.164062 -0.473958,-0.164062 -0.309896,0 -0.574219,0.164062 -0.337239,0.227865 -0.820312,0.856771 v 3.764323 q 0.583333,0 0.865885,0.264323 0.282552,0.264322 0.282552,0.674479 0,0.410156 -0.282552,0.674479 -0.282552,0.255208 -0.957031,0.255208 h -1.777344 v -5.897135 q 0,-0.419271 -0.164062,-0.583333 -0.154948,-0.173177 -0.473958,-0.173177 -0.328125,0 -0.647136,0.209635 -0.31901,0.200521 -0.765625,0.811198 v 3.764323 q 0.583333,0 0.865886,0.264323 0.291666,0.264322 0.291666,0.674479 0,0.410156 -0.291666,0.674479 -0.282553,0.255208 -0.957032,0.255208 h -1.686198 q -0.674479,0 -0.957031,-0.255208 -0.291666,-0.264323 -0.291666,-0.683594 0,-0.410156 0.282552,-0.665364 0.282552,-0.264323 0.875,-0.264323 v -4.539063 q -0.592448,0 -0.875,-0.264323 -0.282552,-0.264322 -0.282552,-0.6744787 0,-0.4101563 0.291666,-0.6653646 0.282552,-0.2643229 0.957031,-0.2643229 z" /><path
     id="path887"
     style="font-style:normal;font-variant:normal;font-weight:bold;font-stretch:normal;font-size:18.66666603px;font-family:'Courier New';-inkscape-font-specification:'Courier New'"
     d="m 61.279294,8.6907678 v 0.5286458 q 0.455729,-0.4466146 0.820313,-0.610677 0.373698,-0.1731771 0.856771,-0.1731771 0.410156,0 0.811197,0.2005208 0.401042,0.2005208 0.783855,0.6015625 0.483072,-0.4010417 0.97526,-0.5924479 0.501302,-0.2005208 1.020833,-0.2005208 1.039063,0 1.686198,0.5559895 0.856771,0.7291667 0.856771,1.9140624 v 4.183594 q 0.583333,0 0.865885,0.264323 0.282552,0.264322 0.282552,0.674479 0,0.410156 -0.282552,0.674479 -0.282552,0.255208 -0.957031,0.255208 h -1.777344 v -5.897135 q 0,-0.428385 -0.154948,-0.592448 -0.154947,-0.164062 -0.473958,-0.164062 -0.309896,0 -0.574219,0.164062 -0.337239,0.227865 -0.820312,0.856771 v 3.764323 q 0.583333,0 0.865885,0.264323 0.282552,0.264322 0.282552,0.674479 0,0.410156 -0.282552,0.674479 -0.282552,0.255208 -0.957031,0.255208 h -1.777344 v -5.897135 q 0,-0.419271 -0.164062,-0.583333 -0.154948,-0.173177 -0.473958,-0.173177 -0.328125,0 -0.647136,0.209635 -0.31901,0.200521 -0.765625,0.811198 v 3.764323 q 0.583334,0 0.865886,0.264323 0.291666,0.264322 0.291666,0.674479 0,0.410156 -0.291666,0.674479 -0.282552,0.255208 -0.957032,0.255208 h -1.686197 q -0.67448,0 -0.957032,-0.255208 -0.291666,-0.264323 -0.291666,-0.683594 0,-0.410156 0.282552,-0.665364 0.282552,-0.264323 0.875,-0.264323 v -4.539063 q -0.592448,0 -0.875,-0.264323 -0.282552,-0.264322 -0.282552,-0.6744787 0,-0.4101563 0.291666,-0.6653646 0.282552,-0.2643229 0.957032,-0.2643229 z" /><path
     id="path889"
     style="font-style:normal;font-variant:normal;font-weight:bold;font-stretch:normal;font-size:18.66666603px;font-family:'Courier New';-inkscape-font-specification:'Courier New'"
     d="m 80.046224,13.776705 h -7.665365 q 0.291667,0.729167 1.029948,1.175781 0.747396,0.446615 2.014323,0.446615 1.039062,0 2.761719,-0.446615 0.710937,-0.182291 0.984375,-0.182291 0.373698,0 0.628906,0.264323 0.255208,0.264322 0.255208,0.665364 0,0.364583 -0.273437,0.619792 -0.364584,0.337239 -1.777344,0.647135 -1.41276,0.300781 -2.716146,0.300781 -2.242187,0 -3.591145,-1.266927 -1.339844,-1.266927 -1.339844,-3.117187 0,-1.96875 1.449219,-3.1992187 1.458333,-1.2395832 3.354166,-1.2395832 1.139323,0 2.08724,0.4010416 0.957031,0.4010417 1.421875,0.8658854 0.65625,0.6744789 1.084635,1.6679689 0.291667,0.692708 0.291667,1.604166 z m -2.069011,-1.868489 q -0.428385,-0.802084 -1.121093,-1.194011 -0.692709,-0.401041 -1.64974,-0.401041 -0.947917,0 -1.640625,0.401041 -0.692708,0.391927 -1.130208,1.194011 z" /><path
     id="path891"
     style="font-style:normal;font-variant:normal;font-weight:bold;font-stretch:normal;font-size:18.66666603px;font-family:'Courier New';-inkscape-font-specification:'Courier New'"
     d="M 84.658198,8.6907678 V 9.319674 q 0.510417,-0.4375 1.121094,-0.65625 0.619791,-0.2187499 1.339843,-0.2187499 1.658854,0 2.625,1.0299478 0.765625,0.8203121 0.765625,2.1510421 v 3.472656 q 0.592448,0 0.875,0.264323 0.282552,0.255208 0.282552,0.674479 0,0.410156 -0.291666,0.674479 -0.282552,0.255208 -0.957032,0.255208 h -1.686197 q -0.67448,0 -0.966146,-0.255208 -0.282552,-0.264323 -0.282552,-0.683594 0,-0.410156 0.282552,-0.665364 0.282552,-0.264323 0.875,-0.264323 v -3.527344 q 0,-0.610677 -0.328125,-0.893229 -0.428386,-0.364583 -1.285157,-0.364583 -0.647135,0 -1.139322,0.255208 -0.483073,0.246094 -1.230469,1.057292 v 3.472656 q 0.720052,0 0.929687,0.136718 0.446615,0.273438 0.446615,0.802084 0,0.410156 -0.291667,0.674479 -0.282552,0.255208 -0.957031,0.255208 h -2.123698 q -0.674479,0 -0.966146,-0.255208 -0.282552,-0.264323 -0.282552,-0.683594 0,-0.510417 0.4375,-0.792969 0.21875,-0.136718 0.938802,-0.136718 v -4.539063 q -0.592448,0 -0.875,-0.264323 -0.282552,-0.264322 -0.282552,-0.6744787 0,-0.4101563 0.282552,-0.6653646 0.291667,-0.2643229 0.966146,-0.2643229 z" /><path
     id="path893"
     style="font-style:normal;font-variant:normal;font-weight:bold;font-stretch:normal;font-size:18.66666603px;font-family:'Courier New';-inkscape-font-specification:'Courier New'"
     d="m 102.0306,5.145195 v 9.953125 h 0.31901 q 0.66536,0 0.95703,0.264323 0.29166,0.255208 0.29166,0.674479 0,0.410156 -0.29166,0.674479 -0.28255,0.255208 -0.95703,0.255208 h -2.1875 V 16.51108 q -0.638024,0.373698 -1.339847,0.565104 -0.692708,0.191406 -1.440104,0.191406 -2.105469,0 -3.390625,-1.212239 -1.285156,-1.221354 -1.285156,-3.035156 0,-1.895834 1.348958,-3.2356772 1.348958,-1.3398437 3.290364,-1.3398437 0.729167,0 1.43099,0.2278645 0.701823,0.21875 1.38542,0.6653646 V 7.0136845 h -0.319014 q -0.674479,0 -0.966146,-0.2552083 -0.282552,-0.2643229 -0.282552,-0.6744791 0,-0.4192709 0.282552,-0.6744792 0.291667,-0.2643229 0.966146,-0.2643229 z m -1.86849,7.929687 q 0,-1.157552 -0.811201,-1.959635 -0.811198,-0.802083 -1.986979,-0.802083 -1.166667,0 -1.977865,0.802083 -0.811198,0.802083 -0.811198,1.932291 0,1.029948 0.729167,1.695313 0.729166,0.65625 2.059896,0.65625 1.321614,0 2.059895,-0.65625 0.738285,-0.665365 0.738285,-1.667969 z" /><path
     id="path895"
     style="font-style:normal;font-variant:normal;font-weight:bold;font-stretch:normal;font-size:18.66666603px;font-family:'Courier New';-inkscape-font-specification:'Courier New'"
     d="m 113.62435,13.776705 h -7.66537 q 0.29167,0.729167 1.02995,1.175781 0.7474,0.446615 2.01433,0.446615 1.03906,0 2.76171,-0.446615 0.71094,-0.182291 0.98438,-0.182291 0.3737,0 0.6289,0.264323 0.25521,0.264322 0.25521,0.665364 0,0.364583 -0.27343,0.619792 -0.36459,0.337239 -1.77735,0.647135 -1.41276,0.300781 -2.71614,0.300781 -2.24219,0 -3.59115,-1.266927 -1.33984,-1.266927 -1.33984,-3.117187 0,-1.96875 1.44922,-3.1992187 1.45833,-1.2395832 3.35416,-1.2395832 1.13932,0 2.08724,0.4010416 0.95703,0.4010417 1.42188,0.8658854 0.65625,0.6744789 1.08463,1.6679689 0.29167,0.692708 0.29167,1.604166 z m -2.06901,-1.868489 q -0.42839,-0.802084 -1.1211,-1.194011 -0.6927,-0.401041 -1.64973,-0.401041 -0.94792,0 -1.64063,0.401041 -0.69271,0.391927 -1.13021,1.194011 z" /><path
     id="path897"
     style="font-style:normal;font-variant:normal;font-weight:bold;font-stretch:normal;font-size:18.66666603px;font-family:'Courier New';-inkscape-font-specification:'Courier New'"
     d="m 124.41601,5.145195 v 9.953125 h 0.31901 q 0.66537,0 0.95703,0.264323 0.29167,0.255208 0.29167,0.674479 0,0.410156 -0.29167,0.674479 -0.28255,0.255208 -0.95703,0.255208 h -2.1875 V 16.51108 q -0.63802,0.373698 -1.33984,0.565104 -0.69271,0.191406 -1.44011,0.191406 -2.10547,0 -3.39062,-1.212239 -1.28516,-1.221354 -1.28516,-3.035156 0,-1.895834 1.34896,-3.2356772 1.34896,-1.3398437 3.29036,-1.3398437 0.72917,0 1.43099,0.2278645 0.70183,0.21875 1.38542,0.6653646 V 7.0136845 h -0.31901 q -0.67448,0 -0.96615,-0.2552083 -0.28255,-0.2643229 -0.28255,-0.6744791 0,-0.4192709 0.28255,-0.6744792 0.29167,-0.2643229 0.96615,-0.2643229 z m -1.86849,7.929687 q 0,-1.157552 -0.8112,-1.959635 -0.8112,-0.802083 -1.98698,-0.802083 -1.16666,0 -1.97786,0.802083 -0.8112,0.802083 -0.8112,1.932291 0,1.029948 0.72917,1.695313 0.72916,0.65625 2.05989,0.65625 1.32162,0 2.0599,-0.65625 0.73828,-0.665365 0.73828,-1.667969 z" /></g></svg>