<?xml version="1.0" encoding="UTF-8" standalone="no"?>
<svg
   xmlns:dc="http://purl.org/dc/elements/1.1/"
   xmlns:cc="http://creativecommons.org/ns#"
   xmlns:rdf="http://www.w3.org/1999/02/22-rdf-syntax-ns#"
   xmlns:svg="http://www.w3.org/2000/svg"
   xmlns="http://www.w3.org/2000/svg"
   xmlns:sodipodi="http://sodipodi.sourceforge.net/DTD/sodipodi-0.dtd"
   xmlns:inkscape="http://www.inkscape.org/namespaces/inkscape"
   data-name="Layer 1"
   viewBox="0 0 63.32571 75.470001"
   x="0px"
   y="0px"
   version="1.1"
   id="svg18"
   sodipodi:docname="stalin_full.svg"
   width="63.32571"
   height="75.470001"
   inkscape:version="0.92.3 (2405546, 2018-03-11)">
  <metadata
     id="metadata24">
    <rdf:RDF>
      <cc:Work
         rdf:about="">
        <dc:format>image/svg+xml</dc:format>
        <dc:type
           rdf:resource="http://purl.org/dc/dcmitype/StillImage" />
        <dc:title>dictators_</dc:title>
      </cc:Work>
    </rdf:RDF>
  </metadata>
  <defs
     id="defs22" />
  <sodipodi:namedview
     pagecolor="#ffffff"
     bordercolor="#666666"
     borderopacity="1"
     objecttolerance="10"
     gridtolerance="10"
     guidetolerance="10"
     inkscape:pageopacity="0"
     inkscape:pageshadow="2"
     inkscape:window-width="1280"
     inkscape:window-height="926"
     id="namedview20"
     showgrid="false"
     fit-margin-top="0"
     fit-margin-left="0"
     fit-margin-right="0"
     fit-margin-bottom="0"
     inkscape:zoom="18.483623"
     inkscape:cx="22.459199"
     inkscape:cy="26.5"
     inkscape:window-x="1366"
     inkscape:window-y="27"
     inkscape:window-maximized="1"
     inkscape:current-layer="svg18" />
  <title
     id="title2">dictators_</title>
  <path
     d="m 23.127683,41.38 a 1.575,1.575 0 1 0 0,-3.15 h -4.17 a 1.575,1.575 0 1 0 0,3.15 z"
     id="path4"
     inkscape:connector-curvature="0" />
  <path
     d="m 40.187683,38.23 a 1.575,1.575 0 0 0 0,3.15 h 4.17 a 1.575,1.575 0 1 0 0,-3.15 z"
     id="path6"
     inkscape:connector-curvature="0" />
  <path
     d="m 34.187683,61.23 h -5.05 a 1.575,1.575 0 1 0 0,3.15 h 5.05 a 1.58,1.58 0 0 0 0,-3.15 z"
     id="path8"
     inkscape:connector-curvature="0" />
  <path
     d="m 48.447683,30.6 -13.34,1 a 1.94,1.94 0 0 0 -1.6,1.87 l 0.43,16.3 a 1.77,1.77 0 0 1 -0.45,1.34 1.62,1.62 0 0 1 -1.19,0.48 h -1.27 a 1.62,1.62 0 0 1 -1.19,-0.48 1.79,1.79 0 0 1 -0.45,-1.36 l 0.43,-16.28 a 1.57,1.57 0 0 0 -1.25,-1.58 1.56,1.56 0 0 0 -0.7,-0.23 l -13,-1 a 1.57,1.57 0 0 0 -1.7,1.57 v 1.64 a 1.57,1.57 0 0 0 1.45,1.57 l 12,0.93 -0.38,13.22 a 5.46,5.46 0 0 0 0,0.58 c -1.2,0.22 -3.26,0.61 -5.7,1.29 a 4.77,4.77 0 0 0 -3.8,4.48 3.74,3.74 0 0 1 -0.95,2.31 1.58,1.58 0 0 0 1.83,2.51 c 0.07,0 7.3,-3.65 14,-3.65 6.7,0 13.94,3.61 14,3.65 a 1.57,1.57 0 0 0 1.83,-2.51 3.75,3.75 0 0 1 -0.95,-2.32 4.77,4.77 0 0 0 -3.76,-4.46 c -2.45,-0.69 -4.47,-1.12 -5.69,-1.35 0,-0.17 0,-0.33 0,-0.5 l -0.31,-13.33 12,-0.91 a 1.58,1.58 0 0 0 1.46,-1.57 v -1.64 a 1.58,1.58 0 0 0 -1.75,-1.57 z"
     id="path10"
     inkscape:connector-curvature="0" />
  <path
     d="m 61.977683,35.84 a 5.16,5.16 0 0 0 -3,-1.52 c 0.63,-5.79 1.62,-14.85 1.76,-17.24 a 12.56,12.56 0 0 0 -3.42,-9.79 c -4.49,-4.82 -13.14,-7.29 -25.66,-7.29 -12.52,0 -21.16,2.47 -25.68,7.29 a 12.56,12.56 0 0 0 -3.42,9.79 c 0.18,2.39 1.18,11.45 1.81,17.23 a 5.16,5.16 0 0 0 -3,1.52 4.83,4.83 0 0 0 -1.36,3.64 v 0 l 0.59,7.07 a 5.07,5.07 0 0 0 5.14,4.93 1.56,1.56 0 0 0 0.45,0 l 0.44,7.86 a 12.69,12.69 0 0 0 11.87,12.08 c 1.24,2.19 3.02,4.06 6.05,4.06 h 14.19 c 3.07,0 4.86,-1.83 6.07,-4.06 a 12.58,12.58 0 0 0 11.88,-11.94 l 0.44,-8 a 1.55,1.55 0 0 0 0.42,0 c 2.85,0 4.88,-2 5.18,-5 l 0.59,-7 v 0 a 4.84,4.84 0 0 0 -1.34,-3.63 z m -23.74,-25.29 1.62,-4.93 a 1.5811388,1.5811388 0 1 1 3,1 l -1.62,4.93 a 1.5811388,1.5811388 0 0 1 -3,-1 z m -5.36,0.32 1.78,-5.61 a 1.5811388,1.5811388 0 0 1 3,1 l -1.78,5.61 a 1.5811388,1.5811388 0 1 1 -3,-1 z m 26.71,35.38 c -0.2,2.1 -1.59,2.1 -2,2.1 h -0.24 l 0.24,-4.34 a 1.5805062,1.5805062 0 1 0 -3.16,-0.08 c 0,0 0,0 0,0.06 l -0.89,15.2 a 9.31,9.31 0 0 1 -7.35,8.66 l 0.14,-0.45 a 1.58,1.58 0 0 0 -1.06,-2 1.47,1.47 0 0 0 -2,0.86 c -1.15,4 -2.33,5.21 -4.53,5.21 h -14.19 c -1.81,0 -3.19,-0.7 -4.53,-5.18 a 1.52,1.52 0 0 0 -2,-1 1.63,1.63 0 0 0 -1.06,2 c 0,0.15 0.09,0.32 0.14,0.47 a 9.4,9.4 0 0 1 -7.45,-8.68 L 8.737683,44 v 0 a 1.52,1.52 0 0 0 -0.09,-0.74 1.51,1.51 0 0 0 -1.39,-0.84 1.56,1.56 0 0 0 -1.52,1.54 c 0,0 0,0.09 0,0.13 l 0.25,4.29 h -0.24 c -0.45,0 -1.83,0 -2,-2.08 l -0.59,-7 a 1.71,1.71 0 0 1 0.48,-1.24 2,2 0 0 1 1.1,-0.59 l 0.2,1.8 a 1.57,1.57 0 0 0 2,1.34 l 1.25,-0.35 a 1.57,1.57 0 0 0 1.15,-1.58 l -0.32,-7.9 3.45,-3.08 a 1.57,1.57 0 0 0 0.5,-1.23 c 0,-0.19 0,-0.4 0,-0.62 -0.1,-1.94 -0.27,-5.18 1.29,-6.84 a 4.59,4.59 0 0 1 3.48,-1.25 33.32,33.32 0 0 1 7.45,0.74 30.9,30.9 0 0 0 12.95,-0.03 33.3,33.3 0 0 1 7.45,-0.74 4.59,4.59 0 0 1 3.51,1.2 c 1.57,1.65 1.4,4.9 1.29,6.84 0,0.22 0,0.43 0,0.62 a 1.57,1.57 0 0 0 0.52,1.24 l 3.45,3.08 -0.32,7.9 a 1.57,1.57 0 0 0 1.15,1.58 l 1.25,0.35 a 1.57,1.57 0 0 0 2,-1.34 l 0.2,-1.8 a 2,2 0 0 1 1.09,0.57 1.71,1.71 0 0 1 0.48,1.24 z"
     id="path12"
     inkscape:connector-curvature="0" />
  <path
     style="opacity:0.5;fill:#00c853;fill-opacity:1;fill-rule:nonzero;stroke:none;stroke-width:0.33855984;stroke-linecap:round;stroke-linejoin:miter;stroke-miterlimit:4;stroke-dasharray:none;stroke-dashoffset:133.26161194;stroke-opacity:0.53921569;paint-order:normal"
     d="m 23.012764,71.203208 c -1.154173,-0.529853 -2.012095,-1.805352 -2.775748,-4.126782 -0.589713,-1.792676 -1.608946,-2.306439 -2.720359,-1.371247 -0.486231,0.409136 -0.530116,0.525585 -0.478508,1.269704 0.03125,0.450591 0.0025,0.819208 -0.06379,0.819151 C 16.550905,67.793695 14.71627,66.954925 13.756478,66.322915 11.989315,65.159263 10.909785,63.746202 10.114843,61.55616 9.6935792,60.395592 9.6203206,59.533974 8.8692805,46.906689 8.6768907,43.672024 8.6271791,43.333689 8.2860266,42.937075 7.7416951,42.304252 6.7879449,42.331953 6.2157185,42.997206 l -0.4246609,0.493698 0.1172547,2.518031 0.1172546,2.518032 -0.5593761,-0.120143 C 3.9778461,48.087159 3.8449311,47.753075 3.4541177,43.349452 3.0285862,38.554632 3.0191086,38.754193 3.7049273,38.068374 c 0.8621403,-0.862141 1.0566506,-0.773101 1.1981794,0.548475 0.1983541,1.852202 1.0595001,2.32139 3.0289906,1.650317 1.3500104,-0.459994 1.3523396,-0.470178 1.2106585,-5.293392 L 9.0192091,30.767897 9.9239947,29.940681 c 0.4976323,-0.454968 1.3624783,-1.26076 1.9218813,-1.790648 l 1.017095,-0.963434 0.09389,-3.014645 c 0.08313,-2.669137 0.139236,-3.117344 0.489534,-3.910728 0.50177,-1.136451 1.494089,-1.996458 2.712206,-2.350575 1.195293,-0.347481 4.677359,-0.209303 7.576921,0.300673 4.116783,0.724061 5.096475,0.827596 7.83288,0.827791 2.75258,1.97e-4 3.91482,-0.124551 7.871517,-0.844878 1.024143,-0.186448 3.049696,-0.388137 4.501226,-0.448197 2.923247,-0.120957 3.713028,0.02453 4.852883,0.893935 1.198518,0.914155 1.856105,3.391916 1.678926,6.326133 -0.0654,1.083065 -0.03085,1.754719 0.105807,2.057014 0.111601,0.24687 1.028909,1.192431 2.038461,2.101246 l 1.835549,1.652391 -0.0971,1.453633 c -0.0534,0.799497 -0.14524,2.688796 -0.20408,4.19844 l -0.106983,2.74481 0.494436,0.494434 c 0.552792,0.552794 2.088951,0.991913 2.82432,0.807347 0.570203,-0.143111 0.961784,-0.756951 1.061653,-1.664232 0.147504,-1.340062 0.198844,-1.463623 0.568032,-1.367077 0.187701,0.04908 0.530809,0.314496 0.762466,0.589805 0.519701,0.617628 0.529482,1.147162 0.104137,5.637621 -0.381213,4.024562 -0.656078,4.655198 -2.02898,4.655198 h -0.506217 l 0.09622,-2.503674 0.09622,-2.503676 -0.545162,-0.458723 C 56.6719,42.608367 56.276286,42.40194 56.092597,42.40194 c -0.566109,0 -1.276234,0.468252 -1.464033,0.965376 -0.09838,0.260427 -0.340452,3.406278 -0.537936,6.990781 -0.50819,9.224108 -0.60911,10.2857 -1.102396,11.596243 -0.892453,2.371028 -2.420175,4.031871 -4.758119,5.172724 -1.798951,0.87784 -2.047911,0.876254 -1.963154,-0.01251 0.082,-0.859857 -0.275029,-1.427683 -1.060718,-1.686984 -0.466175,-0.15385 -0.693352,-0.148007 -1.057846,0.02721 -0.535649,0.257499 -0.705244,0.552466 -1.421371,2.472112 -0.594548,1.593743 -1.329864,2.655086 -2.189265,3.159948 -0.56952,0.334569 -0.872037,0.348053 -8.715436,0.388513 -7.606832,0.03924 -8.169101,0.02187 -8.809559,-0.272153 z m 11.582561,-6.982511 c 0.52853,-0.184246 1.035796,-0.879927 1.035796,-1.420526 0,-0.148904 -0.114707,-0.492552 -0.254905,-0.763666 -0.383569,-0.741742 -1.121926,-0.88523 -4.209496,-0.818055 l -2.675166,0.0582 -0.408294,0.474959 c -0.728299,0.847212 -0.342753,2.345343 0.653078,2.537695 0.839195,0.162098 5.34866,0.109293 5.858987,-0.06861 z M 18.843363,60.179941 c 7.206719,-3.125725 13.087798,-3.790006 19.306821,-2.180748 1.848686,0.478373 4.562949,1.420001 6.312694,2.189989 0.830229,0.365349 1.738078,0.66427 2.017446,0.66427 0.750911,0 1.338952,-0.661333 1.338952,-1.505835 0,-0.371153 -0.07527,-0.721344 -0.167272,-0.778203 -0.425174,-0.262772 -1.053541,-1.682265 -1.198827,-2.708178 -0.271215,-1.915123 -1.126585,-3.182701 -2.676903,-3.966917 -0.336708,-0.170321 -1.994104,-0.642203 -3.683103,-1.048623 l -3.070907,-0.738948 -0.103921,-5.164324 c -0.05716,-2.840377 -0.146551,-5.942442 -0.198654,-6.893475 -0.09346,-1.706008 -0.08949,-1.730196 0.29707,-1.807036 0.215491,-0.04283 3.005853,-0.268578 6.200803,-0.501651 6.205006,-0.452659 6.470879,-0.507278 6.809908,-1.398992 0.08895,-0.233951 0.161725,-0.909706 0.161725,-1.501678 0,-0.910949 -0.06733,-1.15633 -0.438247,-1.597139 -0.384064,-0.456434 -0.546267,-0.521264 -1.31192,-0.524357 -1.923541,-0.0078 -13.260378,0.908967 -13.7681,1.113337 -0.295346,0.118884 -0.668611,0.417028 -0.829478,0.662543 -0.274719,0.419275 -0.279312,0.969976 -0.07559,9.066555 0.234114,9.304366 0.229579,9.375482 -0.627045,9.832934 -0.253046,0.135133 -0.934982,0.233784 -1.611824,0.233175 -1.110053,-0.001 -1.199746,-0.03076 -1.666217,-0.552831 -0.585881,-0.655715 -0.554742,0.366394 -0.297719,-9.772188 0.110934,-4.375886 0.149243,-8.164714 0.08513,-8.419618 -0.245783,-0.977251 -0.805928,-1.093284 -7.974508,-1.651902 -3.588806,-0.279662 -6.757166,-0.508476 -7.040801,-0.508476 -0.321826,0 -0.671905,0.156206 -0.931205,0.415505 -0.378703,0.378704 -0.415505,0.548514 -0.415505,1.917212 0,2.376536 -0.443766,2.201461 7.065978,2.787651 3.417377,0.266749 6.236364,0.507949 6.264413,0.536001 0.135726,0.135725 -0.365556,13.738715 -0.509751,13.83279 -0.08987,0.05863 -0.503606,0.153236 -0.91941,0.210229 -1.392891,0.190917 -5.532203,1.30301 -6.053462,1.62636 -1.321688,0.819879 -2.156767,2.189084 -2.367092,3.881113 -0.116383,0.936281 -0.407988,1.651021 -0.965412,2.366276 -0.464219,0.595659 -0.415691,1.626613 0.10088,2.143184 0.57682,0.57682 1.127681,0.528495 2.941048,-0.258005 z m 5.376426,-19.353279 c 0.550348,-0.640454 0.547229,-1.517337 -0.0074,-2.071934 -0.40651,-0.406507 -0.474134,-0.415506 -3.122243,-0.415506 -2.575004,0 -2.728613,0.01882 -3.156301,0.386701 -0.802496,0.690278 -0.520081,2.063888 0.515328,2.506447 0.186208,0.07959 1.468933,0.12773 2.850501,0.10698 l 2.51194,-0.03773 z m 21.175239,0.01422 c 0.624762,-0.625404 0.614053,-1.567148 -0.02406,-2.116029 -0.426149,-0.366552 -0.58224,-0.38563 -3.155063,-0.38563 -2.648109,0 -2.715733,0.009 -3.122238,0.415506 -0.717158,0.717156 -0.446982,2.075284 0.491327,2.469816 0.199521,0.08389 1.484843,0.135556 2.856273,0.114806 2.466097,-0.03732 2.498565,-0.04279 2.953762,-0.498462 z"
     id="path834"
     inkscape:connector-curvature="0" />
</svg>
