<?xml version="1.0" encoding="UTF-8" standalone="no"?>
<svg
   xmlns:dc="http://purl.org/dc/elements/1.1/"
   xmlns:cc="http://creativecommons.org/ns#"
   xmlns:rdf="http://www.w3.org/1999/02/22-rdf-syntax-ns#"
   xmlns:svg="http://www.w3.org/2000/svg"
   xmlns="http://www.w3.org/2000/svg"
   xmlns:sodipodi="http://sodipodi.sourceforge.net/DTD/sodipodi-0.dtd"
   xmlns:inkscape="http://www.inkscape.org/namespaces/inkscape"
   data-name="Layer 1"
   viewBox="0 0 63.32571 75.470001"
   x="0px"
   y="0px"
   version="1.1"
   id="svg18"
   sodipodi:docname="stalin_empty.svg"
   width="63.32571"
   height="75.470001"
   inkscape:version="0.92.3 (2405546, 2018-03-11)">
  <metadata
     id="metadata24">
    <rdf:RDF>
      <cc:Work
         rdf:about="">
        <dc:format>image/svg+xml</dc:format>
        <dc:type
           rdf:resource="http://purl.org/dc/dcmitype/StillImage" />
        <dc:title>dictators_</dc:title>
      </cc:Work>
    </rdf:RDF>
  </metadata>
  <defs
     id="defs22" />
  <sodipodi:namedview
     pagecolor="#ffffff"
     bordercolor="#666666"
     borderopacity="1"
     objecttolerance="10"
     gridtolerance="10"
     guidetolerance="10"
     inkscape:pageopacity="0"
     inkscape:pageshadow="2"
     inkscape:window-width="1366"
     inkscape:window-height="741"
     id="namedview20"
     showgrid="false"
     fit-margin-top="0"
     fit-margin-left="0"
     fit-margin-right="0"
     fit-margin-bottom="0"
     inkscape:zoom="4.6209056"
     inkscape:cx="-22.266042"
     inkscape:cy="9.6557491"
     inkscape:window-x="0"
     inkscape:window-y="27"
     inkscape:window-maximized="1"
     inkscape:current-layer="svg18" />
  <title
     id="title2">dictators_</title>
  <path
     d="m 23.127683,41.38 a 1.575,1.575 0 1 0 0,-3.15 h -4.17 a 1.575,1.575 0 1 0 0,3.15 z"
     id="path4"
     inkscape:connector-curvature="0"
     style="fill:#000000;fill-opacity:1;opacity:0.4" />
  <path
     d="m 40.187683,38.23 a 1.575,1.575 0 0 0 0,3.15 h 4.17 a 1.575,1.575 0 1 0 0,-3.15 z"
     id="path6"
     inkscape:connector-curvature="0"
     style="fill:#000000;fill-opacity:1;opacity:0.4" />
  <path
     d="m 34.187683,61.23 h -5.05 a 1.575,1.575 0 1 0 0,3.15 h 5.05 a 1.58,1.58 0 0 0 0,-3.15 z"
     id="path8"
     inkscape:connector-curvature="0"
     style="fill:#000000;fill-opacity:1;opacity:0.4" />
  <path
     d="m 48.447683,30.6 -13.34,1 a 1.94,1.94 0 0 0 -1.6,1.87 l 0.43,16.3 a 1.77,1.77 0 0 1 -0.45,1.34 1.62,1.62 0 0 1 -1.19,0.48 h -1.27 a 1.62,1.62 0 0 1 -1.19,-0.48 1.79,1.79 0 0 1 -0.45,-1.36 l 0.43,-16.28 a 1.57,1.57 0 0 0 -1.25,-1.58 1.56,1.56 0 0 0 -0.7,-0.23 l -13,-1 a 1.57,1.57 0 0 0 -1.7,1.57 v 1.64 a 1.57,1.57 0 0 0 1.45,1.57 l 12,0.93 -0.38,13.22 a 5.46,5.46 0 0 0 0,0.58 c -1.2,0.22 -3.26,0.61 -5.7,1.29 a 4.77,4.77 0 0 0 -3.8,4.48 3.74,3.74 0 0 1 -0.95,2.31 1.58,1.58 0 0 0 1.83,2.51 c 0.07,0 7.3,-3.65 14,-3.65 6.7,0 13.94,3.61 14,3.65 a 1.57,1.57 0 0 0 1.83,-2.51 3.75,3.75 0 0 1 -0.95,-2.32 4.77,4.77 0 0 0 -3.76,-4.46 c -2.45,-0.69 -4.47,-1.12 -5.69,-1.35 0,-0.17 0,-0.33 0,-0.5 l -0.31,-13.33 12,-0.91 a 1.58,1.58 0 0 0 1.46,-1.57 v -1.64 a 1.58,1.58 0 0 0 -1.75,-1.57 z"
     id="path10"
     inkscape:connector-curvature="0"
     style="fill:#000000;fill-opacity:1;opacity:0.4" />
  <path
     d="m 61.977683,35.84 a 5.16,5.16 0 0 0 -3,-1.52 c 0.63,-5.79 1.62,-14.85 1.76,-17.24 a 12.56,12.56 0 0 0 -3.42,-9.79 c -4.49,-4.82 -13.14,-7.29 -25.66,-7.29 -12.52,0 -21.16,2.47 -25.68,7.29 a 12.56,12.56 0 0 0 -3.42,9.79 c 0.18,2.39 1.18,11.45 1.81,17.23 a 5.16,5.16 0 0 0 -3,1.52 4.83,4.83 0 0 0 -1.36,3.64 v 0 l 0.59,7.07 a 5.07,5.07 0 0 0 5.14,4.93 1.56,1.56 0 0 0 0.45,0 l 0.44,7.86 a 12.69,12.69 0 0 0 11.87,12.08 c 1.24,2.19 3.02,4.06 6.05,4.06 h 14.19 c 3.07,0 4.86,-1.83 6.07,-4.06 a 12.58,12.58 0 0 0 11.88,-11.94 l 0.44,-8 a 1.55,1.55 0 0 0 0.42,0 c 2.85,0 4.88,-2 5.18,-5 l 0.59,-7 v 0 a 4.84,4.84 0 0 0 -1.34,-3.63 z m -23.74,-25.29 1.62,-4.93 a 1.5811388,1.5811388 0 1 1 3,1 l -1.62,4.93 a 1.5811388,1.5811388 0 0 1 -3,-1 z m -5.36,0.32 1.78,-5.61 a 1.5811388,1.5811388 0 0 1 3,1 l -1.78,5.61 a 1.5811388,1.5811388 0 1 1 -3,-1 z m 26.71,35.38 c -0.2,2.1 -1.59,2.1 -2,2.1 h -0.24 l 0.24,-4.34 a 1.5805062,1.5805062 0 1 0 -3.16,-0.08 c 0,0 0,0 0,0.06 l -0.89,15.2 a 9.31,9.31 0 0 1 -7.35,8.66 l 0.14,-0.45 a 1.58,1.58 0 0 0 -1.06,-2 1.47,1.47 0 0 0 -2,0.86 c -1.15,4 -2.33,5.21 -4.53,5.21 h -14.19 c -1.81,0 -3.19,-0.7 -4.53,-5.18 a 1.52,1.52 0 0 0 -2,-1 1.63,1.63 0 0 0 -1.06,2 c 0,0.15 0.09,0.32 0.14,0.47 a 9.4,9.4 0 0 1 -7.45,-8.68 L 8.737683,44 v 0 a 1.52,1.52 0 0 0 -0.09,-0.74 1.51,1.51 0 0 0 -1.39,-0.84 1.56,1.56 0 0 0 -1.52,1.54 c 0,0 0,0.09 0,0.13 l 0.25,4.29 h -0.24 c -0.45,0 -1.83,0 -2,-2.08 l -0.59,-7 a 1.71,1.71 0 0 1 0.48,-1.24 2,2 0 0 1 1.1,-0.59 l 0.2,1.8 a 1.57,1.57 0 0 0 2,1.34 l 1.25,-0.35 a 1.57,1.57 0 0 0 1.15,-1.58 l -0.32,-7.9 3.45,-3.08 a 1.57,1.57 0 0 0 0.5,-1.23 c 0,-0.19 0,-0.4 0,-0.62 -0.1,-1.94 -0.27,-5.18 1.29,-6.84 a 4.59,4.59 0 0 1 3.48,-1.25 33.32,33.32 0 0 1 7.45,0.74 30.9,30.9 0 0 0 12.95,-0.03 33.3,33.3 0 0 1 7.45,-0.74 4.59,4.59 0 0 1 3.51,1.2 c 1.57,1.65 1.4,4.9 1.29,6.84 0,0.22 0,0.43 0,0.62 a 1.57,1.57 0 0 0 0.52,1.24 l 3.45,3.08 -0.32,7.9 a 1.57,1.57 0 0 0 1.15,1.58 l 1.25,0.35 a 1.57,1.57 0 0 0 2,-1.34 l 0.2,-1.8 a 2,2 0 0 1 1.09,0.57 1.71,1.71 0 0 1 0.48,1.24 z"
     id="path12"
     inkscape:connector-curvature="0"
     style="fill:#000000;fill-opacity:1;opacity:0.4" />
</svg>
