<?xml version="1.0" encoding="UTF-8" standalone="no"?>
<svg
   xmlns:dc="http://purl.org/dc/elements/1.1/"
   xmlns:cc="http://creativecommons.org/ns#"
   xmlns:rdf="http://www.w3.org/1999/02/22-rdf-syntax-ns#"
   xmlns:svg="http://www.w3.org/2000/svg"
   xmlns="http://www.w3.org/2000/svg"
   xmlns:sodipodi="http://sodipodi.sourceforge.net/DTD/sodipodi-0.dtd"
   xmlns:inkscape="http://www.inkscape.org/namespaces/inkscape"
   data-name="Layer 1"
   viewBox="0 0 63.32571 75.470001"
   x="0px"
   y="0px"
   version="1.1"
   id="svg18"
   sodipodi:docname="stalin_empty.svg"
   width="63.32571"
   height="75.470001"
   inkscape:version="0.92.3 (2405546, 2018-03-11)">
  <metadata
     id="metadata24">
    <rdf:RDF>
      <cc:Work
         rdf:about="">
        <dc:format>image/svg+xml</dc:format>
        <dc:type
           rdf:resource="http://purl.org/dc/dcmitype/StillImage" />
        <dc:title>dictators_</dc:title>
      </cc:Work>
    </rdf:RDF>
  </metadata>
  <defs
     id="defs22" />
  <sodipodi:namedview
     pagecolor="#ffffff"
     bordercolor="#666666"
     borderopacity="1"
     objecttolerance="10"
     gridtolerance="10"
     guidetolerance="10"
     inkscape:pageopacity="0"
     inkscape:pageshadow="2"
     inkscape:window-width="1280"
     inkscape:window-height="926"
     id="namedview20"
     showgrid="false"
     fit-margin-top="0"
     fit-margin-left="0"
     fit-margin-right="0"
     fit-margin-bottom="0"
     inkscape:zoom="4.6209056"
     inkscape:cx="48.066492"
     inkscape:cy="9.6557491"
     inkscape:window-x="1366"
     inkscape:window-y="27"
     inkscape:window-maximized="1"
     inkscape:current-layer="svg18" />
  <title
     id="title2">dictators_</title>
  <path
     d="m 23.127683,41.38 a 1.575,1.575 0 1 0 0,-3.15 h -4.17 a 1.575,1.575 0 1 0 0,3.15 z"
     id="path4"
     inkscape:connector-curvature="0" />
  <path
     d="m 40.187683,38.23 a 1.575,1.575 0 0 0 0,3.15 h 4.17 a 1.575,1.575 0 1 0 0,-3.15 z"
     id="path6"
     inkscape:connector-curvature="0" />
  <path
     d="m 34.187683,61.23 h -5.05 a 1.575,1.575 0 1 0 0,3.15 h 5.05 a 1.58,1.58 0 0 0 0,-3.15 z"
     id="path8"
     inkscape:connector-curvature="0" />
  <path
     d="m 48.447683,30.6 -13.34,1 a 1.94,1.94 0 0 0 -1.6,1.87 l 0.43,16.3 a 1.77,1.77 0 0 1 -0.45,1.34 1.62,1.62 0 0 1 -1.19,0.48 h -1.27 a 1.62,1.62 0 0 1 -1.19,-0.48 1.79,1.79 0 0 1 -0.45,-1.36 l 0.43,-16.28 a 1.57,1.57 0 0 0 -1.25,-1.58 1.56,1.56 0 0 0 -0.7,-0.23 l -13,-1 a 1.57,1.57 0 0 0 -1.7,1.57 v 1.64 a 1.57,1.57 0 0 0 1.45,1.57 l 12,0.93 -0.38,13.22 a 5.46,5.46 0 0 0 0,0.58 c -1.2,0.22 -3.26,0.61 -5.7,1.29 a 4.77,4.77 0 0 0 -3.8,4.48 3.74,3.74 0 0 1 -0.95,2.31 1.58,1.58 0 0 0 1.83,2.51 c 0.07,0 7.3,-3.65 14,-3.65 6.7,0 13.94,3.61 14,3.65 a 1.57,1.57 0 0 0 1.83,-2.51 3.75,3.75 0 0 1 -0.95,-2.32 4.77,4.77 0 0 0 -3.76,-4.46 c -2.45,-0.69 -4.47,-1.12 -5.69,-1.35 0,-0.17 0,-0.33 0,-0.5 l -0.31,-13.33 12,-0.91 a 1.58,1.58 0 0 0 1.46,-1.57 v -1.64 a 1.58,1.58 0 0 0 -1.75,-1.57 z"
     id="path10"
     inkscape:connector-curvature="0" />
  <path
     d="m 61.977683,35.84 a 5.16,5.16 0 0 0 -3,-1.52 c 0.63,-5.79 1.62,-14.85 1.76,-17.24 a 12.56,12.56 0 0 0 -3.42,-9.79 c -4.49,-4.82 -13.14,-7.29 -25.66,-7.29 -12.52,0 -21.16,2.47 -25.68,7.29 a 12.56,12.56 0 0 0 -3.42,9.79 c 0.18,2.39 1.18,11.45 1.81,17.23 a 5.16,5.16 0 0 0 -3,1.52 4.83,4.83 0 0 0 -1.36,3.64 v 0 l 0.59,7.07 a 5.07,5.07 0 0 0 5.14,4.93 1.56,1.56 0 0 0 0.45,0 l 0.44,7.86 a 12.69,12.69 0 0 0 11.87,12.08 c 1.24,2.19 3.02,4.06 6.05,4.06 h 14.19 c 3.07,0 4.86,-1.83 6.07,-4.06 a 12.58,12.58 0 0 0 11.88,-11.94 l 0.44,-8 a 1.55,1.55 0 0 0 0.42,0 c 2.85,0 4.88,-2 5.18,-5 l 0.59,-7 v 0 a 4.84,4.84 0 0 0 -1.34,-3.63 z m -23.74,-25.29 1.62,-4.93 a 1.5811388,1.5811388 0 1 1 3,1 l -1.62,4.93 a 1.5811388,1.5811388 0 0 1 -3,-1 z m -5.36,0.32 1.78,-5.61 a 1.5811388,1.5811388 0 0 1 3,1 l -1.78,5.61 a 1.5811388,1.5811388 0 1 1 -3,-1 z m 26.71,35.38 c -0.2,2.1 -1.59,2.1 -2,2.1 h -0.24 l 0.24,-4.34 a 1.5805062,1.5805062 0 1 0 -3.16,-0.08 c 0,0 0,0 0,0.06 l -0.89,15.2 a 9.31,9.31 0 0 1 -7.35,8.66 l 0.14,-0.45 a 1.58,1.58 0 0 0 -1.06,-2 1.47,1.47 0 0 0 -2,0.86 c -1.15,4 -2.33,5.21 -4.53,5.21 h -14.19 c -1.81,0 -3.19,-0.7 -4.53,-5.18 a 1.52,1.52 0 0 0 -2,-1 1.63,1.63 0 0 0 -1.06,2 c 0,0.15 0.09,0.32 0.14,0.47 a 9.4,9.4 0 0 1 -7.45,-8.68 L 8.737683,44 v 0 a 1.52,1.52 0 0 0 -0.09,-0.74 1.51,1.51 0 0 0 -1.39,-0.84 1.56,1.56 0 0 0 -1.52,1.54 c 0,0 0,0.09 0,0.13 l 0.25,4.29 h -0.24 c -0.45,0 -1.83,0 -2,-2.08 l -0.59,-7 a 1.71,1.71 0 0 1 0.48,-1.24 2,2 0 0 1 1.1,-0.59 l 0.2,1.8 a 1.57,1.57 0 0 0 2,1.34 l 1.25,-0.35 a 1.57,1.57 0 0 0 1.15,-1.58 l -0.32,-7.9 3.45,-3.08 a 1.57,1.57 0 0 0 0.5,-1.23 c 0,-0.19 0,-0.4 0,-0.62 -0.1,-1.94 -0.27,-5.18 1.29,-6.84 a 4.59,4.59 0 0 1 3.48,-1.25 33.32,33.32 0 0 1 7.45,0.74 30.9,30.9 0 0 0 12.95,-0.03 33.3,33.3 0 0 1 7.45,-0.74 4.59,4.59 0 0 1 3.51,1.2 c 1.57,1.65 1.4,4.9 1.29,6.84 0,0.22 0,0.43 0,0.62 a 1.57,1.57 0 0 0 0.52,1.24 l 3.45,3.08 -0.32,7.9 a 1.57,1.57 0 0 0 1.15,1.58 l 1.25,0.35 a 1.57,1.57 0 0 0 2,-1.34 l 0.2,-1.8 a 2,2 0 0 1 1.09,0.57 1.71,1.71 0 0 1 0.48,1.24 z"
     id="path12"
     inkscape:connector-curvature="0" />
  <path
     style="opacity:0.5;fill:#ffffff;fill-opacity:1;fill-rule:nonzero;stroke:none;stroke-width:0.43281558;stroke-linecap:round;stroke-linejoin:miter;stroke-miterlimit:4;stroke-dasharray:none;stroke-dashoffset:133.26161194;stroke-opacity:0.53921569;paint-order:normal"
     d="m 23.050701,71.273344 c -0.846568,-0.342277 -1.977203,-1.951898 -2.681128,-3.81697 -0.771556,-2.044266 -1.223169,-2.45387 -2.308492,-2.093758 -0.754161,0.25023 -1.206185,1.045896 -1.057365,1.861204 0.09974,0.546434 0.06149,0.594779 -0.373119,0.471524 C 15.33283,67.327298 13.321072,66.149565 12.376261,65.204757 11.16432,63.992815 10.102869,62.015951 9.7892324,60.386632 9.6696457,59.765386 9.3650429,55.653906 9.1123372,51.250008 8.6822105,43.754196 8.6245798,43.218738 8.2097825,42.864206 7.6123618,42.353583 6.831061,42.387033 6.2708777,42.947217 5.8391944,43.378901 5.8162154,43.568985 5.9177022,45.868723 l 0.1085495,2.459779 H 5.4055922 c -0.7000051,0 -1.4198813,-0.610941 -1.5872324,-1.347043 -0.061573,-0.270832 -0.2552277,-2.185396 -0.4303439,-4.254588 -0.3301612,-3.90122 -0.2858546,-4.328384 0.5125323,-4.941366 0.6375917,-0.489527 0.8662919,-0.301404 1.0172788,0.83679 0.2372442,1.788435 1.0062389,2.227799 2.9529631,1.687175 1.4233108,-0.395268 1.4848892,-0.655166 1.2570291,-5.305432 l -0.2007193,-4.096363 1.9643661,-1.846128 1.964366,-1.846128 0.03889,-2.698436 c 0.02139,-1.484139 0.159815,-3.123274 0.307605,-3.642521 0.389402,-1.36812 1.624513,-2.600526 2.95006,-2.943597 1.439427,-0.372545 5.872511,-0.100731 9.191282,0.563562 3.655017,0.731598 8.639398,0.698343 13.092672,-0.08735 9.94294,-1.75424 12.010632,-0.69716 12.010632,6.140275 v 2.542044 l 1.97106,1.800936 1.971062,1.800936 -0.152332,4.172187 c -0.176442,4.832535 -0.124229,5.023326 1.485642,5.428697 1.370508,0.345099 1.599586,0.315376 2.200473,-0.285513 0.406109,-0.406107 0.531184,-0.759793 0.531184,-1.502082 0,-0.533995 0.08914,-1.02599 0.198084,-1.093323 0.108946,-0.06733 0.498481,0.130344 0.865631,0.439282 0.570237,0.479822 0.667454,0.708745 0.666907,1.570402 -0.0011,1.768058 -0.627466,7.598136 -0.863716,8.039574 -0.278221,0.519859 -0.893626,0.868011 -1.534323,0.868011 -0.473448,0 -0.477893,-0.02974 -0.354379,-2.371057 0.11358,-2.152989 0.08526,-2.421683 -0.307898,-2.921505 -0.515464,-0.655306 -1.431808,-0.728803 -2.12169,-0.17017 -0.450817,0.36505 -0.49014,0.727275 -0.981927,9.045004 -0.548269,9.273048 -0.603089,9.610852 -1.926088,11.868379 -0.744124,1.269751 -2.327368,2.645298 -3.919971,3.405731 -1.73539,0.828608 -1.991441,0.812849 -1.883014,-0.115906 0.111949,-0.958938 -0.532405,-1.64426 -1.54597,-1.64426 -0.886543,0 -1.271898,0.411002 -1.742858,1.858844 -0.544767,1.674743 -1.64769,3.347097 -2.507259,3.801741 -0.695353,0.367785 -1.386045,0.397766 -8.87272,0.385115 -4.465267,-0.0076 -8.322746,-0.09623 -8.572174,-0.197074 z m 12.031323,-7.36348 c 0.240453,-0.240453 0.432816,-0.721359 0.432816,-1.082039 0,-0.360681 -0.192363,-0.841587 -0.432816,-1.082039 -0.39093,-0.39093 -0.721359,-0.432816 -3.414372,-0.432816 -3.521554,0 -3.943493,0.162083 -3.943493,1.514855 0,1.352771 0.421939,1.514854 3.943493,1.514854 2.693013,0 3.023442,-0.04189 3.414372,-0.432815 z M 19.436322,59.926569 c 8.403022,-3.429313 13.991955,-3.681913 21.811019,-0.985786 1.400247,0.482828 3.017229,1.116706 3.593294,1.408618 1.290325,0.653857 1.862072,0.667582 2.508584,0.06022 0.664902,-0.624646 0.631523,-1.256074 -0.129869,-2.456666 -0.367181,-0.578982 -0.694275,-1.46378 -0.782801,-2.11749 -0.251031,-1.853714 -1.058035,-3.09552 -2.488531,-3.829316 -0.730898,-0.374924 -5.84703,-1.729973 -6.531703,-1.729973 -0.273589,0 -0.351167,-0.552419 -0.463459,-3.300218 -0.182092,-4.455733 -0.256209,-10.505378 -0.130249,-10.631337 0.05625,-0.05625 2.828253,-0.314733 6.159998,-0.574401 3.331747,-0.259668 6.232804,-0.565091 6.446795,-0.678718 1.204006,-0.639319 0.989962,-4.022401 -0.275431,-4.353309 -0.689664,-0.180351 -14.120117,0.892868 -14.652794,1.170896 -0.951411,0.496582 -0.980629,0.901317 -0.717321,9.936712 0.240652,8.257896 0.235824,8.517244 -0.168688,9.060921 -0.341935,0.459572 -0.623364,0.571663 -1.573195,0.626585 -0.636222,0.03679 -1.387501,0.009 -1.669511,-0.06181 -1.020724,-0.256184 -1.069156,-0.824527 -0.844735,-9.912681 0.149319,-6.046779 0.140719,-8.538768 -0.03077,-8.915151 -0.152048,-0.333709 -0.534752,-0.603888 -1.059511,-0.747984 -0.812717,-0.22317 -11.452016,-1.09621 -13.358956,-1.09621 -1.456025,0 -1.853648,0.487424 -1.853648,2.272282 0,2.345253 -0.352692,2.222649 8.18873,2.846601 l 5.267225,0.384771 -0.13289,5.417567 c -0.07309,2.979662 -0.186595,6.114152 -0.25224,6.965535 l -0.119351,1.547967 -0.795033,0.142861 c -1.921582,0.345296 -5.403592,1.277981 -6.097023,1.633139 -1.407501,0.720887 -2.217631,1.957499 -2.47922,3.784377 -0.08522,0.595122 -0.438702,1.580812 -0.785528,2.190422 -0.346826,0.609609 -0.630592,1.271374 -0.630592,1.470588 0,0.449985 0.948592,1.424573 1.386575,1.424573 0.178315,0 1.375689,-0.429112 2.660832,-0.953585 z m 4.257047,-18.729164 c 1.028664,-0.391099 1.257531,-1.670664 0.444279,-2.483917 -0.273258,-0.273257 -0.88071,-0.339744 -3.104048,-0.339744 -2.359399,0 -2.813903,0.05547 -3.102924,0.378713 -0.661457,0.739775 -0.492858,1.992575 0.320938,2.384773 0.611175,0.294546 4.706204,0.33983 5.441755,0.06018 z m 21.79582,-0.413047 c 0.533476,-0.659568 0.525822,-1.432386 -0.01959,-1.977799 -0.387272,-0.387272 -0.721359,-0.432815 -3.174975,-0.432815 -3.102595,0 -3.533667,0.173772 -3.533667,1.424485 0,0.513832 0.162402,0.835924 0.591772,1.173666 0.543755,0.427717 0.799953,0.459721 3.157504,0.39442 2.392358,-0.06626 2.593656,-0.10559 2.978957,-0.581957 z"
     id="path1435"
     inkscape:connector-curvature="0" />
</svg>
