<?xml version="1.0" encoding="UTF-8" standalone="no"?>
<svg
   xmlns:dc="http://purl.org/dc/elements/1.1/"
   xmlns:cc="http://creativecommons.org/ns#"
   xmlns:rdf="http://www.w3.org/1999/02/22-rdf-syntax-ns#"
   xmlns:svg="http://www.w3.org/2000/svg"
   xmlns="http://www.w3.org/2000/svg"
   xmlns:sodipodi="http://sodipodi.sourceforge.net/DTD/sodipodi-0.dtd"
   xmlns:inkscape="http://www.inkscape.org/namespaces/inkscape"
   version="1.1"
   viewBox="0 0 259.277 259.277"
   enable-background="new 0 0 259.277 259.277"
   id="svg12"
   sodipodi:docname="story.svg"
   inkscape:version="0.92.3 (2405546, 2018-03-11)">
  <metadata
     id="metadata18">
    <rdf:RDF>
      <cc:Work
         rdf:about="">
        <dc:format>image/svg+xml</dc:format>
        <dc:type
           rdf:resource="http://purl.org/dc/dcmitype/StillImage" />
      </cc:Work>
    </rdf:RDF>
  </metadata>
  <defs
     id="defs16" />
  <sodipodi:namedview
     pagecolor="#ffffff"
     bordercolor="#666666"
     borderopacity="1"
     objecttolerance="10"
     gridtolerance="10"
     guidetolerance="10"
     inkscape:pageopacity="0"
     inkscape:pageshadow="2"
     inkscape:window-width="1366"
     inkscape:window-height="741"
     id="namedview14"
     showgrid="false"
     inkscape:zoom="0.9102234"
     inkscape:cx="-9.8876862"
     inkscape:cy="129.6385"
     inkscape:window-x="0"
     inkscape:window-y="27"
     inkscape:window-maximized="1"
     inkscape:current-layer="svg12" />
  <path
     inkscape:connector-curvature="0"
     id="path2"
     d="m 191.337,66.272 c -0.251,-3.305 -3.142,-5.777 -6.438,-5.527 -3.304,0.252 -5.778,3.134 -5.526,6.438 l 0.166,2.177 -168.2,57.566 c -1.071,-2.08 -3.315,-3.426 -5.793,-3.24 -3.304,0.252 -5.778,3.135 -5.526,6.438 l 1.956,25.674 c 0.239,3.149 2.869,5.545 5.976,5.545 0.153,0 0.308,-0.006 0.463,-0.018 2.451,-0.187 4.442,-1.823 5.206,-4.003 l 17.723,3.385 c 0.782,20.01 17.296,36.05 37.494,36.05 14.85,0 28.351,-8.886 34.319,-22.336 l 85.633,16.354 0.17,2.229 c 0.239,3.149 2.869,5.545 5.976,5.545 0.153,0 0.308,-0.006 0.463,-0.018 3.304,-0.252 5.778,-3.134 5.526,-6.438 z M 68.835,184.758 c -12.78,0 -23.395,-9.439 -25.244,-21.711 l 47.293,9.032 c -4.522,7.722 -12.906,12.679 -22.049,12.679 z M 13.187,145.024 12.738,139.13 180.48,81.721 l 7.363,96.658 z" />
  <path
     inkscape:connector-curvature="0"
     id="path4"
     d="m 224.6,133.031 29.134,-2.219 c 3.304,-0.251 5.778,-3.134 5.526,-6.438 -0.251,-3.305 -3.139,-5.784 -6.438,-5.527 l -29.134,2.219 c -3.304,0.251 -5.778,3.134 -5.526,6.438 0.239,3.149 2.869,5.545 5.976,5.545 0.152,0 0.306,-0.006 0.462,-0.018 z" />
  <path
     inkscape:connector-curvature="0"
     id="path6"
     d="M 224.917,95.431 248.125,78.4 c 2.672,-1.96 3.248,-5.716 1.287,-8.387 -1.959,-2.671 -5.716,-3.247 -8.387,-1.288 l -23.208,17.031 c -2.672,1.96 -3.248,5.716 -1.287,8.387 1.175,1.602 2.996,2.451 4.842,2.451 1.233,0 2.476,-0.379 3.545,-1.163 z" />
  <path
     inkscape:connector-curvature="0"
     id="path8"
     d="m 255.218,171.504 -25.521,-13.318 c -2.938,-1.532 -6.563,-0.394 -8.096,2.543 -1.533,2.937 -0.395,6.562 2.543,8.095 l 25.521,13.318 c 0.887,0.462 1.836,0.682 2.771,0.682 2.164,0 4.254,-1.174 5.324,-3.226 1.534,-2.936 0.395,-6.561 -2.542,-8.094 z" />
  <path
     style="fill:#58d5e8;fill-rule:evenodd;stroke:none;stroke-width:1px;stroke-linecap:butt;stroke-linejoin:miter;stroke-opacity:1;fill-opacity:1"
     d="M 12.738,139.13 180.48,81.721 187.843,178.379 13.187,145.024"
     id="path828"
     inkscape:connector-curvature="0" />
  <path
     inkscape:connector-curvature="0"
     id="path817"
     d="M 12.738,139.13 180.48,81.721 182.34984,109.16522 13.187,145.024"
     style="fill:#199eb2;fill-opacity:1;fill-rule:evenodd;stroke:none;stroke-width:1px;stroke-linecap:butt;stroke-linejoin:miter;stroke-opacity:1"
     sodipodi:nodetypes="cccc" />
</svg>
