<?xml version="1.0" encoding="iso-8859-1"?>
<!-- Generator: Adobe Illustrator 19.1.0, SVG Export Plug-In . SVG Version: 6.00 Build 0)  -->
<svg version="1.1" id="Capa_1" xmlns="http://www.w3.org/2000/svg" xmlns:xlink="http://www.w3.org/1999/xlink" x="0px" y="0px"
	 viewBox="0 0 489.8 489.8" style="enable-background:new 0 0 489.8 489.8;" xml:space="preserve">
<g>
	<g>
		<path d="M287.4,392.1v23c-0.3,0-0.7,0.1-1,0.1H97.2c-0.4,0-0.7-0.1-1-0.1V74.9c0.3,0,0.7-0.1,1-0.1h189.3c0.3,0,0.6,0.1,0.9,0.1
			v22.8c7.3-0.9,14.7-1.4,22.2-1.4c8.9,0,17.6,0.7,26.1,1.9V71V54.9c0-30.2-23.9-54.9-53.1-54.9H101C71.8,0,47.9,24.7,47.9,54.9V71
			v354.2v9.7c0,30.2,23.9,54.9,53.1,54.9h181.5c29.2,0,53.1-24.7,53.1-54.9v-9.7v-33.5c-8.5,1.2-17.2,1.9-26.1,1.9
			C302.1,393.5,294.7,393,287.4,392.1z M214.7,466.8h-51.2c-7.6,0-13.8-6.4-13.8-14.3c0-7.8,6.2-14.3,13.8-14.3h51.2
			c7.6,0,13.8,6.4,13.8,14.3C228.5,460.3,222.2,466.8,214.7,466.8z"/>
		<path d="M309.6,128.9c-73.1,0-132.3,51.9-132.3,116c0,27.6,11,53,29.4,72.9c-3.4,9.2-9.6,19.6-20.9,27c-2.8,1.9-2,6.2,1.4,6.6
			c11.7,1.6,31.9,2,50.5-9.2c20.7,11.8,45.4,18.6,71.9,18.6c73.1,0,132.3-51.9,132.3-116S382.7,128.9,309.6,128.9z M307.7,181.7
			c8.1,0,14.7,6.6,14.7,14.7c0,8.1-6.6,14.7-14.7,14.7s-14.7-6.6-14.7-14.7C293,188.3,299.6,181.7,307.7,181.7z M329.8,301.5h-7.4
			h-25.6h-7.4v-19.7h7.4v-39.9h-7.3v-19.7h7.3h22h3.7v59.6h7.4v19.7H329.8z"/>
	</g>
</g>
<g>
</g>
<g>
</g>
<g>
</g>
<g>
</g>
<g>
</g>
<g>
</g>
<g>
</g>
<g>
</g>
<g>
</g>
<g>
</g>
<g>
</g>
<g>
</g>
<g>
</g>
<g>
</g>
<g>
</g>
</svg>
