<?xml version="1.0" encoding="UTF-8" standalone="no"?>
<!-- Generator: Adobe Illustrator 16.0.0, SVG Export Plug-In . SVG Version: 6.00 Build 0)  -->

<svg
   xmlns:dc="http://purl.org/dc/elements/1.1/"
   xmlns:cc="http://creativecommons.org/ns#"
   xmlns:rdf="http://www.w3.org/1999/02/22-rdf-syntax-ns#"
   xmlns:svg="http://www.w3.org/2000/svg"
   xmlns="http://www.w3.org/2000/svg"
   xmlns:sodipodi="http://sodipodi.sourceforge.net/DTD/sodipodi-0.dtd"
   xmlns:inkscape="http://www.inkscape.org/namespaces/inkscape"
   version="1.1"
   id="Capa_1"
   x="0px"
   y="0px"
   width="32px"
   height="32px"
   viewBox="0 0 32 32"
   style="enable-background:new 0 0 32 32;"
   xml:space="preserve"
   sodipodi:docname="thumbsdown_full.svg"
   inkscape:version="0.92.3 (2405546, 2018-03-11)"><metadata
   id="metadata41"><rdf:RDF><cc:Work
       rdf:about=""><dc:format>image/svg+xml</dc:format><dc:type
         rdf:resource="http://purl.org/dc/dcmitype/StillImage" /></cc:Work></rdf:RDF></metadata><defs
   id="defs39" /><sodipodi:namedview
   pagecolor="#ffffff"
   bordercolor="#666666"
   borderopacity="1"
   objecttolerance="10"
   gridtolerance="10"
   guidetolerance="10"
   inkscape:pageopacity="0"
   inkscape:pageshadow="2"
   inkscape:window-width="1366"
   inkscape:window-height="741"
   id="namedview37"
   showgrid="false"
   inkscape:zoom="7.375"
   inkscape:cx="16"
   inkscape:cy="16"
   inkscape:window-x="0"
   inkscape:window-y="27"
   inkscape:window-maximized="1"
   inkscape:current-layer="Capa_1" />
<g
   transform="matrix(1,0,0,-1,0,32)"
   id="g850"
   style="fill:#ffffff">
	<path
   inkscape:connector-curvature="0"
   id="path848"
   d="m 30.262,15.637 c -1.039,-0.989 -2.473,-1.23 -3.739,-1.439 -0.199,-0.034 -0.396,-0.067 -0.589,-0.102 -0.143,-0.038 -0.325,-0.079 -0.51,-0.123 -1.688,-0.392 -2.881,-0.775 -2.885,-2.157 -0.004,-0.91 0.297,-1.752 0.613,-2.646 0.363,-1.023 0.739,-2.083 0.68,-3.316 C 23.717,3.656 22.785,1.744 21.334,0.736 20.756,0.274 19.996,0 19.271,0 18.194,0 17.39,0.586 17.063,1.606 c -0.23,0.688 -0.191,1.357 -0.15,2.065 0.008,0.174 0.021,0.353 0.025,0.539 0.041,0.975 -0.076,1.781 -0.361,2.542 -0.54,1.521 -1.623,2.938 -2.507,4.006 l -0.483,0.607 c -0.676,0.853 -1.374,1.735 -2.168,2.443 -0.39,0.308 -0.806,0.42 -1.341,0.535 -0.151,0.01 -9.345,0.101 -9.345,0.101 v 13.512 c 0,0 7.211,-0.009 7.616,-0.033 0.356,-0.021 0.699,-0.041 1.013,-0.041 h 0.146 c 0.297,0.063 0.597,0.095 0.91,0.13 0.278,0.029 0.566,0.061 0.868,0.118 0.339,0.065 0.69,0.396 1.03,0.718 0.196,0.186 0.389,0.364 0.58,0.5 0.195,0.137 0.383,0.274 0.576,0.414 0.589,0.428 1.2,0.874 1.892,1.184 0.854,0.367 1.797,0.488 2.711,0.605 0.444,0.059 0.885,0.112 1.307,0.197 0.276,0.031 0.514,0.059 0.754,0.086 0.714,0.08 1.454,0.166 2.196,0.166 0.5,0 0.941,-0.04 1.349,-0.121 1.461,-0.415 2.391,-1.6 2.392,-2.96 0.742,-0.296 1.406,-0.916 1.826,-1.71 0.375,-0.71 0.501,-1.47 0.365,-2.143 1.41,-0.922 2.139,-2.652 1.746,-4.137 0.623,-0.429 1.053,-1.146 1.201,-2.02 0.207,-1.209 -0.166,-2.494 -0.949,-3.272 z"
   sodipodi:nodetypes="ccccccccscccccccccccsccccccccccsccccccc"
   style="fill:#ffffff" />
</g><g
   id="g4"
   transform="matrix(1,0,0,-1,0,32)"
   style="fill:#bf360c;fill-opacity:1;opacity:0.8">
	<path
   d="m 30.262,15.637 c -1.039,-0.989 -2.473,-1.23 -3.739,-1.439 -0.199,-0.034 -0.396,-0.067 -0.589,-0.102 -0.143,-0.038 -0.325,-0.079 -0.51,-0.123 -1.688,-0.392 -2.881,-0.775 -2.885,-2.157 -0.004,-0.91 0.297,-1.752 0.613,-2.646 0.363,-1.023 0.739,-2.083 0.68,-3.316 C 23.717,3.656 22.785,1.744 21.334,0.736 20.756,0.274 19.996,0 19.271,0 18.194,0 17.39,0.586 17.063,1.606 c -0.23,0.688 -0.191,1.357 -0.15,2.065 0.008,0.174 0.021,0.353 0.025,0.539 0.041,0.975 -0.076,1.781 -0.361,2.542 -0.54,1.521 -1.623,2.938 -2.507,4.006 l -0.483,0.607 c -0.676,0.853 -1.374,1.735 -2.168,2.443 -0.39,0.308 -0.806,0.42 -1.341,0.535 -0.151,0.01 -9.345,0.101 -9.345,0.101 v 13.512 c 0,0 7.211,-0.009 7.616,-0.033 0.356,-0.021 0.699,-0.041 1.013,-0.041 h 0.146 c 0.297,0.063 0.597,0.095 0.91,0.13 0.278,0.029 0.566,0.061 0.868,0.118 0.339,0.065 0.69,0.396 1.03,0.718 0.196,0.186 0.389,0.364 0.58,0.5 0.195,0.137 0.383,0.274 0.576,0.414 0.589,0.428 1.2,0.874 1.892,1.184 0.854,0.367 1.797,0.488 2.711,0.605 0.444,0.059 0.885,0.112 1.307,0.197 0.276,0.031 0.514,0.059 0.754,0.086 0.714,0.08 1.454,0.166 2.196,0.166 0.5,0 0.941,-0.04 1.349,-0.121 1.461,-0.415 2.391,-1.6 2.392,-2.96 0.742,-0.296 1.406,-0.916 1.826,-1.71 0.375,-0.71 0.501,-1.47 0.365,-2.143 1.41,-0.922 2.139,-2.652 1.746,-4.137 0.623,-0.429 1.053,-1.146 1.201,-2.02 0.207,-1.209 -0.166,-2.494 -0.949,-3.272 z m -0.952,2.707 c -0.048,0.416 -0.238,0.93 -0.871,1.045 -0.341,0.098 -0.569,0.297 -0.679,0.575 -0.133,0.337 -0.084,0.759 0.135,1.12 0.229,0.271 0.265,0.84 0.129,1.335 -0.186,0.588 -0.615,1.005 -1.279,1.229 -0.283,0.035 -0.537,0.232 -0.676,0.531 -0.158,0.342 -0.123,0.711 0.094,0.967 0.188,0.27 0.152,0.877 -0.106,1.377 -0.206,0.395 -0.499,0.632 -0.784,0.632 -0.04,0 -0.08,-0.005 -0.121,-0.015 L 25.107,27.131 H 25.06 c -0.349,0 -0.804,0.152 -1.028,0.501 -0.148,0.229 -0.169,0.506 -0.057,0.764 0.139,0.373 0.124,0.799 -0.049,1.084 -0.125,0.209 -0.324,0.33 -0.594,0.365 -0.478,0.127 -0.953,0.127 -1.414,0.127 -1.371,-0.123 -2.826,-0.256 -4.231,-0.509 l -0.67,-0.151 C 16.669,29.234 16.325,29.159 16.019,29.082 15.516,28.834 14.953,28.409 14.41,27.997 14.229,27.861 14.053,27.726 13.879,27.601 13.752,27.5 13.614,27.37 13.474,27.238 13.116,26.902 12.715,26.523 12.215,26.385 11.745,26.095 11.244,26.095 10.838,26.095 9.528,25.974 8.91,25.5 8.591,24.353 8.277,23.197 8.266,21.876 8.284,20.732 l 0.004,-0.256 c 0.01,-1.078 0.027,-2.427 0.58,-3.406 0.275,-0.467 0.823,-0.566 1.458,-0.688 0.878,-0.143 1.569,-0.432 2.215,-0.928 0.091,-0.033 0.186,-0.101 0.256,-0.229 0.263,-0.18 0.478,-0.443 0.674,-0.68 1.04,-1.128 1.996,-2.306 2.748,-3.388 0.175,-0.26 0.351,-0.51 0.524,-0.758 0.799,-1.142 1.627,-2.323 1.979,-3.778 0.25,-1.071 0.226,-1.998 0.17,-3.097 L 18.884,3.36 C 18.841,2.691 18.831,1.971 19.208,1.918 19.234,1.914 19.266,1.91 19.296,1.91 c 0.612,0 1.385,0.772 1.844,1.487 0.479,0.908 0.729,1.859 0.703,2.72 -0.025,0.894 -0.316,1.74 -0.625,2.637 -0.364,1.059 -0.741,2.156 -0.654,3.349 0.125,1.625 1.415,3.03 3.21,3.496 0.524,0.136 1.081,0.227 1.618,0.314 1.002,0.163 2.037,0.332 2.883,0.806 0.551,0.277 1.139,0.86 1.035,1.625 z"
   id="path2"
   inkscape:connector-curvature="0"
   style="fill:#bf360c;fill-opacity:1" />
</g>
<g
   id="g6">
</g>
<g
   id="g8">
</g>
<g
   id="g10">
</g>
<g
   id="g12">
</g>
<g
   id="g14">
</g>
<g
   id="g16">
</g>
<g
   id="g18">
</g>
<g
   id="g20">
</g>
<g
   id="g22">
</g>
<g
   id="g24">
</g>
<g
   id="g26">
</g>
<g
   id="g28">
</g>
<g
   id="g30">
</g>
<g
   id="g32">
</g>
<g
   id="g34">
</g>
</svg>