<?xml version="1.0" encoding="iso-8859-1"?>
<!-- Generator: Adobe Illustrator 18.1.1, SVG Export Plug-In . SVG Version: 6.00 Build 0)  -->
<svg version="1.1" id="Capa_1" xmlns="http://www.w3.org/2000/svg" xmlns:xlink="http://www.w3.org/1999/xlink" x="0px" y="0px"
	 viewBox="0 0 437.849 437.849" style="enable-background:new 0 0 437.849 437.849;" xml:space="preserve">
<g>
	<g>
		<path style="fill:#010002;" d="M394.854,205.444c9.218-15.461,19.102-30.181,14.258-49.527
			c-2.951-11.632-10.965-21.126-23.882-28.255c3.26-7.982,7.421-22.76,2.008-37.27c-4.893-13.054-16.298-21.663-28.881-26.686
			c-2.78-16.826-10.323-33.823-23.613-44.935C292.987-16.133,183.129,5.367,138.43,21.437C96.934,36.369,69.053,41.198,24.89,41.198
			c0,63.444,0,127.334,0,190.761l61.525,0.122c29.336,18.175,52.641,43.992,81.286,63.354
			c16.981,11.518,51.218,33.62,63.045,119.238c1.439,10.461,5.154,17.55,11.9,21.02c8.714,4.511,19.143,1.211,27.011-3.219
			c57.615-32.327,1.975-88.536,21.947-132.569c17.168-37.822,53.25-15.054,84.789-22.476c30.425-7.169,36.684-23.459,36.562-35.855
			C412.843,226.163,402.511,211.451,394.854,205.444z"/>
	</g>
</g>
<g>
</g>
<g>
</g>
<g>
</g>
<g>
</g>
<g>
</g>
<g>
</g>
<g>
</g>
<g>
</g>
<g>
</g>
<g>
</g>
<g>
</g>
<g>
</g>
<g>
</g>
<g>
</g>
<g>
</g>
</svg>
