<?xml version="1.0" encoding="UTF-8" standalone="no"?>
<!-- Generator: Adobe Illustrator 16.0.0, SVG Export Plug-In . SVG Version: 6.00 Build 0)  -->

<svg
   xmlns:dc="http://purl.org/dc/elements/1.1/"
   xmlns:cc="http://creativecommons.org/ns#"
   xmlns:rdf="http://www.w3.org/1999/02/22-rdf-syntax-ns#"
   xmlns:svg="http://www.w3.org/2000/svg"
   xmlns="http://www.w3.org/2000/svg"
   xmlns:sodipodi="http://sodipodi.sourceforge.net/DTD/sodipodi-0.dtd"
   xmlns:inkscape="http://www.inkscape.org/namespaces/inkscape"
   version="1.1"
   id="Capa_1"
   x="0px"
   y="0px"
   width="36.289px"
   height="36.289px"
   viewBox="0 0 36.289 36.289"
   style="enable-background:new 0 0 36.289 36.289;"
   xml:space="preserve"
   sodipodi:docname="thumbsdown_full.svg"
   inkscape:version="0.92.3 (2405546, 2018-03-11)"><metadata
   id="metadata41"><rdf:RDF><cc:Work
       rdf:about=""><dc:format>image/svg+xml</dc:format><dc:type
         rdf:resource="http://purl.org/dc/dcmitype/StillImage" /><dc:title></dc:title></cc:Work></rdf:RDF></metadata><defs
   id="defs39" /><sodipodi:namedview
   pagecolor="#ffffff"
   bordercolor="#666666"
   borderopacity="1"
   objecttolerance="1"
   gridtolerance="1"
   guidetolerance="1"
   inkscape:pageopacity="0"
   inkscape:pageshadow="2"
   inkscape:window-width="1366"
   inkscape:window-height="741"
   id="namedview37"
   showgrid="false"
   inkscape:zoom="6.5033479"
   inkscape:cx="43.592932"
   inkscape:cy="18.144501"
   inkscape:window-x="0"
   inkscape:window-y="27"
   inkscape:window-maximized="1"
   inkscape:current-layer="Capa_1" />
<g
   transform="rotate(-180,18.14404,18.1445)"
   id="g856"
   style="fill:#ffffff">
	<path
   inkscape:connector-curvature="0"
   id="path854"
   d="m 32.854,17.724 c -1.304,-1.255 -3.146,-1.399 -4.419,-1.399 -0.654,0 -1.287,0.045 -1.884,0.089 -0.046,0 -0.136,-0.026 -0.214,-0.053 -0.125,-0.038 -0.275,-0.084 -0.445,-0.093 -0.606,-0.131 -1.078,-0.258 -1.52,-0.607 -0.902,-0.803 -1.693,-1.804 -2.459,-2.771 l -0.55,-0.688 C 20.361,10.991 19.133,9.385 18.52,7.658 18.197,6.795 18.065,5.881 18.111,4.776 18.117,4.565 18.131,4.362 18.141,4.164 18.187,3.361 18.231,2.603 17.969,1.823 17.599,0.664 16.687,0 15.466,0 14.644,0 13.781,0.312 13.125,0.833 11.48,1.977 10.423,4.145 10.293,6.639 c -0.067,1.398 0.359,2.6 0.771,3.761 0.359,1.013 0.699,1.967 0.695,3 -0.004,1.566 -1.357,2.002 -3.271,2.446 -0.209,0.049 -0.416,0.097 -0.578,0.139 -0.219,0.04 -0.442,0.077 -0.668,0.115 -1.436,0.238 -3.062,0.511 -4.24,1.633 -0.889,0.883 -1.312,2.34 -1.077,3.713 0.169,0.99 0.657,1.805 1.362,2.289 -0.444,1.684 0.381,3.646 1.981,4.693 -0.153,0.762 -0.01,1.623 0.414,2.428 0.476,0.9 1.229,1.604 2.071,1.939 0.002,1.543 1.055,2.887 2.713,3.355 0.461,0.094 0.961,0.139 1.529,0.139 0.84,0 1.68,-0.098 2.492,-0.189 0.272,-0.031 0.541,-0.061 0.854,-0.096 0.479,-0.098 0.979,-0.16 1.482,-0.225 1.037,-0.133 2.106,-0.27 3.075,-0.688 0.785,-0.35 1.479,-0.855 2.146,-1.342 0.218,-0.158 0.432,-0.314 0.652,-0.469 0.216,-0.154 0.435,-0.357 0.657,-0.568 0.386,-0.363 0.783,-0.738 1.168,-0.812 0.343,-0.066 0.669,-0.102 0.985,-0.135 0.354,-0.039 0.695,-0.076 1.031,-0.146 h 0.166 c 0.354,0 0.743,0.021 1.147,0.047 0.459,0.027 0.937,0.057 1.41,0.057 1.165,0 2.625,-0.148 3.566,-1.307 1.387,-1.646 1.586,-4.154 1.596,-6.617 v -0.107 c 0.023,-1.807 0.038,-4.54 -1.568,-5.968 z m -0.677,5.592 -0.002,0.48 c 0.009,1.885 -0.109,3.809 -1.029,5.143 -0.309,0.473 -0.927,0.508 -1.768,0.508 h -0.09 c 0.475,-0.965 0.659,-2.088 0.773,-3.107 0.197,-1.855 0.177,-3.67 -0.062,-5.395 -0.103,-0.756 -0.261,-1.582 -0.621,-2.315 0.682,0.075 1.382,0.263 1.916,0.718 0.912,0.759 0.894,2.691 0.883,3.968 z"
   sodipodi:nodetypes="csccccccccccsccccccccccccccsccccccccccscscccccccscccccc"
   style="fill:#ffffff" />
</g><rect
   style="color:#000000;clip-rule:nonzero;display:inline;overflow:visible;visibility:visible;opacity:1;isolation:auto;mix-blend-mode:normal;color-interpolation:sRGB;color-interpolation-filters:linearRGB;solid-color:#000000;solid-opacity:1;fill:#bf360c;fill-opacity:1;fill-rule:nonzero;stroke:none;stroke-width:2;stroke-linecap:round;stroke-linejoin:miter;stroke-miterlimit:4;stroke-dasharray:none;stroke-dashoffset:0;stroke-opacity:1;color-rendering:auto;image-rendering:auto;shape-rendering:auto;text-rendering:auto;enable-background:accumulate"
   id="rect850"
   width="3.2196732"
   height="11.200788"
   x="3.690407"
   y="6.4582119"
   rx="0"
   ry="0" /><g
   id="g4"
   transform="rotate(-180,18.14404,18.1445)">
	<path
   d="m 32.854,17.724 c -1.304,-1.255 -3.146,-1.399 -4.419,-1.399 -0.654,0 -1.287,0.045 -1.884,0.089 -0.046,0 -0.136,-0.026 -0.214,-0.053 -0.125,-0.038 -0.275,-0.084 -0.445,-0.093 -0.606,-0.131 -1.078,-0.258 -1.52,-0.607 -0.902,-0.803 -1.693,-1.804 -2.459,-2.771 l -0.55,-0.688 C 20.361,10.991 19.133,9.385 18.52,7.658 18.197,6.795 18.065,5.881 18.111,4.776 18.117,4.565 18.131,4.362 18.141,4.164 18.187,3.361 18.231,2.603 17.969,1.823 17.599,0.664 16.687,0 15.466,0 14.644,0 13.781,0.312 13.125,0.833 11.48,1.977 10.423,4.145 10.293,6.639 c -0.067,1.398 0.359,2.6 0.771,3.761 0.359,1.013 0.699,1.967 0.695,3 -0.004,1.566 -1.357,2.002 -3.271,2.446 -0.209,0.049 -0.416,0.097 -0.578,0.139 -0.219,0.04 -0.442,0.077 -0.668,0.115 -1.436,0.238 -3.062,0.511 -4.24,1.633 -0.889,0.883 -1.312,2.34 -1.077,3.713 0.169,0.99 0.657,1.805 1.362,2.289 -0.444,1.684 0.381,3.646 1.981,4.693 -0.153,0.762 -0.01,1.623 0.414,2.428 0.476,0.9 1.229,1.604 2.071,1.939 0.002,1.543 1.055,2.887 2.713,3.355 0.461,0.094 0.961,0.139 1.529,0.139 0.84,0 1.68,-0.098 2.492,-0.189 0.272,-0.031 0.541,-0.061 0.854,-0.096 0.479,-0.098 0.979,-0.16 1.482,-0.225 1.037,-0.133 2.106,-0.27 3.075,-0.688 0.785,-0.35 1.479,-0.855 2.146,-1.342 0.218,-0.158 0.432,-0.314 0.652,-0.469 0.216,-0.154 0.435,-0.357 0.657,-0.568 0.386,-0.363 0.783,-0.738 1.168,-0.812 0.343,-0.066 0.669,-0.102 0.985,-0.135 0.354,-0.039 0.695,-0.076 1.031,-0.146 h 0.166 c 0.354,0 0.743,0.021 1.147,0.047 0.459,0.027 0.937,0.057 1.41,0.057 1.165,0 2.625,-0.148 3.566,-1.307 1.387,-1.646 1.586,-4.154 1.596,-6.617 v -0.107 c 0.023,-1.807 0.038,-4.54 -1.568,-5.968 z m -5.277,9.893 c -0.36,1.303 -1.062,1.84 -2.548,1.977 -0.461,0 -1.028,0 -1.562,0.328 -0.566,0.156 -1.021,0.586 -1.428,0.967 -0.158,0.15 -0.314,0.299 -0.459,0.412 -0.197,0.143 -0.397,0.295 -0.603,0.449 -0.615,0.467 -1.254,0.949 -1.824,1.229 -0.347,0.088 -0.738,0.174 -1.132,0.264 l -0.76,0.172 c -1.593,0.287 -3.244,0.438 -4.798,0.576 -0.522,0 -1.062,0 -1.604,-0.145 C 10.553,33.807 10.328,33.668 10.186,33.432 9.99,33.108 9.972,32.625 10.13,32.203 10.258,31.912 10.234,31.596 10.066,31.338 9.81,30.942 9.295,30.77 8.9,30.77 H 8.848 L 8.797,30.78 C 8.75,30.792 8.705,30.796 8.66,30.796 8.337,30.796 8.005,30.526 7.771,30.079 7.477,29.511 7.437,28.823 7.65,28.518 7.896,28.229 7.936,27.809 7.757,27.422 7.599,27.082 7.312,26.86 6.991,26.818 6.237,26.562 5.749,26.089 5.54,25.423 5.386,24.861 5.427,24.218 5.686,23.909 5.933,23.499 5.99,23.02 5.839,22.638 5.714,22.324 5.456,22.095 5.069,21.986 4.351,21.855 4.136,21.273 4.081,20.8 3.964,19.933 4.629,19.273 5.255,18.96 6.214,18.423 7.388,18.231 8.525,18.045 9.134,17.945 9.763,17.844 10.359,17.69 12.396,17.161 13.859,15.568 14,13.726 14.099,12.372 13.671,11.127 13.259,9.928 12.908,8.91 12.578,7.95 12.55,6.938 12.521,5.961 12.804,4.883 13.347,3.853 c 0.52,-0.812 1.395,-1.686 2.09,-1.686 0.035,0 0.071,0.003 0.1,0.008 0.429,0.062 0.416,0.877 0.369,1.636 l -0.011,0.188 c -0.063,1.247 -0.09,2.297 0.193,3.513 0.399,1.65 1.338,2.989 2.243,4.284 0.197,0.282 0.396,0.565 0.596,0.86 0.852,1.227 1.936,2.562 3.115,3.842 0.222,0.269 0.467,0.566 0.764,0.771 0.08,0.146 0.187,0.222 0.29,0.259 0.733,0.563 1.517,0.89 2.512,1.052 0.721,0.137 1.341,0.251 1.654,0.778 0.627,1.111 0.646,2.641 0.659,3.863 l 0.003,0.291 c 0.021,1.299 0.009,2.795 -0.347,4.105 z m 4.6,-4.301 -0.002,0.48 c 0.009,1.885 -0.109,3.809 -1.029,5.143 -0.309,0.473 -0.927,0.508 -1.768,0.508 h -0.09 c 0.475,-0.965 0.659,-2.088 0.773,-3.107 0.197,-1.855 0.177,-3.67 -0.062,-5.395 -0.103,-0.756 -0.261,-1.582 -0.621,-2.315 0.682,0.075 1.382,0.263 1.916,0.718 0.912,0.759 0.894,2.691 0.883,3.968 z"
   id="path2"
   inkscape:connector-curvature="0" />
</g>
<g
   id="g6">
</g>
<g
   id="g8">
</g>
<g
   id="g10">
</g>
<g
   id="g12">
</g>
<g
   id="g14">
</g>
<g
   id="g16">
</g>
<g
   id="g18">
</g>
<g
   id="g20">
</g>
<g
   id="g22">
</g>
<g
   id="g24">
</g>
<g
   id="g26">
</g>
<g
   id="g28">
</g>
<g
   id="g30">
</g>
<g
   id="g32">
</g>
<g
   id="g34">
</g>
</svg>