<?xml version="1.0" encoding="UTF-8" standalone="no"?>
<!-- Generator: Adobe Illustrator 16.0.0, SVG Export Plug-In . SVG Version: 6.00 Build 0)  -->

<svg
   xmlns:dc="http://purl.org/dc/elements/1.1/"
   xmlns:cc="http://creativecommons.org/ns#"
   xmlns:rdf="http://www.w3.org/1999/02/22-rdf-syntax-ns#"
   xmlns:svg="http://www.w3.org/2000/svg"
   xmlns="http://www.w3.org/2000/svg"
   xmlns:sodipodi="http://sodipodi.sourceforge.net/DTD/sodipodi-0.dtd"
   xmlns:inkscape="http://www.inkscape.org/namespaces/inkscape"
   version="1.1"
   id="Capa_1"
   x="0px"
   y="0px"
   width="36.289"
   height="36.289"
   viewBox="0 0 36.289 36.289"
   style="enable-background:new 0 0 36.289 36.289;"
   xml:space="preserve"
   sodipodi:docname="thumbsdown_full.svg"
   inkscape:version="0.92.3 (2405546, 2018-03-11)"><metadata
   id="metadata41"><rdf:RDF><cc:Work
       rdf:about=""><dc:format>image/svg+xml</dc:format><dc:type
         rdf:resource="http://purl.org/dc/dcmitype/StillImage" /><dc:title /></cc:Work></rdf:RDF></metadata><defs
   id="defs39" /><sodipodi:namedview
   pagecolor="#ffffff"
   bordercolor="#666666"
   borderopacity="1"
   objecttolerance="1"
   gridtolerance="1"
   guidetolerance="1"
   inkscape:pageopacity="0"
   inkscape:pageshadow="2"
   inkscape:window-width="1366"
   inkscape:window-height="741"
   id="namedview37"
   showgrid="false"
   inkscape:zoom="36.788491"
   inkscape:cx="0.13297426"
   inkscape:cy="26.948583"
   inkscape:window-x="0"
   inkscape:window-y="27"
   inkscape:window-maximized="1"
   inkscape:current-layer="Capa_1"
   inkscape:pagecheckerboard="true" />
<g
   transform="rotate(-180,18.14404,18.1445)"
   id="g856"
   style="fill:#ffffff">
	<path
   sodipodi:type="inkscape:offset"
   inkscape:radius="-0.96277344"
   inkscape:original="M 15.466797 0 C 14.644797 0 13.781 0.31103125 13.125 0.83203125 C 11.48 1.9760313 10.422969 4.1446719 10.292969 6.6386719 C 10.225969 8.0366719 10.652453 9.2393906 11.064453 10.400391 C 11.423453 11.413391 11.763766 12.367391 11.759766 13.400391 C 11.755766 14.966391 10.402281 15.401703 8.4882812 15.845703 C 8.2792813 15.894703 8.0721562 15.942375 7.9101562 15.984375 C 7.6911562 16.024375 7.4681875 16.061609 7.2421875 16.099609 C 5.8061875 16.337609 4.1799531 16.610422 3.0019531 17.732422 C 2.1129531 18.615422 1.6907812 20.072312 1.9257812 21.445312 C 2.0947813 22.435312 2.5821094 23.250375 3.2871094 23.734375 C 2.8431094 25.418375 3.6675781 27.380734 5.2675781 28.427734 C 5.1145781 29.189734 5.2576406 30.050469 5.6816406 30.855469 C 6.1576406 31.755469 6.9119063 32.459922 7.7539062 32.794922 C 7.7559062 34.337922 8.8087969 35.682391 10.466797 36.150391 C 10.927797 36.244391 11.426141 36.289062 11.994141 36.289062 C 12.834141 36.289062 13.674328 36.190609 14.486328 36.099609 C 14.758328 36.068609 15.028797 36.038906 15.341797 36.003906 C 15.820797 35.905906 16.319266 35.844297 16.822266 35.779297 C 17.859266 35.646297 18.929438 35.509797 19.898438 35.091797 C 20.683438 34.741797 21.377922 34.235047 22.044922 33.748047 C 22.262922 33.590047 22.475313 33.434297 22.695312 33.279297 C 22.911313 33.125297 23.131516 32.923891 23.353516 32.712891 C 23.739516 32.349891 24.136484 31.974391 24.521484 31.900391 C 24.864484 31.834391 25.189859 31.798625 25.505859 31.765625 C 25.859859 31.726625 26.201109 31.689141 26.537109 31.619141 L 26.703125 31.619141 C 27.057125 31.619141 27.445609 31.640016 27.849609 31.666016 C 28.308609 31.693016 28.786766 31.722656 29.259766 31.722656 C 30.424766 31.722656 31.885172 31.575016 32.826172 30.416016 C 34.213172 28.770016 34.411875 26.261828 34.421875 23.798828 L 34.421875 23.691406 C 34.444875 21.884406 34.459516 19.152609 32.853516 17.724609 C 31.549516 16.469609 29.708547 16.324219 28.435547 16.324219 C 27.781547 16.324219 27.147781 16.370063 26.550781 16.414062 C 26.504781 16.414062 26.415891 16.388328 26.337891 16.361328 C 26.212891 16.323328 26.062578 16.276578 25.892578 16.267578 C 25.286578 16.136578 24.813094 16.009156 24.371094 15.660156 C 23.469094 14.857156 22.678109 13.857625 21.912109 12.890625 L 21.363281 12.201172 C 20.361281 10.990172 19.132531 9.3852031 18.519531 7.6582031 C 18.196531 6.7952031 18.065328 5.8803906 18.111328 4.7753906 C 18.117328 4.5643906 18.130625 4.3620625 18.140625 4.1640625 C 18.186625 3.3610625 18.23075 2.6022656 17.96875 1.8222656 C 17.59875 0.66326563 16.687797 -2.9605947e-16 15.466797 0 z M 29.378906 18.630859 C 30.060906 18.705859 30.760922 18.892656 31.294922 19.347656 C 32.206922 20.106656 32.188734 22.039406 32.177734 23.316406 L 32.175781 23.796875 C 32.184781 25.681875 32.066484 27.605453 31.146484 28.939453 C 30.837484 29.412453 30.219906 29.447266 29.378906 29.447266 L 29.287109 29.447266 C 29.762109 28.482266 29.946547 27.358844 30.060547 26.339844 C 30.257547 24.484844 30.237047 22.670312 29.998047 20.945312 C 29.895047 20.189312 29.738906 19.363859 29.378906 18.630859 z "
   style="fill:#ffffff"
   id="path854"
   d="m 15.466797,0.96289062 c -0.579135,0 -1.262376,0.24197658 -1.742188,0.62304688 a 0.96286972,0.96286972 0 0 1 -0.05078,0.037109 c -1.334672,0.9281855 -2.301574,2.8122683 -2.419922,5.0625 -3.1e-5,6.482e-4 3.1e-5,0.0013 0,0.00195 -3.6e-5,6.836e-4 3.6e-5,0.00127 0,0.00195 -0.0554,1.1749317 0.307257,2.229099 0.71875,3.3886719 0.358582,1.011821 0.754828,2.07943 0.75,3.326172 -0.0035,1.059296 -0.599216,1.975057 -1.373047,2.457031 -0.774317,0.482277 -1.6687244,0.695512 -2.6445309,0.921875 -0.2100173,0.04923 -0.4133256,0.09667 -0.5527343,0.132813 a 0.96286972,0.96286972 0 0 1 -0.068359,0.01563 c -0.2287397,0.04178 -0.4563388,0.07931 -0.6816406,0.117187 a 0.96286972,0.96286972 0 0 1 -0.00195,0 C 5.9690737,17.286052 4.5878947,17.559932 3.6738281,18.425781 3.0568191,19.044998 2.6921768,20.215049 2.875,21.283203 3.0070892,22.05698 3.3721509,22.625687 3.8320312,22.941406 A 0.96286972,0.96286972 0 0 1 4.21875,23.980469 c -0.3220847,1.2216 0.310586,2.81441 1.5761719,3.642578 a 0.96286972,0.96286972 0 0 1 0.4160156,0.994141 c -0.1026501,0.511237 -0.011478,1.155422 0.3222656,1.789062 0.3765535,0.711971 0.9814353,1.257517 1.5761719,1.494141 a 0.96286972,0.96286972 0 0 1 0.6074219,0.892578 c 0.00142,1.097761 0.7113564,2.046144 1.9902341,2.417969 0.3755,0.07321 0.788488,0.115234 1.28711,0.115234 0.764148,0 1.568162,-0.09229 2.382812,-0.183594 0.274598,-0.0313 0.545511,-0.06083 0.857422,-0.0957 0.499482,-0.0978 0.993044,-0.161688 1.464844,-0.222656 1.036083,-0.132883 2.01278,-0.272119 2.814453,-0.617188 9.39e-4,-4.21e-4 0.003,4.22e-4 0.0039,0 0.658281,-0.295429 1.295877,-0.75217 1.958984,-1.236328 a 0.96286972,0.96286972 0 0 1 0.0039,-0.002 c 0.213721,-0.154899 0.428233,-0.311925 0.65625,-0.472656 l 0.0039,-0.0039 c 0.144432,-0.103493 0.337116,-0.275341 0.548828,-0.476563 a 0.96286972,0.96286972 0 0 1 0.0039,-0.0039 c 0.384595,-0.361679 0.789095,-0.891844 1.646485,-1.056641 0.388458,-0.07475 0.742307,-0.113237 1.060547,-0.146484 0.354198,-0.03902 0.663692,-0.07536 0.939453,-0.132813 a 0.96286972,0.96286972 0 0 1 0.197265,-0.01953 h 0.166016 c 0.389953,0 0.79464,0.02257 1.203125,0.04883 0.461105,0.02712 0.920736,0.05469 1.353516,0.05469 1.083658,0 2.159385,-0.139535 2.818359,-0.951172 a 0.96286972,0.96286972 0 0 1 0.01172,-0.01367 c 1.105012,-1.311356 1.359068,-3.583751 1.36914,-5.996094 v -0.0039 -0.103516 a 0.96286972,0.96286972 0 0 1 0,-0.01172 c 0.02291,-1.799852 -0.09792,-4.215408 -1.246093,-5.236329 a 0.96286972,0.96286972 0 0 1 -0.02734,-0.02539 c -1.004559,-0.966811 -2.550306,-1.13086 -3.75,-1.13086 -0.609008,0 -1.218375,0.04396 -1.814453,0.08789 a 0.96286972,0.96286972 0 0 1 -0.07031,0.002 c -0.405072,0 -0.414376,-0.06636 -0.527343,-0.105469 l 0.03516,0.01172 c -0.129744,-0.03944 -0.192647,-0.05341 -0.216797,-0.05469 a 0.96286972,0.96286972 0 0 1 -0.152344,-0.01953 C 25.05866,17.072625 24.390395,16.901618 23.775391,16.416016 a 0.96286972,0.96286972 0 0 1 -0.04492,-0.03711 c -0.989202,-0.88063 -1.806714,-1.922229 -2.572266,-2.888672 v -0.002 l -0.537109,-0.673828 -0.01172,-0.01367 C 19.590958,11.569305 18.30169,9.9111805 17.617188,7.9902344 17.24777,7.0008577 17.098963,5.9375057 17.148438,4.7382812 c 5.8e-5,-0.00141 -5.9e-5,-0.00249 0,-0.00391 0.0068,-0.2278925 0.02196,-0.4351348 0.03125,-0.6191406 a 0.96286972,0.96286972 0 0 1 0,-0.00586 c 0.04603,-0.8035227 0.06855,-1.4100595 -0.123047,-1.9804688 a 0.96286972,0.96286972 0 0 1 -0.0059,-0.013672 C 16.787651,1.2909964 16.339135,0.96289063 15.466797,0.96289062 Z M 29.353516,17.667969 a 0.96286972,0.96286972 0 0 1 0.130859,0.0059 c 0.781032,0.08589 1.678022,0.302171 2.427734,0.9375 0.764401,0.638394 0.999745,1.545116 1.123047,2.386719 0.123496,0.842921 0.110966,1.688059 0.105469,2.326172 l -0.002,0.476562 c 0.009,1.921444 -0.05953,4.017673 -1.19336,5.671875 -0.309907,0.467708 -0.826029,0.735041 -1.269531,0.835938 -0.446346,0.101544 -0.86309,0.101562 -1.296875,0.101562 h -0.0918 a 0.96286972,0.96286972 0 0 1 -0.863281,-1.388672 c 0.387859,-0.787965 0.569751,-1.806387 0.679688,-2.789062 0.188605,-1.780333 0.168579,-3.514661 -0.05859,-5.154297 a 0.96286972,0.96286972 0 0 1 0,-0.002 c -0.09809,-0.719926 -0.246818,-1.446327 -0.529297,-2.021484 a 0.96286972,0.96286972 0 0 1 0.837891,-1.386719 z" />
</g><rect
   style="color:#000000;clip-rule:nonzero;display:inline;overflow:visible;visibility:visible;opacity:1;isolation:auto;mix-blend-mode:normal;color-interpolation:sRGB;color-interpolation-filters:linearRGB;solid-color:#000000;solid-opacity:1;fill:#bf360c;fill-opacity:1;fill-rule:nonzero;stroke:none;stroke-width:2;stroke-linecap:round;stroke-linejoin:miter;stroke-miterlimit:4;stroke-dasharray:none;stroke-dashoffset:0;stroke-opacity:1;color-rendering:auto;image-rendering:auto;shape-rendering:auto;text-rendering:auto;enable-background:accumulate"
   id="rect850"
   width="3.2196732"
   height="11.200788"
   x="3.690407"
   y="6.4582119"
   rx="0"
   ry="0" /><g
   id="g4"
   transform="rotate(-180,18.14404,18.1445)">
	<path
   d="m 32.854,17.724 c -1.304,-1.255 -3.146,-1.399 -4.419,-1.399 -0.654,0 -1.287,0.045 -1.884,0.089 -0.046,0 -0.136,-0.026 -0.214,-0.053 -0.125,-0.038 -0.275,-0.084 -0.445,-0.093 -0.606,-0.131 -1.078,-0.258 -1.52,-0.607 -0.902,-0.803 -1.693,-1.804 -2.459,-2.771 l -0.55,-0.688 C 20.361,10.991 19.133,9.385 18.52,7.658 18.197,6.795 18.065,5.881 18.111,4.776 18.117,4.565 18.131,4.362 18.141,4.164 18.187,3.361 18.231,2.603 17.969,1.823 17.599,0.664 16.687,0 15.466,0 14.644,0 13.781,0.312 13.125,0.833 11.48,1.977 10.423,4.145 10.293,6.639 c -0.067,1.398 0.359,2.6 0.771,3.761 0.359,1.013 0.699,1.967 0.695,3 -0.004,1.566 -1.357,2.002 -3.271,2.446 -0.209,0.049 -0.416,0.097 -0.578,0.139 -0.219,0.04 -0.442,0.077 -0.668,0.115 -1.436,0.238 -3.062,0.511 -4.24,1.633 -0.889,0.883 -1.312,2.34 -1.077,3.713 0.169,0.99 0.657,1.805 1.362,2.289 -0.444,1.684 0.381,3.646 1.981,4.693 -0.153,0.762 -0.01,1.623 0.414,2.428 0.476,0.9 1.229,1.604 2.071,1.939 0.002,1.543 1.055,2.887 2.713,3.355 0.461,0.094 0.961,0.139 1.529,0.139 0.84,0 1.68,-0.098 2.492,-0.189 0.272,-0.031 0.541,-0.061 0.854,-0.096 0.479,-0.098 0.979,-0.16 1.482,-0.225 1.037,-0.133 2.106,-0.27 3.075,-0.688 0.785,-0.35 1.479,-0.855 2.146,-1.342 0.218,-0.158 0.432,-0.314 0.652,-0.469 0.216,-0.154 0.435,-0.357 0.657,-0.568 0.386,-0.363 0.783,-0.738 1.168,-0.812 0.343,-0.066 0.669,-0.102 0.985,-0.135 0.354,-0.039 0.695,-0.076 1.031,-0.146 h 0.166 c 0.354,0 0.743,0.021 1.147,0.047 0.459,0.027 0.937,0.057 1.41,0.057 1.165,0 2.625,-0.148 3.566,-1.307 1.387,-1.646 1.586,-4.154 1.596,-6.617 v -0.107 c 0.023,-1.807 0.038,-4.54 -1.568,-5.968 z m -5.277,9.893 c -0.36,1.303 -1.062,1.84 -2.548,1.977 -0.461,0 -1.028,0 -1.562,0.328 -0.566,0.156 -1.021,0.586 -1.428,0.967 -0.158,0.15 -0.314,0.299 -0.459,0.412 -0.197,0.143 -0.397,0.295 -0.603,0.449 -0.615,0.467 -1.254,0.949 -1.824,1.229 -0.347,0.088 -0.738,0.174 -1.132,0.264 l -0.76,0.172 c -1.593,0.287 -3.244,0.438 -4.798,0.576 -0.522,0 -1.062,0 -1.604,-0.145 C 10.553,33.807 10.328,33.668 10.186,33.432 9.99,33.108 9.972,32.625 10.13,32.203 10.258,31.912 10.234,31.596 10.066,31.338 9.81,30.942 9.295,30.77 8.9,30.77 H 8.848 L 8.797,30.78 C 8.75,30.792 8.705,30.796 8.66,30.796 8.337,30.796 8.005,30.526 7.771,30.079 7.477,29.511 7.437,28.823 7.65,28.518 7.896,28.229 7.936,27.809 7.757,27.422 7.599,27.082 7.312,26.86 6.991,26.818 6.237,26.562 5.749,26.089 5.54,25.423 5.386,24.861 5.427,24.218 5.686,23.909 5.933,23.499 5.99,23.02 5.839,22.638 5.714,22.324 5.456,22.095 5.069,21.986 4.351,21.855 4.136,21.273 4.081,20.8 3.964,19.933 4.629,19.273 5.255,18.96 6.214,18.423 7.388,18.231 8.525,18.045 9.134,17.945 9.763,17.844 10.359,17.69 12.396,17.161 13.859,15.568 14,13.726 14.099,12.372 13.671,11.127 13.259,9.928 12.908,8.91 12.578,7.95 12.55,6.938 12.521,5.961 12.804,4.883 13.347,3.853 c 0.52,-0.812 1.395,-1.686 2.09,-1.686 0.035,0 0.071,0.003 0.1,0.008 0.429,0.062 0.416,0.877 0.369,1.636 l -0.011,0.188 c -0.063,1.247 -0.09,2.297 0.193,3.513 0.399,1.65 1.338,2.989 2.243,4.284 0.197,0.282 0.396,0.565 0.596,0.86 0.852,1.227 1.936,2.562 3.115,3.842 0.222,0.269 0.467,0.566 0.764,0.771 0.08,0.146 0.187,0.222 0.29,0.259 0.733,0.563 1.517,0.89 2.512,1.052 0.721,0.137 1.341,0.251 1.654,0.778 0.627,1.111 0.646,2.641 0.659,3.863 l 0.003,0.291 c 0.021,1.299 0.009,2.795 -0.347,4.105 z m 4.6,-4.301 -0.002,0.48 c 0.009,1.885 -0.109,3.809 -1.029,5.143 -0.309,0.473 -0.927,0.508 -1.768,0.508 h -0.09 c 0.475,-0.965 0.659,-2.088 0.773,-3.107 0.197,-1.855 0.177,-3.67 -0.062,-5.395 -0.103,-0.756 -0.261,-1.582 -0.621,-2.315 0.682,0.075 1.382,0.263 1.916,0.718 0.912,0.759 0.894,2.691 0.883,3.968 z"
   id="path2"
   inkscape:connector-curvature="0" />
</g>
<g
   id="g6">
</g>
<g
   id="g8">
</g>
<g
   id="g10">
</g>
<g
   id="g12">
</g>
<g
   id="g14">
</g>
<g
   id="g16">
</g>
<g
   id="g18">
</g>
<g
   id="g20">
</g>
<g
   id="g22">
</g>
<g
   id="g24">
</g>
<g
   id="g26">
</g>
<g
   id="g28">
</g>
<g
   id="g30">
</g>
<g
   id="g32">
</g>
<g
   id="g34">
</g>
<rect
   style="color:#000000;clip-rule:nonzero;display:inline;overflow:visible;visibility:visible;opacity:1;isolation:auto;mix-blend-mode:normal;color-interpolation:sRGB;color-interpolation-filters:linearRGB;solid-color:#000000;solid-opacity:1;fill:#000000;fill-opacity:1;fill-rule:nonzero;stroke:none;stroke-width:1.86189866;stroke-linecap:round;stroke-linejoin:miter;stroke-miterlimit:4;stroke-dasharray:none;stroke-dashoffset:0;stroke-opacity:1;color-rendering:auto;image-rendering:auto;shape-rendering:auto;text-rendering:auto;enable-background:accumulate"
   id="rect836"
   width="6.3044453"
   height="1.9989702"
   x="0.30753392"
   y="4.613009"
   rx="0.99948519"
   ry="0.86622036" /><rect
   ry="0.86622036"
   rx="1.2920175"
   y="17.99794"
   x="0.30753392"
   height="1.9989702"
   width="8.1496487"
   id="rect838"
   style="color:#000000;clip-rule:nonzero;display:inline;overflow:visible;visibility:visible;opacity:1;isolation:auto;mix-blend-mode:normal;color-interpolation:sRGB;color-interpolation-filters:linearRGB;solid-color:#000000;solid-opacity:1;fill:#000000;fill-opacity:1;fill-rule:nonzero;stroke:none;stroke-width:2.11690831;stroke-linecap:round;stroke-linejoin:miter;stroke-miterlimit:4;stroke-dasharray:none;stroke-dashoffset:0;stroke-opacity:1;color-rendering:auto;image-rendering:auto;shape-rendering:auto;text-rendering:auto;enable-background:accumulate" /><path
   style="color:#000000;clip-rule:nonzero;display:inline;overflow:visible;visibility:visible;opacity:0.4;isolation:auto;mix-blend-mode:normal;color-interpolation:sRGB;color-interpolation-filters:linearRGB;solid-color:#000000;solid-opacity:1;fill:#000000;fill-opacity:0;fill-rule:nonzero;stroke:none;stroke-width:2;stroke-linecap:round;stroke-linejoin:miter;stroke-miterlimit:4;stroke-dasharray:none;stroke-dashoffset:0;stroke-opacity:1;color-rendering:auto;image-rendering:auto;shape-rendering:auto;text-rendering:auto;enable-background:accumulate"
   d="M 0.97536618,4.9205427 H 2.7150407 c 0.3699791,0 0.6678323,0.2978532 0.6678323,0.6678323 v 13.272198 c 0,0.369979 -0.2978532,0.667832 -0.6678323,0.667832 H 0.97536618 c -0.36997907,0 -0.66783226,-0.297853 -0.66783226,-0.667832 0,0 -0.24464173,-4.422563 -0.24464173,-6.636099 0,-2.213536 0.24464173,-6.636099 0.24464173,-6.636099 0.0136301,-0.3697279 0.29785319,-0.6678323 0.66783226,-0.6678323 z"
   id="rect835"
   inkscape:connector-curvature="0"
   sodipodi:nodetypes="sssssssass" /></svg>