<svg xmlns="http://www.w3.org/2000/svg" xmlns:svg="http://www.w3.org/2000/svg" id="Capa_1" width="36.289" height="36.289" x="0" style="enable-background:new 0 0 36.289 36.289" y="0" version="1.1" viewBox="0 0 36.289 36.289" xml:space="preserve"><metadata id="metadata41"/><path style="fill:#000;fill-opacity:1;opacity:.4" id="path2" d="M 24.292969 0 C 23.452969 0 22.612781 0.09845313 21.800781 0.18945312 C 21.528781 0.22045312 21.260266 0.25015625 20.947266 0.28515625 C 20.468266 0.38315625 19.967844 0.44476563 19.464844 0.50976562 C 18.427844 0.64276563 17.359625 0.77926565 16.390625 1.1972656 C 15.605625 1.5472656 14.911141 2.0520625 14.244141 2.5390625 C 14.026141 2.6970625 13.811797 2.8547656 13.591797 3.0097656 C 13.375797 3.1637656 13.157547 3.3651719 12.935547 3.5761719 C 12.549547 3.9391719 12.152578 4.3146719 11.767578 4.3886719 C 11.424578 4.4546719 11.09725 4.4904375 10.78125 4.5234375 C 10.42725 4.5624375 10.087953 4.5999219 9.7519531 4.6699219 L 9.5859375 4.6699219 C 9.2319375 4.6699219 8.8415 4.6490469 8.4375 4.6230469 C 7.9785 4.5960469 7.5003437 4.5664062 7.0273438 4.5664062 C 6.6571151 4.5664062 6.2572047 4.5986586 5.8535156 4.65625 C 5.774319 4.6388639 5.6988862 4.6132812 5.6132812 4.6132812 L 1.3066406 4.6132812 C 0.75292587 4.6132812 0.30664063 4.9986296 0.30664062 5.4785156 L 0.30664062 5.7460938 C 0.30664064 6.2259798 0.75292587 6.6113281 1.3066406 6.6113281 L 2.9550781 6.6113281 C 2.0288471 8.2197229 1.8738436 10.369794 1.8652344 12.490234 L 1.8652344 12.597656 C 1.8449843 14.18861 1.834653 16.494337 2.9277344 17.998047 L 1.5996094 17.998047 C 0.88383169 17.998047 0.30664062 18.383395 0.30664062 18.863281 L 0.30664062 19.130859 C 0.30664062 19.610745 0.88383168 19.996094 1.5996094 19.996094 L 7.1660156 19.996094 C 7.2880688 19.996094 7.3979922 19.972187 7.5097656 19.951172 C 7.6215474 19.953675 7.7488261 19.964844 7.8535156 19.964844 C 8.5075156 19.964844 9.1393281 19.919 9.7363281 19.875 C 9.7823281 19.875 9.8731719 19.900734 9.9511719 19.927734 C 10.076172 19.965734 10.226484 20.012484 10.396484 20.021484 C 11.002484 20.152484 11.474016 20.279906 11.916016 20.628906 C 12.818016 21.431906 13.609 22.431438 14.375 23.398438 L 14.925781 24.087891 C 15.927781 25.298891 17.154578 26.903859 17.767578 28.630859 C 18.090578 29.493859 18.223734 30.408672 18.177734 31.513672 C 18.171734 31.724672 18.156484 31.927 18.146484 32.125 C 18.100484 32.928 18.056359 33.686797 18.318359 34.466797 C 18.688359 35.625797 19.601266 36.289063 20.822266 36.289062 C 21.644266 36.289062 22.506109 35.976078 23.162109 35.455078 C 24.807109 34.311078 25.864141 32.144391 25.994141 29.650391 C 26.061141 28.252391 25.636609 27.049672 25.224609 25.888672 C 24.865609 24.875672 24.525297 23.921672 24.529297 22.888672 C 24.533297 21.322672 25.886781 20.887359 27.800781 20.443359 C 28.009781 20.394359 28.216906 20.346687 28.378906 20.304688 C 28.597906 20.264688 28.820875 20.227453 29.046875 20.189453 C 30.482875 19.951453 32.107156 19.678641 33.285156 18.556641 C 34.174156 17.673641 34.598281 16.21675 34.363281 14.84375 C 34.194281 13.85375 33.706953 13.038687 33.001953 12.554688 C 33.445953 10.870687 32.619531 8.9083281 31.019531 7.8613281 C 31.172531 7.0993281 31.029469 6.2385936 30.605469 5.4335938 C 30.129469 4.5335937 29.377156 3.8291406 28.535156 3.4941406 C 28.533156 1.9511406 27.480266 0.60667188 25.822266 0.13867188 C 25.361266 0.04467187 24.860969 1.8503717e-17 24.292969 0 z M 23.824219 2.2988281 C 24.346219 2.2988281 24.887688 2.2983594 25.429688 2.4433594 C 25.735688 2.4823594 25.959563 2.6214219 26.101562 2.8574219 C 26.297563 3.1814219 26.316203 3.6639375 26.158203 4.0859375 C 26.030203 4.3769375 26.054656 4.6931719 26.222656 4.9511719 C 26.478656 5.3471719 26.993672 5.5195312 27.388672 5.5195312 L 27.439453 5.5195312 L 27.490234 5.5097656 C 27.537234 5.4977656 27.583906 5.4921875 27.628906 5.4921875 C 27.951906 5.4921875 28.283578 5.7639375 28.517578 6.2109375 C 28.811578 6.7789375 28.851672 7.4664844 28.638672 7.7714844 C 28.392672 8.0604844 28.35225 8.4801875 28.53125 8.8671875 C 28.68925 9.2071875 28.975875 9.4287031 29.296875 9.4707031 C 30.050875 9.7267031 30.539047 10.199234 30.748047 10.865234 C 30.902047 11.427234 30.860562 12.071859 30.601562 12.380859 C 30.354563 12.790859 30.298219 13.268391 30.449219 13.650391 C 30.574219 13.964391 30.83175 14.193734 31.21875 14.302734 C 31.93675 14.433734 32.152031 15.015281 32.207031 15.488281 C 32.324031 16.355281 31.659203 17.015125 31.033203 17.328125 C 30.074203 17.865125 28.900672 18.058141 27.763672 18.244141 C 27.154672 18.344141 26.525688 18.445609 25.929688 18.599609 C 23.892688 19.128609 22.428109 20.7205 22.287109 22.5625 C 22.188109 23.9165 22.617297 25.162328 23.029297 26.361328 C 23.380297 27.379328 23.710281 28.339563 23.738281 29.351562 C 23.767281 30.328563 23.484406 31.405547 22.941406 32.435547 C 22.421406 33.247547 21.546562 34.121094 20.851562 34.121094 C 20.816562 34.121094 20.780953 34.118281 20.751953 34.113281 C 20.322953 34.051281 20.335814 33.237516 20.382812 32.478516 L 20.392578 32.289062 C 20.455578 31.042063 20.482219 29.993344 20.199219 28.777344 C 19.800219 27.127344 18.862031 25.787188 17.957031 24.492188 C 17.760031 24.210187 17.561328 23.927814 17.361328 23.632812 C 16.509328 22.405812 15.425094 21.071016 14.246094 19.791016 C 14.024094 19.522016 13.779422 19.224531 13.482422 19.019531 C 13.402422 18.873531 13.294406 18.798719 13.191406 18.761719 C 12.458406 18.198719 11.674686 17.870984 10.679688 17.708984 C 9.958687 17.571984 9.3383906 17.458641 9.0253906 16.931641 C 8.3983906 15.820641 8.3801875 14.290359 8.3671875 13.068359 L 8.3632812 12.777344 C 8.3422813 11.478344 8.3549375 9.981875 8.7109375 8.671875 C 9.0709375 7.368875 9.7737652 6.8323125 11.259766 6.6953125 C 11.720766 6.6953125 12.286313 6.6951875 12.820312 6.3671875 C 13.386313 6.2111875 13.843 5.7813906 14.25 5.4003906 C 14.408 5.2503906 14.563984 5.1012814 14.708984 4.9882812 C 14.905984 4.8452813 15.104547 4.6930625 15.310547 4.5390625 C 15.925547 4.0720625 16.564766 3.5905469 17.134766 3.3105469 C 17.481766 3.2225469 17.873578 3.136875 18.267578 3.046875 L 19.027344 2.8730469 C 20.620344 2.5860469 22.270219 2.4368281 23.824219 2.2988281 z M 6.9101562 6.8417969 L 7 6.8417969 C 6.525 7.8067969 6.3405625 8.9302186 6.2265625 9.9492188 C 6.0295625 11.804219 6.0500625 13.61875 6.2890625 15.34375 C 6.3920625 16.09975 6.5501564 16.925203 6.9101562 17.658203 C 6.2281562 17.583203 5.5281406 17.396406 4.9941406 16.941406 C 4.0821406 16.182406 4.1003281 14.249656 4.1113281 12.972656 L 4.1132812 12.492188 C 4.1042812 10.607188 4.2225781 8.6836094 5.1425781 7.3496094 C 5.4515781 6.8766094 6.0691562 6.8417969 6.9101562 6.8417969 z"/></svg>