<svg xmlns="http://www.w3.org/2000/svg" xmlns:svg="http://www.w3.org/2000/svg" id="Layer_1" width="297" height="297" x="0" style="enable-background:new 0 0 297 297" y="0" version="1.1" viewBox="0 0 297 297" xml:space="preserve"><metadata id="metadata46"/><path style="fill:#959595;fill-opacity:1" id="path2" d="M 221.74,94.57 207.98,259.6 c -0.79,9.51 -8.88,16.95 -18.42,16.95 h -82.12 c -9.53,0 -17.63,-7.44 -18.42,-16.95 L 75.27,94.57 Z"/><path style="fill:#5b5b5b;fill-opacity:1" id="path4" d="m 239.49,65.69 v 8.43 H 57.51 v -8.43 c 0,-6.32 5.14,-11.47 11.47,-11.47 h 159.05 c 6.32,0 11.46,5.15 11.46,11.47 z"/><path id="path6" d="m 259.94,65.69 v 18.66 c 0,5.64 -4.58,10.22 -10.22,10.22 h -7.46 l -13.9,166.73 c -1.67,20.02 -18.71,35.7 -38.8,35.7 H 107.44 C 87.36,297 70.31,281.32 68.64,261.3 L 54.75,94.57 h -7.46 c -5.65,0 -10.23,-4.58 -10.23,-10.22 V 65.69 c 0,-17.6 14.32,-31.91 31.92,-31.91 h 35.56 V 29.05 C 104.54,13.03 117.57,0 133.59,0 h 29.82 c 16.02,0 29.06,13.03 29.06,29.05 v 4.73 h 35.56 c 17.6,0 31.91,14.31 31.91,31.91 z m -20.45,8.43 v -8.43 c 0,-6.32 -5.14,-11.47 -11.46,-11.47 H 68.98 c -6.33,0 -11.47,5.15 -11.47,11.47 v 8.43 z M 207.98,259.6 221.74,94.57 H 75.27 L 89.02,259.6 c 0.79,9.51 8.89,16.95 18.42,16.95 h 82.12 c 9.54,0 17.63,-7.44 18.42,-16.95 z M 172.02,33.78 v -4.73 c 0,-4.74 -3.86,-8.6 -8.61,-8.6 h -29.82 c -4.74,0 -8.6,3.86 -8.6,8.6 v 4.73 z"/><rect style="color:#000;clip-rule:nonzero;display:inline;overflow:visible;visibility:visible;opacity:1;isolation:auto;mix-blend-mode:normal;color-interpolation:sRGB;color-interpolation-filters:linearRGB;solid-color:#000;solid-opacity:1;fill:#000;fill-opacity:1;fill-rule:nonzero;stroke:none;stroke-width:1;stroke-linecap:round;stroke-linejoin:miter;stroke-miterlimit:4;stroke-dasharray:none;stroke-dashoffset:0;stroke-opacity:.93010751;color-rendering:auto;image-rendering:auto;shape-rendering:auto;text-rendering:auto;enable-background:accumulate" id="rect860" width="17.619" height="123.331" x="81.387" y="129.326" rx="8.809" ry="8.809" transform="rotate(-5.6306826)"/><rect id="rect862" width="17.619" height="123.331" x="196.562" y="100.186" rx="8.809" ry="8.809" transform="rotate(5.6306826)" style="color:#000;clip-rule:nonzero;display:inline;overflow:visible;visibility:visible;opacity:1;isolation:auto;mix-blend-mode:normal;color-interpolation:sRGB;color-interpolation-filters:linearRGB;solid-color:#000;solid-opacity:1;fill:#000;fill-opacity:1;fill-rule:nonzero;stroke:none;stroke-width:1;stroke-linecap:round;stroke-linejoin:miter;stroke-miterlimit:4;stroke-dasharray:none;stroke-dashoffset:0;stroke-opacity:.93010751;color-rendering:auto;image-rendering:auto;shape-rendering:auto;text-rendering:auto;enable-background:accumulate"/><rect style="color:#000;clip-rule:nonzero;display:inline;overflow:visible;visibility:visible;opacity:1;isolation:auto;mix-blend-mode:normal;color-interpolation:sRGB;color-interpolation-filters:linearRGB;solid-color:#000;solid-opacity:1;fill:#000;fill-opacity:1;fill-rule:nonzero;stroke:none;stroke-width:1;stroke-linecap:round;stroke-linejoin:miter;stroke-miterlimit:4;stroke-dasharray:none;stroke-dashoffset:0;stroke-opacity:.93010751;color-rendering:auto;image-rendering:auto;shape-rendering:auto;text-rendering:auto;enable-background:accumulate" id="rect864" width="17.619" height="123.331" x="139.691" y="119.555" rx="8.809" ry="8.809"/></svg>