<svg xmlns="http://www.w3.org/2000/svg" xmlns:svg="http://www.w3.org/2000/svg" id="Layer_1" width="297" height="297" x="0" style="enable-background:new 0 0 297 297" y="0" version="1.1" viewBox="0 0 297 297" xml:space="preserve"><metadata id="metadata46"/><path id="path6" d="M 133.58984 0 C 117.56984 2.3684758e-15 104.53906 13.030781 104.53906 29.050781 L 104.53906 33.779297 L 68.980469 33.779297 C 51.380469 33.779297 37.060547 48.089453 37.060547 65.689453 L 37.060547 84.349609 C 37.060547 89.989609 41.639063 94.570312 47.289062 94.570312 L 54.75 94.570312 L 68.640625 261.30078 C 70.310625 281.32078 87.359453 297 107.43945 297 L 189.56055 297 C 209.65055 297 226.68938 281.32078 228.35938 261.30078 L 242.25977 94.570312 L 249.7207 94.570312 C 255.3607 94.570312 259.93945 89.989609 259.93945 84.349609 L 259.93945 65.689453 C 259.93945 48.089453 245.6293 33.779297 228.0293 33.779297 L 192.4707 33.779297 L 192.4707 29.050781 C 192.4707 13.030781 179.43016 0 163.41016 0 L 133.58984 0 z M 133.58984 20.449219 L 163.41016 20.449219 C 168.16016 20.449219 172.01953 24.310781 172.01953 29.050781 L 172.01953 33.779297 L 124.99023 33.779297 L 124.99023 29.050781 C 124.99023 24.310781 128.84984 20.449219 133.58984 20.449219 z M 68.980469 54.220703 L 228.0293 54.220703 C 234.3493 54.220703 239.49023 59.369453 239.49023 65.689453 L 239.49023 74.119141 L 57.509766 74.119141 L 57.509766 65.689453 C 57.509766 59.369453 62.650469 54.220703 68.980469 54.220703 z M 75.269531 94.570312 L 221.74023 94.570312 L 207.98047 259.59961 C 207.19047 269.10961 199.10055 276.55078 189.56055 276.55078 L 107.43945 276.55078 C 97.909453 276.55078 89.809531 269.10961 89.019531 259.59961 L 75.269531 94.570312 z M 148.5 119.55469 C 143.61964 119.55469 139.69141 123.48487 139.69141 128.36523 L 139.69141 234.07617 C 139.69141 238.95654 143.61964 242.88477 148.5 242.88477 C 153.38036 242.88477 157.30859 238.95654 157.30859 234.07617 L 157.30859 128.36523 C 157.30859 123.48487 153.38036 119.55469 148.5 119.55469 z M 103.35352 119.80859 C 103.05514 119.8079 102.75277 119.82359 102.44922 119.85352 C 97.592402 120.33236 94.068034 124.62756 94.546875 129.48438 L 104.91992 234.68555 C 105.39876 239.54236 109.69396 243.06673 114.55078 242.58789 C 119.4076 242.10905 122.93197 237.81385 122.45312 232.95703 L 112.08008 127.75586 C 111.63116 123.20259 107.82908 119.81904 103.35352 119.80859 z M 193.64648 119.80859 C 189.17092 119.81904 185.36884 123.20259 184.91992 127.75586 L 174.54688 232.95703 C 174.06803 237.81385 177.5924 242.10905 182.44922 242.58789 C 187.30604 243.06673 191.60124 239.54236 192.08008 234.68555 L 202.45312 129.48438 C 202.93197 124.62756 199.4076 120.33236 194.55078 119.85352 C 194.24723 119.82359 193.94486 119.8079 193.64648 119.80859 z" style="fill:#363636;fill-opacity:1;opacity:.4"/></svg>