<?xml version="1.0" encoding="iso-8859-1"?>
<!-- Generator: Adobe Illustrator 19.0.0, SVG Export Plug-In . SVG Version: 6.00 Build 0)  -->
<svg version="1.1" id="Layer_1" xmlns="http://www.w3.org/2000/svg" xmlns:xlink="http://www.w3.org/1999/xlink" x="0px" y="0px"
	 viewBox="0 0 512 512" width="512" height="512" style="enable-background:new 0 0 512 512;" xml:space="preserve">
<g>
	<g>
		<path d="M477.867,42.667H315.733V8.533C315.733,3.814,311.91,0,307.2,0H204.8c-4.71,0-8.533,3.814-8.533,8.533v34.133H34.133
			c-4.71,0-8.533,3.814-8.533,8.533v59.733c0,4.719,3.823,8.533,8.533,8.533h17.604l25.079,384.555
			c0.299,4.489,4.019,7.979,8.516,7.979h341.333c4.497,0,8.226-3.49,8.516-7.979l25.079-384.555h17.604
			c4.719,0,8.533-3.814,8.533-8.533V51.2C486.4,46.481,482.586,42.667,477.867,42.667z M213.333,17.067h85.333v25.6h-85.333V17.067z
			 M418.671,494.933H93.329L68.838,119.467h374.315L418.671,494.933z M469.333,102.4H42.667V59.733h426.667V102.4z"/>
	</g>
</g>
<g>
	<g>
		<path d="M256,187.733c-4.71,0-8.533,3.814-8.533,8.533v221.867c0,4.719,3.823,8.533,8.533,8.533c4.71,0,8.533-3.814,8.533-8.533
			V196.267C264.533,191.548,260.71,187.733,256,187.733z"/>
	</g>
</g>
<g>
	<g>
		<path d="M162.133,187.733c-4.71,0-8.533,3.814-8.533,8.533v221.867c0,4.719,3.823,8.533,8.533,8.533
			c4.71,0,8.533-3.814,8.533-8.533V196.267C170.667,191.548,166.844,187.733,162.133,187.733z"/>
	</g>
</g>
<g>
	<g>
		<path d="M349.867,187.733c-4.71,0-8.533,3.814-8.533,8.533v221.867c0,4.719,3.823,8.533,8.533,8.533s8.533-3.814,8.533-8.533
			V196.267C358.4,191.548,354.577,187.733,349.867,187.733z"/>
	</g>
</g>
<g>
</g>
<g>
</g>
<g>
</g>
<g>
</g>
<g>
</g>
<g>
</g>
<g>
</g>
<g>
</g>
<g>
</g>
<g>
</g>
<g>
</g>
<g>
</g>
<g>
</g>
<g>
</g>
<g>
</g>
</svg>
