<svg xmlns="http://www.w3.org/2000/svg" xmlns:svg="http://www.w3.org/2000/svg" id="svg8" width="77.221" height="92.142" x="0" y="0" version="1.1" viewBox="0 0 77.221 92.142" xml:space="preserve"><metadata id="metadata14"/><path id="path2" d="m 6.144,87.741 c 0,2.427 1.975,4.401 4.403,4.401 2.426,0 4.4,-1.975 4.4,-4.401 0,-1.833 -1.127,-3.405 -2.723,-4.066 h 50.704 c -1.597,0.661 -2.724,2.233 -2.724,4.066 0,2.427 1.975,4.401 4.402,4.401 2.427,0 4.401,-1.975 4.401,-4.401 0,-1.833 -1.127,-3.405 -2.724,-4.066 h 8.868 V 78.038 H 61.417 L 60.391,65.052 63.063,53.876 68.139,39.747 64.834,25.978 65.869,24.649 72.694,32.58 77.221,30.492 76.13,16.85 71.43,0 68.303,5.185 c -1.057,0.039 -2.307,0.148 -3.67,0.386 L 63.77,1.246 62.299,1.539 63.162,5.875 c -1.321,0.31 -2.713,0.751 -4.118,1.366 l -1.962,-3.912 -1.341,0.673 1.95,3.887 c -1.234,0.644 -2.459,1.436 -3.636,2.406 l -2.868,-3.184 -1.114,1.004 2.859,3.174 c -1.001,0.956 -1.949,2.066 -2.825,3.336 l -3.601,-2.304 -0.809,1.264 3.598,2.302 c -0.706,1.182 -1.348,2.492 -1.91,3.944 l -4.012,-1.245 -0.444,1.433 3.952,1.226 c -0.44,1.333 -0.815,2.775 -1.114,4.335 l -3.752,-0.122 -0.049,1.499 3.54,0.115 c -0.182,1.184 -0.325,2.425 -0.418,3.739 H 21.19 L 15.357,29.144 6.542,36.264 4.859,56.78 h 8.34 l 1.214,8.233 -1.248,13.026 H 0 v 5.637 h 8.868 c -1.597,0.661 -2.724,2.233 -2.724,4.065 z m 7.303,0 c 0,1.6 -1.301,2.901 -2.9,2.901 -1.601,0 -2.903,-1.302 -2.903,-2.901 0,-1.6 1.302,-2.902 2.903,-2.902 1.599,0.001 2.9,1.302 2.9,2.902 z m 54.061,0 c 0,1.6 -1.302,2.901 -2.901,2.901 -1.601,0 -2.902,-1.302 -2.902,-2.901 0,-1.6 1.302,-2.902 2.902,-2.902 1.599,0.001 2.901,1.302 2.901,2.902 z m -54.7,-43.896 -1.484,0.219 1.654,11.216 H 6.487 l 1.498,-18.253 7.709,-6.227 5.186,1.482 25.619,0.029 0.041,-0.707 c 0.092,-1.596 0.259,-3.081 0.478,-4.483 l 4.872,0.158 0.049,-1.499 -4.661,-0.151 c 0.278,-1.415 0.618,-2.73 1.015,-3.946 l 4.556,1.413 0.444,-1.433 -4.498,-1.395 c 0.51,-1.32 1.09,-2.514 1.727,-3.596 l 4.01,2.565 0.809,-1.264 -4.018,-2.571 c 0.795,-1.159 1.662,-2.163 2.574,-3.043 l 3.196,3.548 1.114,-1.004 -3.193,-3.544 c 1.068,-0.877 2.185,-1.598 3.321,-2.188 l 2.133,4.254 1.341,-0.673 -2.118,-4.224 C 60.95,7.989 62.216,7.597 63.449,7.315 l 0.92,4.621 1.471,-0.293 -0.919,-4.619 C 66.28,6.799 67.577,6.697 68.749,6.673 l 0.413,-0.009 1.759,-2.916 3.72,13.293 1.001,12.526 -2.548,1.176 -7.282,-8.462 -2.604,3.344 3.369,14.035 -4.948,13.787 -2.75,11.486 1.035,13.104 H 49.828 L 51.082,64.954 48.673,52.872 H 27.686 l -3.968,12.029 1.038,13.136 H 14.672 L 15.924,64.973 Z M 26.261,78.039 25.238,65.085 28.772,54.374 h 18.671 l 2.125,10.659 -1.247,13.006 z M 1.5,79.539 h 72.152 v 2.637 H 1.5 Z" style="stroke:#000;stroke-opacity:1;opacity:.4"/></svg>