<?xml version="1.0" encoding="UTF-8" standalone="no"?>
<svg
   xmlns:dc="http://purl.org/dc/elements/1.1/"
   xmlns:cc="http://creativecommons.org/ns#"
   xmlns:rdf="http://www.w3.org/1999/02/22-rdf-syntax-ns#"
   xmlns:svg="http://www.w3.org/2000/svg"
   xmlns="http://www.w3.org/2000/svg"
   xmlns:sodipodi="http://sodipodi.sourceforge.net/DTD/sodipodi-0.dtd"
   xmlns:inkscape="http://www.inkscape.org/namespaces/inkscape"
   version="1.1"
   x="0px"
   y="0px"
   viewBox="0 0 75.283997 90"
   xml:space="preserve"
   id="svg14"
   sodipodi:docname="trojan_full.svg"
   width="75.283997"
   height="90.0"
   inkscape:version="0.92.3 (2405546, 2018-03-11)"><metadata
     id="metadata20"><rdf:RDF><cc:Work
         rdf:about=""><dc:format>image/svg+xml</dc:format><dc:type
           rdf:resource="http://purl.org/dc/dcmitype/StillImage" /><dc:title></dc:title></cc:Work></rdf:RDF></metadata><defs
     id="defs18" /><sodipodi:namedview
     pagecolor="#ffffff"
     bordercolor="#666666"
     borderopacity="1"
     objecttolerance="1"
     gridtolerance="1"
     guidetolerance="1"
     inkscape:pageopacity="0"
     inkscape:pageshadow="2"
     inkscape:window-width="1366"
     inkscape:window-height="741"
     id="namedview16"
     showgrid="false"
     fit-margin-top="0"
     fit-margin-left="0"
     fit-margin-right="0"
     fit-margin-bottom="0"
     inkscape:zoom="5.3400704"
     inkscape:cx="44.091946"
     inkscape:cy="45.087654"
     inkscape:window-x="0"
     inkscape:window-y="27"
     inkscape:window-maximized="1"
     inkscape:current-layer="svg14" /><g
     id="g8"
     transform="translate(-12.358,-5)"><circle
       cx="75.879997"
       cy="91.366997"
       r="3.6329999"
       id="circle2" /><circle
       cx="22.104"
       cy="91.366997"
       r="3.6329999"
       id="circle4" /><path
       d="M 70.933,68.74 73.642,57.429 78.616,43.583 75.297,29.754 77.107,27.43 84.123,35.584 87.642,33.96 86.598,20.908 82.413,5 c 0,0 -3.433,5.014 -3.983,5.058 -0.235,0.019 -0.476,0.041 -0.722,0.067 L 76.688,5 l -4.743,0.945 1.024,5.144 c -0.243,0.075 -0.487,0.155 -0.731,0.24 L 69.89,6.65 l -4.323,2.168 2.307,4.599 c -0.223,0.141 -0.444,0.287 -0.665,0.44 l -3.435,-3.814 -3.593,3.237 3.418,3.794 c -0.176,0.2 -0.351,0.402 -0.523,0.613 l -4.3,-2.751 -2.606,4.074 4.293,2.746 c -0.119,0.237 -0.234,0.483 -0.348,0.73 l -4.859,-1.507 -1.434,4.619 4.649,1.442 c -0.076,0.278 -0.144,0.567 -0.214,0.855 l -4.794,-0.156 -0.157,4.834 4.106,0.133 C 57.309,33.6 57.22,34.517 57.165,35.481 H 32.587 L 27.056,33.9 18.837,40.539 17.255,59.821 h 8.228 l 1.219,8.917 -1.315,13.722 H 12.358 v 4.115 H 85.623 V 82.46 H 72.017 Z M 37.046,82.462 35.962,68.74 39.693,57.429 h 19.724 l 2.255,11.311 -1.315,13.722 z"
       id="path6"
       inkscape:connector-curvature="0" /></g><g
     transform="translate(-12.358,-5)"
     id="g821"
     style="fill:#bf360c;fill-opacity:1"><circle
       id="circle815"
       r="3.6329999"
       cy="91.366997"
       cx="75.879997"
       style="fill:#bf360c;fill-opacity:1" /><circle
       id="circle817"
       r="3.6329999"
       cy="91.366997"
       cx="22.104"
       style="fill:#bf360c;fill-opacity:1" /><path
       sodipodi:type="inkscape:offset"
       inkscape:radius="-3.349149"
       inkscape:original="M 76.6875 5 L 71.945312 5.9453125 L 72.96875 11.089844 C 72.72575 11.164844 72.482281 11.243125 72.238281 11.328125 L 69.890625 6.6503906 L 65.566406 8.8183594 L 67.873047 13.417969 C 67.650047 13.558969 67.429984 13.704422 67.208984 13.857422 L 63.773438 10.042969 L 60.181641 13.279297 L 63.599609 17.074219 C 63.423609 17.274219 63.248172 17.4765 63.076172 17.6875 L 58.775391 14.935547 L 56.169922 19.009766 L 60.462891 21.755859 C 60.343891 21.992859 60.229234 22.239328 60.115234 22.486328 L 55.255859 20.978516 L 53.822266 25.597656 L 58.470703 27.039062 C 58.394703 27.317062 58.327813 27.606531 58.257812 27.894531 L 53.462891 27.738281 L 53.306641 32.572266 L 57.412109 32.705078 C 57.309109 33.599078 57.219063 34.516469 57.164062 35.480469 L 32.587891 35.480469 L 27.056641 33.900391 L 18.837891 40.539062 L 17.255859 59.820312 L 25.482422 59.820312 L 26.701172 68.738281 L 25.386719 82.460938 L 12.357422 82.460938 L 12.357422 86.574219 L 85.623047 86.574219 L 85.623047 82.460938 L 72.017578 82.460938 L 70.933594 68.740234 L 73.642578 57.429688 L 78.615234 43.582031 L 75.296875 29.753906 L 77.107422 27.429688 L 84.123047 35.583984 L 87.642578 33.960938 L 86.597656 20.908203 L 82.412109 5 C 82.412109 5 78.979687 10.014594 78.429688 10.058594 C 78.194688 10.077594 77.953031 10.099 77.707031 10.125 L 76.6875 5 z M 39.693359 57.429688 L 59.417969 57.429688 L 61.671875 68.740234 L 60.357422 82.462891 L 37.046875 82.462891 L 35.962891 68.740234 L 39.693359 57.429688 z "
       style="fill:#bf360c;fill-opacity:1"
       id="path819"
       d="m 80.894531,12.396484 c -0.112878,0.102935 -0.208824,0.199319 -0.396484,0.332032 -0.277225,0.196053 -0.575209,0.569922 -1.800781,0.667968 -0.216749,0.01754 -0.430215,0.03656 -0.638672,0.05859 A 3.3494839,3.3494839 0 0 1 75.798828,12.875 3.3494839,3.3494839 0 0 1 73.957031,14.289062 c -0.217859,0.06724 -0.42354,0.133713 -0.617187,0.201172 a 3.3494839,3.3494839 0 0 1 -2.28711,-0.0293 3.3494839,3.3494839 0 0 1 -1.390625,1.787109 c -0.184851,0.116879 -0.364611,0.237098 -0.546875,0.363281 a 3.3494839,3.3494839 0 0 1 -2.171875,0.582031 3.3494839,3.3494839 0 0 1 -0.830078,2.09375 c -0.165317,0.18786 -0.311761,0.356584 -0.441406,0.515625 a 3.3494839,3.3494839 0 0 1 -1.957031,1.171875 3.3494839,3.3494839 0 0 1 -0.259766,2.283203 c -0.08828,0.175829 -0.187645,0.391917 -0.298828,0.632813 a 3.3494839,3.3494839 0 0 1 -1.6875,1.65625 3.3494839,3.3494839 0 0 1 0.232422,2.375 c -0.05187,0.189729 -0.113456,0.451003 -0.189453,0.763672 a 3.3494839,3.3494839 0 0 1 -1.421875,2.007812 3.3494839,3.3494839 0 0 1 0.648437,2.394532 c -0.09858,0.855682 -0.180426,1.706888 -0.230469,2.583984 a 3.3494839,3.3494839 0 0 1 -3.34375,3.158203 H 32.587891 a 3.3494839,3.3494839 0 0 1 -0.919922,-0.128906 l -3.859375,-1.103516 -5.75,4.644532 -1.167969,14.228515 h 4.591797 a 3.3494839,3.3494839 0 0 1 3.318359,2.896485 l 1.21875,8.917968 a 3.3494839,3.3494839 0 0 1 0.01563,0.773438 L 28.720703,82.78125 a 3.3494839,3.3494839 0 0 1 -0.07813,0.443359 h 5.148438 a 3.3494839,3.3494839 0 0 1 -0.08203,-0.498047 L 32.625,69.003906 a 3.3494839,3.3494839 0 0 1 0.158203,-1.3125 l 3.730469,-11.310547 a 3.3494839,3.3494839 0 0 1 3.179687,-2.300781 h 19.72461 a 3.3494839,3.3494839 0 0 1 3.285156,2.695313 l 2.253906,11.310547 a 3.3494839,3.3494839 0 0 1 0.04883,0.974609 l -1.314453,13.722656 a 3.3494839,3.3494839 0 0 1 -0.07617,0.441406 h 5.146485 a 3.3494839,3.3494839 0 0 1 -0.08203,-0.5 L 67.595703,69.003906 a 3.3494839,3.3494839 0 0 1 0.08008,-1.042968 l 2.708985,-11.310547 a 3.3494839,3.3494839 0 0 1 0.105468,-0.353516 L 75.125,43.390625 72.041016,30.535156 a 3.3494839,3.3494839 0 0 1 0.613281,-2.839844 l 1.810547,-2.324218 a 3.3494839,3.3494839 0 0 1 5.18164,-0.125 l 4.341797,5.046875 -0.705078,-8.820313 z" /></g><circle
     style="color:#000000;clip-rule:nonzero;display:inline;overflow:visible;visibility:visible;opacity:1;isolation:auto;mix-blend-mode:normal;color-interpolation:sRGB;color-interpolation-filters:linearRGB;solid-color:#000000;solid-opacity:1;fill:#bf360c;fill-opacity:1;fill-rule:nonzero;stroke:#000000;stroke-width:2;stroke-linecap:round;stroke-linejoin:miter;stroke-miterlimit:4;stroke-dasharray:none;stroke-dashoffset:0;stroke-opacity:1;color-rendering:auto;image-rendering:auto;shape-rendering:auto;text-rendering:auto;enable-background:accumulate"
     id="path2590"
     cx="9.6440678"
     cy="85.599312"
     r="3.4643738" /><circle
     r="3.4643738"
     cy="85.599312"
     cx="63.644066"
     id="circle2592"
     style="color:#000000;clip-rule:nonzero;display:inline;overflow:visible;visibility:visible;opacity:1;isolation:auto;mix-blend-mode:normal;color-interpolation:sRGB;color-interpolation-filters:linearRGB;solid-color:#000000;solid-opacity:1;fill:#bf360c;fill-opacity:1;fill-rule:nonzero;stroke:#000000;stroke-width:2;stroke-linecap:round;stroke-linejoin:miter;stroke-miterlimit:4;stroke-dasharray:none;stroke-dashoffset:0;stroke-opacity:1;color-rendering:auto;image-rendering:auto;shape-rendering:auto;text-rendering:auto;enable-background:accumulate" /></svg>