<?xml version="1.0" encoding="UTF-8" standalone="no"?>
<svg
   xmlns:dc="http://purl.org/dc/elements/1.1/"
   xmlns:cc="http://creativecommons.org/ns#"
   xmlns:rdf="http://www.w3.org/1999/02/22-rdf-syntax-ns#"
   xmlns:svg="http://www.w3.org/2000/svg"
   xmlns="http://www.w3.org/2000/svg"
   xmlns:sodipodi="http://sodipodi.sourceforge.net/DTD/sodipodi-0.dtd"
   xmlns:inkscape="http://www.inkscape.org/namespaces/inkscape"
   version="1.1"
   x="0px"
   y="0px"
   viewBox="0 0 75.283997 90"
   xml:space="preserve"
   id="svg14"
   sodipodi:docname="trojan_full.svg"
   width="75.283997"
   height="90"
   inkscape:version="0.92.3 (2405546, 2018-03-11)"><metadata
     id="metadata20"><rdf:RDF><cc:Work
         rdf:about=""><dc:format>image/svg+xml</dc:format><dc:type
           rdf:resource="http://purl.org/dc/dcmitype/StillImage" /><dc:title></dc:title></cc:Work></rdf:RDF></metadata><defs
     id="defs18" /><sodipodi:namedview
     pagecolor="#ffffff"
     bordercolor="#666666"
     borderopacity="1"
     objecttolerance="10"
     gridtolerance="10"
     guidetolerance="10"
     inkscape:pageopacity="0"
     inkscape:pageshadow="2"
     inkscape:window-width="726"
     inkscape:window-height="480"
     id="namedview16"
     showgrid="false"
     fit-margin-top="0"
     fit-margin-left="0"
     fit-margin-right="0"
     fit-margin-bottom="0"
     inkscape:zoom="1.888"
     inkscape:cx="37.642"
     inkscape:cy="32.499997"
     inkscape:window-x="0"
     inkscape:window-y="283"
     inkscape:window-maximized="0"
     inkscape:current-layer="svg14" /><g
     id="g8"
     transform="translate(-12.358,-5)"><circle
       cx="75.879997"
       cy="91.366997"
       r="3.6329999"
       id="circle2" /><circle
       cx="22.104"
       cy="91.366997"
       r="3.6329999"
       id="circle4" /><path
       d="M 70.933,68.74 73.642,57.429 78.616,43.583 75.297,29.754 77.107,27.43 84.123,35.584 87.642,33.96 86.598,20.908 82.413,5 c 0,0 -3.433,5.014 -3.983,5.058 -0.235,0.019 -0.476,0.041 -0.722,0.067 L 76.688,5 l -4.743,0.945 1.024,5.144 c -0.243,0.075 -0.487,0.155 -0.731,0.24 L 69.89,6.65 l -4.323,2.168 2.307,4.599 c -0.223,0.141 -0.444,0.287 -0.665,0.44 l -3.435,-3.814 -3.593,3.237 3.418,3.794 c -0.176,0.2 -0.351,0.402 -0.523,0.613 l -4.3,-2.751 -2.606,4.074 4.293,2.746 c -0.119,0.237 -0.234,0.483 -0.348,0.73 l -4.859,-1.507 -1.434,4.619 4.649,1.442 c -0.076,0.278 -0.144,0.567 -0.214,0.855 l -4.794,-0.156 -0.157,4.834 4.106,0.133 C 57.309,33.6 57.22,34.517 57.165,35.481 H 32.587 L 27.056,33.9 18.837,40.539 17.255,59.821 h 8.228 l 1.219,8.917 -1.315,13.722 H 12.358 v 4.115 H 85.623 V 82.46 H 72.017 Z M 37.046,82.462 35.962,68.74 39.693,57.429 h 19.724 l 2.255,11.311 -1.315,13.722 z"
       id="path6"
       inkscape:connector-curvature="0" /></g></svg>