<?xml version="1.0" encoding="UTF-8" standalone="no"?>
<!-- Generator: Adobe Illustrator 16.0.0, SVG Export Plug-In . SVG Version: 6.00 Build 0)  -->

<svg
   xmlns:dc="http://purl.org/dc/elements/1.1/"
   xmlns:cc="http://creativecommons.org/ns#"
   xmlns:rdf="http://www.w3.org/1999/02/22-rdf-syntax-ns#"
   xmlns:svg="http://www.w3.org/2000/svg"
   xmlns="http://www.w3.org/2000/svg"
   xmlns:sodipodi="http://sodipodi.sourceforge.net/DTD/sodipodi-0.dtd"
   xmlns:inkscape="http://www.inkscape.org/namespaces/inkscape"
   version="1.1"
   id="Capa_1"
   x="0px"
   y="0px"
   width="512px"
   height="512px"
   viewBox="0 0 430.515 430.515"
   style="enable-background:new 0 0 430.515 430.515;"
   xml:space="preserve"
   sodipodi:docname="trojan_full.svg"
   inkscape:version="0.92.3 (2405546, 2018-03-11)"><metadata
   id="metadata41"><rdf:RDF><cc:Work
       rdf:about=""><dc:format>image/svg+xml</dc:format><dc:type
         rdf:resource="http://purl.org/dc/dcmitype/StillImage" /></cc:Work></rdf:RDF></metadata><defs
   id="defs39" /><sodipodi:namedview
   pagecolor="#ffffff"
   bordercolor="#666666"
   borderopacity="1"
   objecttolerance="10"
   gridtolerance="10"
   guidetolerance="10"
   inkscape:pageopacity="0"
   inkscape:pageshadow="2"
   inkscape:window-width="1280"
   inkscape:window-height="926"
   id="namedview37"
   showgrid="false"
   inkscape:zoom="1.4422302"
   inkscape:cx="256"
   inkscape:cy="256"
   inkscape:window-x="1366"
   inkscape:window-y="27"
   inkscape:window-maximized="1"
   inkscape:current-layer="Capa_1" />
<g
   id="g4"
   style="stroke:#000000;stroke-width:17.12949692;stroke-miterlimit:4;stroke-dasharray:none;stroke-opacity:1;fill:#bf130e;fill-opacity:1;stroke-linejoin:round">
	<path
   d="m 428.164,127.561 c -1.983,-2.843 -4.188,-5.554 -6.061,-8.468 -8.881,-13.844 -17.737,-27.708 -26.511,-41.625 -3.81,-6.036 -7.256,-12.291 -11.113,-18.285 -2.059,-3.193 -4.646,-6.03 -6.751,-8.72 3.44,-1.131 7.204,-1.836 10.435,-3.552 4.805,-2.562 8.75,-6.142 8.392,-12.421 -0.098,-1.598 -0.627,-2.266 -2.33,-2.234 -4.487,0.091 -8.989,-0.149 -13.461,0.103 -2.9,0.15 -3.601,-0.895 -3.535,-3.604 0.093,-4.061 -0.233,-8.134 -0.393,-12.164 -5.888,-0.739 -9.562,3.581 -14.426,4.667 0,-1.301 -0.016,-2.305 0.013,-3.305 0.055,-3.967 -0.347,-4.315 -4.357,-4.405 -15.309,-0.37 -30.4,1.812 -45.527,3.647 -1.537,0.185 -3.204,0.197 -4.567,0.824 -3.558,1.642 -7.06,3.447 -10.437,5.436 -12.476,7.309 -24.17,15.437 -32.229,27.958 -5.894,9.153 -12.434,17.867 -18.565,26.857 -0.839,1.228 -1.461,2.837 -1.554,4.312 -1.031,14.725 -1.915,29.456 -2.853,44.192 -0.033,0.514 -0.141,1.042 -0.239,1.71 -4.259,-0.282 -8.362,-0.577 -12.476,-0.808 -20.333,-1.149 -40.684,-2.32 -61.026,-3.39 -18.329,-0.971 -36.69,-1.586 -54.985,-2.881 -4.861,-0.342 -8.246,1.368 -11.598,4.143 -5.228,4.317 -10.366,8.763 -15.702,12.952 -2.055,1.619 -4.621,3.885 -6.845,3.762 -6.64,-0.375 -13.212,-1.822 -19.818,-2.796 -8.332,-1.223 -16.683,-2.415 -25.029,-3.526 -0.904,-0.121 -2.075,0.12 -2.786,0.64 -2.276,1.669 -4.556,3.379 -6.529,5.379 -6.169,6.271 -12.222,12.651 -18.215,19.076 -0.953,1.023 -1.807,2.451 -2.001,3.803 -0.807,5.438 -1.412,10.892 -1.951,16.367 -0.727,7.292 -1.39,14.585 -1.957,21.888 -0.477,6.181 -0.785,12.365 -1.177,18.69 1.706,0.265 2.769,0.481 3.85,0.586 4.288,0.41 8.575,0.804 12.859,1.203 l 6.55,0.269 c -0.178,-14.976 30.539,-32.14 30.608,-47.106 0.021,-5.245 1.856,-9.844 7.305,-11.778 1.699,-0.599 3.827,-0.561 5.608,-0.145 0.583,0.14 0.763,2.337 1.004,3.614 0.424,2.235 1.13,4.632 -0.869,6.465 -3.882,3.554 -3.882,7.907 -3.059,12.613 1.978,11.201 6.869,21.289 11.935,31.28 4.461,8.821 8.193,17.741 7.093,27.974 -0.32,2.845 -0.556,5.499 -2.566,7.857 -4.335,5.057 -8.484,10.276 -12.613,15.497 -1.455,1.839 -3.607,3.786 -3.77,5.822 -0.32,3.912 -0.313,8.273 1.097,11.83 3.812,9.587 8.523,18.812 12.671,28.263 2.106,4.801 3.78,9.778 5.792,15.054 -2.302,0.187 -4.022,0.322 -5.743,0.459 -4.186,0.355 -8.764,-0.229 -12.501,1.265 -7.924,3.157 -15.74,6.823 -22.503,12.295 -0.941,0.778 -2.407,1.275 -3.63,1.275 -6.888,-0.025 -13.768,-0.217 -20.649,-0.399 -2.408,-0.082 -3.374,0.805 -2.874,3.294 1.055,5.21 1.938,10.43 2.941,15.64 0.724,3.774 1.692,4.53 5.465,4.454 0.91,-0.022 1.84,-0.033 2.743,-0.196 2.22,-0.411 2.854,0.502 2.881,2.681 0.039,4.119 0.128,8.273 0.679,12.35 0.675,5.122 3.563,8.99 7.025,12.92 5.872,6.648 12.496,12.088 20.156,16.351 2.643,1.477 5.579,3.097 8.493,3.326 5.839,0.471 11.741,0.013 17.617,0 4.16,-0.011 8.271,-0.607 11.683,-2.988 7.639,-5.334 16.649,-9.17 20.782,-18.527 1.482,-3.338 3.56,-6.402 5.089,-9.707 0.599,-1.29 0.761,-2.955 0.627,-4.404 -0.348,-4.044 -0.958,-8.062 -1.508,-12.483 39.42,0.335 78.211,0.657 117.095,0.98 0.196,2.348 0.494,4.153 0.481,5.97 -0.055,8.279 1.647,15.488 7.901,21.882 6.228,6.376 12.838,11.957 20.52,16.318 2.387,1.362 5.122,2.875 7.766,2.96 7.228,0.274 14.497,-0.085 21.739,-0.398 1.731,-0.083 3.623,-0.63 5.111,-1.517 5.023,-2.987 9.959,-6.106 14.77,-9.417 1.988,-1.363 3.963,-3.097 5.226,-5.105 3.212,-5.098 6.052,-10.43 8.94,-15.725 0.396,-0.719 0.384,-1.754 0.285,-2.618 -0.328,-2.966 -0.786,-5.921 -1.237,-9.148 2.896,0 5.289,0.155 7.629,-0.077 0.837,-0.076 2.145,-0.974 2.278,-1.674 1.564,-8.263 2.955,-16.542 4.355,-24.833 0.355,-2.089 -0.582,-2.878 -2.76,-2.933 -8.805,-0.217 -17.62,-0.569 -26.408,-1.006 -1.236,-0.065 -2.592,-0.7 -3.609,-1.456 -3.832,-2.811 -7.525,-5.8 -11.312,-8.656 -0.695,-0.531 -1.647,-1.073 -2.446,-1.027 -8.269,0.536 -16.65,-0.383 -24.775,2.072 -1.14,0.355 -2.913,0.071 -3.837,-0.64 -2.151,-1.653 -3.802,-3.94 -5.927,-5.621 -2.846,-2.249 -3.151,-5.159 -2.834,-8.344 0.383,-3.831 1.099,-7.639 1.192,-11.48 0.252,-11.086 1.773,-21.844 6.644,-31.957 4.599,-9.575 9.444,-18.988 17.006,-26.675 5.84,-5.928 11.689,-11.826 17.391,-17.878 6.02,-6.401 9.148,-13.833 9.927,-22.843 0.921,-10.7 3.109,-21.345 5.329,-31.883 2.802,-13.229 6.14,-26.345 9.37,-39.48 1.07,-4.32 2.559,-8.533 3.916,-13.021 3.229,1.215 6.118,2.342 9.036,3.396 6.98,2.531 13.951,5.114 21.618,4.162 0.821,-0.112 1.816,0.309 2.55,0.763 8.193,4.987 16.416,9.924 24.471,15.122 3.903,2.517 7.718,5.297 11.13,8.441 4.082,3.748 3.868,3.953 7.92,0.435 0.761,-0.66 1.597,-1.23 2.367,-1.877 5.817,-4.868 11.598,-9.79 17.453,-14.613 4.744,-3.903 5.188,-6.666 1.625,-11.725 z M 74.419,386.841 c -7.302,0 -13.226,-5.921 -13.226,-13.231 0,-7.3 5.93,-13.215 13.226,-13.215 7.305,0 13.223,5.926 13.223,13.215 0.006,7.31 -5.918,13.231 -13.223,13.231 z m 150.578,-75.468 c -0.207,9.53 -1.025,19.04 -1.414,28.562 -0.093,2.228 -0.723,2.998 -3.025,2.979 -13.309,-0.099 -26.616,-0.046 -39.93,-0.046 0,0.027 0,0.065 0,0.099 -13.212,0 -26.423,-0.033 -39.641,0.032 -1.721,0 -2.712,-0.59 -3.913,-1.868 -3.047,-3.241 -6.448,-6.153 -9.716,-9.174 -1.014,-0.93 -1.973,-1.962 -3.122,-2.687 -6.988,-4.411 -7.368,-11.659 -8.153,-18.73 -0.99,-9.083 -1.696,-18.211 -2.974,-27.261 -0.421,-3.033 1.004,-4.361 2.937,-5.736 5.047,-3.621 10.079,-7.271 15.235,-10.725 4.761,-3.206 9.812,-6.008 14.456,-9.357 2.083,-1.51 3.547,-3.906 5.211,-5.964 1.529,-1.915 3.145,-3.809 4.359,-5.921 1.56,-2.692 3.397,-3.376 6.461,-2.55 10.658,2.867 21.327,5.772 32.108,8.071 6.667,1.417 13.554,1.916 20.361,2.523 3.313,0.295 6.045,2.254 6.535,5.668 1.297,9.128 2.96,18.228 3.743,27.404 0.691,8.175 0.669,16.459 0.482,24.681 z m 58.551,49.017 c 7.315,0 13.231,5.92 13.231,13.22 0,7.311 -5.921,13.231 -13.231,13.231 -7.3,0 -13.21,-5.926 -13.21,-13.231 0,-7.3 5.921,-13.22 13.21,-13.22 z"
   id="path2"
   inkscape:connector-curvature="0"
   style="fill:#bf130e;stroke:#000000;stroke-width:17.12949692;stroke-miterlimit:4;stroke-dasharray:none;stroke-opacity:1;fill-opacity:1;stroke-linejoin:round" />
</g>
<g
   id="g6">
</g>
<g
   id="g8">
</g>
<g
   id="g10">
</g>
<g
   id="g12">
</g>
<g
   id="g14">
</g>
<g
   id="g16">
</g>
<g
   id="g18">
</g>
<g
   id="g20">
</g>
<g
   id="g22">
</g>
<g
   id="g24">
</g>
<g
   id="g26">
</g>
<g
   id="g28">
</g>
<g
   id="g30">
</g>
<g
   id="g32">
</g>
<g
   id="g34">
</g>
</svg>